{"glyphs":{"0":{"ha":1133,"x_min":46,"x_max":1088,"o":"m 1088 576 q 1067 394 1088 477 q 1011 245 1047 311 q 924 130 975 180 q 814 48 874 81 q 687 -1 754 16 q 550 -17 620 -17 q 419 -2 483 -17 q 299 43 355 13 q 197 117 243 73 q 117 221 151 162 q 65 354 83 280 q 46 517 46 428 q 66 694 46 614 q 122 840 86 775 q 209 953 159 905 q 318 1033 258 1001 q 444 1081 377 1065 q 581 1097 511 1097 q 712 1083 648 1097 q 832 1039 776 1068 q 936 965 888 1009 q 1016 864 983 922 q 1069 734 1050 806 q 1088 576 1088 662 m 456 618 q 468 425 456 511 q 499 279 479 339 q 542 187 518 219 q 589 155 566 155 q 622 175 606 155 q 650 234 638 194 q 670 337 663 275 q 677 486 677 399 q 665 670 677 588 q 633 808 652 751 q 590 896 614 865 q 543 926 566 926 q 510 908 526 926 q 482 852 494 890 q 463 756 470 814 q 456 618 456 698 z "},"1":{"ha":766,"x_min":46,"x_max":720,"o":"m 610 288 q 618 240 610 257 q 638 214 626 223 q 665 202 650 205 q 691 195 679 199 q 711 183 703 191 q 720 160 720 176 q 632 38 720 75 q 379 0 545 0 q 237 9 299 0 q 133 38 175 18 q 68 87 90 57 q 46 160 46 118 q 54 183 46 176 q 74 194 62 191 q 100 201 86 198 q 126 213 114 205 q 146 238 138 222 q 154 285 154 254 l 154 713 q 146 759 154 743 q 126 784 138 776 q 100 796 114 793 q 74 803 86 800 q 54 814 62 807 q 46 838 46 821 q 68 916 46 881 q 129 977 91 950 q 215 1023 166 1004 q 317 1055 264 1042 q 424 1073 370 1067 q 524 1079 477 1079 q 573 1068 555 1079 q 599 1035 591 1057 q 609 981 608 1013 q 611 907 611 949 l 610 288 z "},"2":{"ha":861,"x_min":25,"x_max":820,"o":"m 49 153 q 118 263 79 203 q 196 385 157 322 q 274 510 236 447 q 341 630 312 572 q 389 736 371 687 q 407 821 407 785 q 376 885 407 861 q 271 908 345 908 q 171 896 216 908 q 89 864 125 883 q 67 857 80 857 q 51 863 59 857 q 38 879 43 869 q 28 898 32 888 q 25 918 25 909 q 27 929 25 924 q 33 939 30 935 q 112 1006 66 977 q 208 1056 157 1036 q 316 1087 260 1076 q 429 1097 372 1097 q 581 1076 515 1097 q 690 1016 646 1054 q 757 924 734 977 q 779 810 779 871 q 753 667 779 743 q 672 515 726 592 q 537 361 618 437 q 345 215 455 284 q 506 222 441 215 q 611 241 570 230 q 673 264 651 252 q 706 288 694 277 q 724 307 718 299 q 739 314 730 314 q 797 292 774 314 q 820 232 820 270 q 817 188 820 213 q 807 138 814 163 q 788 87 800 112 q 758 43 777 62 q 715 12 740 24 q 656 0 690 0 l 125 0 q 83 8 101 0 q 55 31 66 17 q 38 61 43 44 q 33 96 33 78 q 37 126 33 111 q 49 153 41 141 z "},"3":{"ha":882,"x_min":16,"x_max":850,"o":"m 457 -16 q 342 -5 399 -16 q 232 26 284 5 q 134 76 179 46 q 54 144 88 106 q 48 154 51 150 q 46 165 46 159 q 50 186 46 175 q 59 206 53 197 q 72 222 64 216 q 89 228 80 228 q 111 222 102 228 q 202 188 149 201 q 310 175 255 175 q 384 189 352 175 q 437 224 416 202 q 469 274 458 246 q 479 332 479 302 q 470 381 479 357 q 443 425 461 406 q 399 455 425 444 q 339 467 373 467 q 307 460 324 467 q 275 454 289 454 q 254 461 264 454 q 236 477 243 467 q 224 499 229 488 q 220 522 220 511 q 227 546 220 536 q 249 570 233 557 q 308 617 283 593 q 348 668 332 642 q 371 718 363 693 q 378 766 378 743 q 368 820 378 795 q 339 862 357 844 q 295 890 321 880 q 237 900 269 900 q 160 886 201 900 q 77 839 119 871 q 63 833 69 835 q 52 832 57 832 q 23 847 31 832 q 16 878 16 861 q 16 891 16 884 q 18 901 17 897 q 74 987 36 950 q 163 1048 112 1023 q 273 1086 214 1074 q 392 1099 332 1099 q 517 1084 456 1099 q 625 1040 578 1069 q 700 965 671 1010 q 728 860 728 920 q 721 797 728 829 q 695 735 713 766 q 644 678 676 705 q 561 628 612 651 q 689 575 635 608 q 780 499 744 541 q 832 408 815 456 q 850 310 850 359 q 824 190 850 248 q 748 86 798 132 q 625 12 698 40 q 457 -16 551 -16 z "},"4":{"ha":1019,"x_min":7,"x_max":1006,"o":"m 822 524 l 827 524 q 907 522 873 524 q 963 508 941 519 q 996 471 985 496 q 1006 400 1006 446 q 996 335 1006 358 q 963 301 985 312 q 907 289 941 291 q 827 288 873 288 l 822 288 l 822 265 q 829 221 822 237 q 848 197 837 205 q 872 186 859 189 q 897 179 886 182 q 916 169 908 176 q 923 147 923 162 q 898 83 923 111 q 831 37 872 55 q 736 9 789 18 q 629 0 684 0 q 522 9 574 0 q 430 36 470 18 q 365 82 389 54 q 340 147 340 110 q 347 169 340 162 q 366 179 355 176 q 390 185 377 182 q 414 196 403 189 q 433 219 425 204 q 440 262 440 235 l 440 288 l 216 288 q 118 290 158 288 q 54 300 79 292 q 19 325 30 309 q 8 368 8 340 q 8 385 8 376 q 7 404 7 393 q 9 436 7 418 q 15 472 10 454 q 27 511 19 491 q 50 550 35 530 l 440 1097 q 627 1086 553 1097 q 745 1050 701 1075 q 806 985 789 1025 q 823 888 823 945 l 822 524 m 440 828 q 370 727 406 780 q 305 628 335 673 q 237 524 271 575 l 440 524 l 440 828 z "},"5":{"ha":850,"x_min":1,"x_max":819,"o":"m 208 1080 l 344 1080 q 505 1087 441 1080 q 610 1105 569 1095 q 672 1128 650 1116 q 705 1152 693 1141 q 722 1170 716 1162 q 739 1177 728 1177 q 796 1155 773 1177 q 819 1095 819 1133 q 817 1051 819 1076 q 807 1000 814 1026 q 788 950 800 975 q 758 906 776 925 q 714 874 739 886 q 655 863 689 863 l 281 863 l 252 732 q 286 733 269 733 q 317 733 302 733 q 534 699 444 733 q 684 610 625 665 q 770 485 743 555 q 798 343 798 415 q 783 229 798 280 q 741 138 768 178 q 677 69 714 98 q 596 21 640 40 q 504 -6 553 3 q 405 -16 455 -16 q 292 -5 348 -16 q 184 26 236 5 q 89 76 133 46 q 11 143 44 105 q 1 164 1 152 q 4 183 1 173 q 13 203 7 194 q 27 219 19 212 q 43 225 35 225 q 54 223 49 225 q 66 218 60 222 q 107 201 84 209 q 155 186 130 193 q 208 177 180 180 q 262 174 235 174 q 335 186 301 174 q 393 219 368 198 q 431 266 417 239 q 444 322 444 293 q 425 389 444 355 q 364 452 406 422 q 254 502 321 481 q 88 532 186 524 l 208 1080 z "},"6":{"ha":1054,"x_min":23,"x_max":1034,"o":"m 515 553 q 459 552 478 553 q 432 549 441 551 q 420 546 422 547 q 426 354 420 428 q 443 237 431 279 q 475 180 455 195 q 523 164 494 164 q 571 178 551 164 q 604 214 591 191 q 623 268 616 237 q 629 332 629 298 q 621 410 629 371 q 598 481 612 450 q 562 533 583 513 q 515 553 541 553 m 823 1114 q 857 1107 842 1114 q 880 1089 871 1100 q 895 1065 890 1079 q 899 1038 899 1052 q 887 992 899 1014 q 850 960 875 970 q 801 946 833 954 q 730 926 769 939 q 647 896 690 914 q 565 850 604 878 q 494 783 526 823 q 446 690 463 744 q 558 733 503 720 q 666 746 614 746 q 822 715 753 746 q 938 634 890 685 q 1009 519 985 584 q 1034 385 1034 454 q 1021 286 1034 335 q 982 192 1008 237 q 915 110 956 148 q 819 43 874 71 q 693 -1 764 15 q 536 -17 622 -17 q 309 20 406 -17 q 149 119 213 57 q 54 264 85 182 q 23 436 23 346 q 46 596 23 515 q 115 752 69 677 q 228 893 160 827 q 385 1008 296 959 q 583 1085 473 1057 q 823 1114 693 1114 z "},"7":{"ha":853,"x_min":4,"x_max":851,"o":"m 479 864 q 318 857 382 864 q 213 838 254 849 q 151 814 172 827 q 118 791 130 802 q 100 772 106 780 q 85 765 94 765 q 27 787 50 765 q 4 847 4 810 q 7 891 4 866 q 17 941 9 916 q 36 992 24 967 q 66 1036 47 1017 q 109 1067 84 1055 q 168 1079 134 1079 l 680 1079 q 811 1054 770 1079 q 851 970 851 1029 q 849 936 851 953 q 841 898 846 918 q 828 852 836 878 q 807 794 819 827 l 498 -16 q 480 -67 488 -44 q 458 -105 472 -90 q 421 -129 445 -121 q 354 -138 397 -138 q 276 -125 315 -138 q 204 -93 236 -113 q 151 -45 172 -73 q 131 13 131 -18 q 139 49 131 31 l 505 865 l 479 864 z "},"8":{"ha":1035,"x_min":46,"x_max":996,"o":"m 671 852 q 639 908 671 887 q 539 929 606 929 q 465 922 492 929 q 425 905 438 916 q 407 880 411 894 q 404 852 404 866 q 429 794 404 819 q 496 749 454 770 q 591 708 538 728 q 700 664 644 688 q 809 610 755 640 q 904 539 862 581 q 971 444 945 498 q 996 315 996 389 q 961 168 996 231 q 861 65 926 106 q 701 4 795 24 q 488 -16 606 -16 q 377 -8 432 -16 q 273 16 322 0 q 182 56 224 32 q 110 111 140 79 q 63 183 80 143 q 46 271 46 222 q 71 373 46 323 q 142 461 96 422 q 253 524 188 500 q 398 547 317 547 q 423 545 410 547 q 446 540 435 543 q 462 532 456 536 q 469 525 469 528 q 457 498 469 515 q 428 460 446 481 q 390 415 410 439 q 353 367 370 391 q 323 320 335 343 q 312 277 312 296 q 319 243 312 260 q 343 212 326 226 q 387 189 360 198 q 454 180 414 180 q 534 192 503 180 q 586 221 566 204 q 613 257 605 238 q 621 289 621 275 q 597 328 621 312 q 535 358 574 344 q 446 386 496 372 q 344 421 396 401 q 242 469 292 441 q 154 540 193 498 q 91 639 115 582 q 67 775 67 696 q 85 874 67 829 q 134 955 102 919 q 207 1018 165 991 q 299 1062 250 1044 q 401 1088 348 1080 q 509 1097 455 1097 q 652 1081 583 1097 q 775 1032 722 1065 q 861 951 829 1000 q 894 839 894 903 q 870 729 894 784 q 804 631 846 675 q 704 561 762 588 q 576 534 646 534 q 531 548 548 534 q 515 593 515 562 q 526 625 515 606 q 555 668 538 645 q 593 716 573 691 q 631 766 613 742 q 660 813 648 791 q 671 852 671 836 z "},"9":{"ha":1054,"x_min":20,"x_max":1031,"o":"m 539 528 q 594 529 575 528 q 622 531 613 530 q 633 534 632 532 q 628 727 633 652 q 610 843 623 801 q 578 901 598 886 q 530 917 559 917 q 483 903 503 917 q 450 866 463 889 q 431 812 437 843 q 425 749 425 782 q 433 670 425 709 q 456 599 441 631 q 492 548 471 568 q 539 528 513 528 m 231 -33 q 197 -26 212 -33 q 173 -9 183 -20 q 159 15 163 1 q 154 43 154 28 q 166 89 154 67 q 204 120 179 111 q 253 134 221 126 q 324 154 285 142 q 406 184 363 165 q 488 230 449 202 q 559 297 528 258 q 608 390 591 336 q 495 348 551 361 q 387 335 440 335 q 231 366 300 335 q 116 447 163 396 q 44 562 69 497 q 20 696 20 627 q 33 794 20 745 q 72 888 45 844 q 139 971 98 932 q 235 1037 180 1009 q 361 1081 290 1065 q 518 1097 431 1097 q 745 1060 648 1097 q 905 961 841 1023 q 1000 817 968 899 q 1031 644 1031 734 q 1008 485 1031 566 q 939 328 985 404 q 826 187 894 253 q 669 72 758 121 q 471 -5 581 23 q 231 -33 361 -33 z "}," ":{"ha":339,"x_min":0,"x_max":0,"o":""},"!":{"ha":556,"x_min":53,"x_max":495,"o":"m 53 154 q 65 213 53 188 q 95 257 77 239 q 138 289 114 276 q 187 309 162 301 q 234 319 212 316 q 274 322 257 322 q 315 319 292 322 q 363 309 338 316 q 411 289 387 301 q 453 257 435 276 q 483 213 472 239 q 494 154 494 188 q 483 95 494 121 q 453 51 472 69 q 411 20 435 33 q 363 0 387 7 q 315 -11 338 -7 q 274 -14 292 -14 q 234 -11 257 -14 q 187 0 212 -7 q 138 20 162 7 q 95 51 114 33 q 65 95 77 69 q 53 154 53 120 m 486 867 q 456 706 469 777 q 433 582 444 635 q 411 491 422 528 q 381 430 399 453 q 338 395 363 406 q 275 385 313 385 q 219 395 241 385 q 181 430 197 406 q 154 491 165 454 q 131 583 142 529 q 106 708 119 637 q 72 869 92 779 q 64 912 66 891 q 61 953 61 933 q 72 1022 61 990 q 108 1078 83 1055 q 174 1115 133 1101 q 275 1128 215 1128 q 380 1114 338 1128 q 448 1077 422 1101 q 484 1020 473 1053 q 495 949 495 987 q 493 909 495 929 q 486 867 490 888 z "},"\"":{"ha":900,"x_min":28,"x_max":870,"o":"m 863 895 q 836 754 847 814 q 815 650 825 694 q 795 578 806 607 q 768 533 784 550 q 730 510 753 517 q 673 504 707 504 q 623 510 644 504 q 589 533 603 517 q 564 578 574 550 q 544 651 554 607 q 522 755 534 694 q 492 897 509 816 q 482 972 482 937 q 492 1034 482 1005 q 524 1083 501 1062 q 583 1116 546 1104 q 673 1128 619 1128 q 767 1116 730 1128 q 828 1082 805 1103 q 861 1031 851 1061 q 870 967 870 1002 q 863 895 870 934 m 408 895 q 382 754 393 814 q 361 650 371 694 q 340 578 351 607 q 314 533 330 550 q 276 510 298 517 q 219 504 253 504 q 169 510 189 504 q 134 533 149 517 q 110 578 120 550 q 90 651 100 607 q 67 755 79 694 q 37 897 55 816 q 28 972 28 937 q 37 1034 28 1005 q 69 1083 47 1062 q 128 1116 92 1104 q 219 1128 165 1128 q 313 1116 275 1128 q 374 1082 351 1103 q 406 1031 397 1061 q 416 967 416 1002 q 408 895 416 934 z "},"#":{"ha":1381,"x_min":28,"x_max":1355,"o":"m 96 786 q 94 793 94 789 q 94 800 94 797 q 107 843 94 827 q 142 866 121 858 q 191 876 163 873 q 248 878 219 878 l 321 878 l 373 1171 q 385 1211 376 1190 q 409 1247 394 1231 q 447 1274 425 1263 q 503 1284 470 1284 q 587 1270 553 1284 q 641 1233 621 1255 q 669 1186 661 1211 q 677 1141 677 1161 q 676 1119 677 1132 q 669 1079 674 1106 q 656 1004 665 1052 q 633 878 647 957 l 842 878 l 894 1171 q 906 1211 897 1190 q 930 1247 915 1231 q 968 1274 945 1263 q 1023 1284 991 1284 q 1108 1270 1074 1284 q 1162 1233 1142 1255 q 1190 1186 1182 1211 q 1198 1141 1198 1161 q 1197 1119 1198 1132 q 1190 1079 1195 1106 q 1177 1004 1185 1052 q 1154 878 1168 957 q 1222 876 1186 878 q 1287 863 1257 873 q 1336 832 1316 853 q 1355 774 1355 811 q 1337 728 1355 744 q 1292 705 1320 712 q 1231 696 1264 697 q 1165 694 1197 694 l 1120 694 l 1078 464 q 1149 462 1112 464 q 1218 451 1187 460 q 1270 420 1249 441 q 1290 361 1290 399 q 1272 315 1290 331 q 1226 291 1254 298 q 1163 282 1198 283 q 1097 281 1129 281 l 1046 281 l 1000 31 q 988 -8 996 12 q 964 -45 979 -28 q 926 -73 949 -62 q 871 -83 903 -83 q 786 -68 819 -83 q 732 -29 752 -52 q 705 20 713 -6 q 697 65 697 45 q 701 97 697 83 l 733 281 l 525 281 l 479 31 q 467 -8 475 12 q 443 -45 458 -28 q 405 -73 428 -62 q 350 -83 382 -83 q 265 -68 298 -83 q 212 -29 231 -52 q 184 20 192 -6 q 176 65 176 45 q 180 97 176 83 l 212 281 l 203 281 q 140 282 171 281 q 83 294 109 284 q 43 326 58 304 q 28 387 28 347 q 41 429 28 414 q 76 452 54 445 q 125 462 98 460 q 182 464 153 464 l 245 464 q 257 526 252 500 q 267 577 262 552 q 276 629 271 602 q 288 694 281 656 l 271 694 q 210 696 240 694 q 156 706 180 697 q 116 733 132 715 q 96 786 100 751 m 808 694 l 600 694 l 557 464 l 766 464 l 808 694 z "},"$":{"ha":1059,"x_min":33,"x_max":1026,"o":"m 427 -157 q 398 -151 410 -156 q 380 -137 387 -145 q 370 -118 373 -128 q 368 -98 368 -108 q 368 -89 368 -92 q 371 -60 369 -85 q 376 3 373 -36 q 243 41 306 16 q 134 102 181 66 q 60 182 87 138 q 33 281 33 227 q 44 341 33 315 q 73 384 55 367 q 114 408 91 400 q 162 416 137 416 q 223 405 193 416 q 278 371 254 393 q 318 316 302 349 q 333 241 333 283 q 348 214 333 229 q 392 189 363 199 l 408 372 q 325 402 367 385 q 243 440 283 418 q 170 491 204 463 q 109 558 135 520 q 68 644 83 595 q 54 753 54 692 q 86 901 54 839 q 175 1004 119 963 q 306 1068 231 1046 q 467 1096 381 1090 l 477 1215 q 480 1235 477 1225 q 490 1253 484 1244 q 508 1266 497 1261 q 534 1272 519 1272 q 570 1266 556 1272 q 592 1253 584 1261 q 603 1234 600 1245 q 606 1212 606 1223 l 606 1204 q 603 1172 605 1200 q 597 1097 601 1143 q 772 1064 700 1090 q 891 1002 845 1038 q 958 922 937 965 q 979 838 979 879 q 962 768 979 798 q 918 720 945 739 q 856 692 890 701 q 786 684 821 684 q 720 691 752 684 q 663 713 688 699 q 623 750 638 728 q 608 799 608 771 q 617 829 608 819 q 637 846 626 840 q 657 860 648 853 q 667 880 667 867 q 646 908 667 895 q 583 927 626 921 l 566 717 l 611 701 q 706 667 657 685 q 801 626 755 649 q 888 575 847 604 q 959 510 928 547 q 1008 426 990 473 q 1026 319 1026 378 q 989 161 1026 224 q 887 59 953 97 q 732 4 822 20 q 536 -12 642 -12 q 521 -12 528 -12 q 507 -12 514 -12 q 502 -73 503 -49 q 500 -100 500 -96 q 495 -119 498 -109 q 485 -138 492 -130 q 467 -152 477 -146 q 440 -157 456 -157 q 434 -157 437 -157 q 427 -157 431 -157 m 633 261 q 606 301 633 285 q 534 333 578 318 l 522 176 q 580 189 558 180 q 613 210 602 198 q 629 236 625 222 q 633 261 633 249 m 385 852 q 400 809 385 828 q 441 772 415 789 q 447 850 444 812 q 453 924 450 889 q 416 912 430 920 q 396 895 403 904 q 387 874 389 885 q 385 852 385 863 z "},"%":{"ha":2265,"x_min":31,"x_max":2235,"o":"m 791 -18 q 723 36 743 5 q 704 98 704 67 q 710 139 704 119 q 726 175 716 158 q 750 219 731 185 q 797 305 769 254 q 860 421 825 356 q 935 557 896 486 q 1015 703 974 628 q 1094 848 1055 777 q 1168 983 1133 919 q 1231 1097 1203 1047 q 1276 1180 1258 1147 q 1298 1222 1293 1213 q 1318 1253 1306 1238 q 1347 1281 1331 1269 q 1383 1301 1363 1293 q 1428 1308 1403 1308 q 1507 1293 1475 1308 q 1558 1256 1539 1278 q 1585 1211 1577 1234 q 1593 1171 1593 1187 q 1587 1132 1593 1150 q 1571 1096 1580 1113 q 1548 1054 1566 1087 q 1502 971 1530 1021 q 1440 857 1475 921 q 1365 722 1404 793 q 1286 576 1326 651 q 1206 431 1245 502 q 1131 295 1166 359 q 1068 179 1096 230 q 1021 93 1040 127 q 997 49 1002 59 q 977 19 989 34 q 948 -8 964 4 q 911 -28 932 -20 q 866 -36 890 -36 q 830 -32 850 -36 q 791 -18 810 -28 m 960 880 q 920 666 960 758 q 814 514 880 574 q 661 423 747 453 q 481 393 574 393 q 308 420 390 393 q 165 503 227 448 q 67 640 103 557 q 31 831 31 722 q 70 1041 31 951 q 175 1190 109 1131 q 328 1279 241 1249 q 509 1308 414 1308 q 681 1281 599 1308 q 824 1200 762 1254 q 923 1066 886 1146 q 960 880 960 986 m 396 915 q 407 756 396 826 q 435 636 418 686 q 473 561 452 587 q 515 534 494 534 q 544 550 530 534 q 569 599 558 566 q 586 683 580 632 q 593 806 593 734 q 582 956 593 889 q 554 1070 571 1023 q 515 1143 536 1118 q 473 1168 494 1168 q 444 1153 458 1168 q 419 1107 430 1138 q 402 1028 408 1076 q 396 915 396 981 m 2235 404 q 2195 190 2235 281 q 2089 38 2155 98 q 1936 -53 2022 -23 q 1756 -83 1849 -83 q 1583 -56 1665 -83 q 1440 26 1501 -28 q 1342 163 1378 81 q 1305 355 1305 245 q 1345 565 1305 475 q 1450 714 1384 654 q 1603 803 1516 773 q 1784 832 1689 832 q 1955 805 1874 832 q 2099 724 2037 778 q 2198 590 2161 670 q 2235 404 2235 510 m 1671 439 q 1682 280 1671 350 q 1710 160 1693 210 q 1748 84 1727 111 q 1790 58 1769 58 q 1819 74 1805 58 q 1844 123 1833 90 q 1861 207 1855 156 q 1868 330 1868 258 q 1857 480 1868 413 q 1829 594 1846 547 q 1790 667 1811 642 q 1748 692 1769 692 q 1719 677 1733 692 q 1694 631 1705 662 q 1677 552 1683 600 q 1671 439 1671 505 z "},"&":{"ha":1457,"x_min":31,"x_max":1460,"o":"m 1460 918 q 1420 796 1447 851 q 1357 697 1393 741 q 1280 623 1322 654 q 1195 574 1238 592 q 1257 328 1257 436 q 1233 215 1257 266 q 1167 124 1209 164 q 1067 55 1125 84 q 942 5 1009 25 q 799 -24 874 -14 q 648 -33 724 -33 q 495 -23 571 -33 q 351 7 420 -14 q 224 59 283 27 q 123 133 166 90 q 56 232 80 176 q 31 355 31 287 q 41 443 31 399 q 71 527 52 486 q 118 605 90 568 q 181 673 146 642 q 106 751 130 706 q 81 844 81 795 q 108 947 81 896 q 188 1038 135 998 q 320 1104 241 1079 q 505 1129 399 1129 q 559 1125 528 1129 q 624 1113 591 1121 q 688 1092 656 1105 q 744 1060 720 1078 q 784 1019 768 1042 q 799 966 799 996 q 797 952 799 960 q 790 937 795 944 q 777 926 785 930 q 758 921 769 921 q 748 921 752 921 q 739 925 744 922 q 681 949 710 940 q 627 958 652 958 q 585 944 604 958 q 553 907 566 930 q 532 857 539 885 q 524 802 524 829 q 528 765 524 783 q 541 734 532 748 q 562 711 549 720 q 592 699 574 701 q 615 679 608 688 q 623 654 623 669 q 604 600 623 621 q 553 579 585 579 q 523 567 536 579 q 500 534 509 555 q 487 485 492 513 q 482 425 482 457 q 490 358 482 393 q 512 292 498 324 q 547 231 526 260 q 594 180 568 202 q 651 146 620 159 q 716 134 682 134 q 810 150 773 134 q 870 193 848 165 q 901 258 892 221 q 910 336 910 294 q 905 403 910 369 q 893 471 901 437 q 878 536 886 505 q 862 596 869 568 q 798 587 825 596 q 755 555 770 578 q 734 522 742 535 q 721 500 726 508 q 714 488 716 492 q 713 484 713 484 l 630 547 q 691 707 648 638 q 788 823 734 777 q 901 893 842 869 q 1013 917 960 917 q 1075 910 1046 917 q 1133 894 1105 903 q 1188 878 1161 885 q 1242 871 1215 871 q 1269 872 1255 871 q 1295 879 1282 874 q 1317 890 1307 883 q 1335 909 1328 898 q 1359 947 1351 934 q 1372 968 1368 961 q 1377 978 1376 975 q 1379 982 1378 981 l 1460 918 z "},"'":{"ha":446,"x_min":28,"x_max":416,"o":"m 408 895 q 382 754 393 814 q 361 650 371 694 q 340 578 351 607 q 314 533 330 550 q 276 510 298 517 q 219 504 253 504 q 169 510 189 504 q 134 533 149 517 q 110 578 120 550 q 90 651 100 607 q 67 755 79 694 q 37 897 55 816 q 28 972 28 937 q 37 1034 28 1005 q 69 1083 47 1062 q 128 1116 92 1104 q 219 1128 165 1128 q 313 1116 275 1128 q 374 1082 351 1103 q 406 1031 397 1061 q 416 967 416 1002 q 408 895 416 934 z "},"(":{"ha":701,"x_min":31,"x_max":694,"o":"m 31 541 q 43 674 31 606 q 83 807 56 742 q 153 932 111 873 q 255 1039 196 991 q 392 1119 315 1086 q 566 1164 469 1152 q 579 1165 573 1165 q 591 1165 586 1165 q 640 1157 620 1165 q 671 1136 659 1149 q 689 1105 684 1122 q 694 1071 694 1088 q 691 1042 694 1057 q 682 1015 688 1027 q 667 994 675 1003 q 648 981 659 985 q 545 910 589 956 q 471 807 500 865 q 427 681 441 748 q 412 543 412 613 q 427 405 412 473 q 471 279 441 337 q 545 175 500 220 q 648 105 589 130 q 667 92 659 101 q 682 71 675 83 q 691 44 688 58 q 694 16 694 30 q 689 -19 694 -2 q 671 -50 684 -37 q 640 -71 659 -63 q 591 -79 620 -79 q 579 -79 586 -79 q 566 -78 573 -79 q 392 -33 469 -66 q 255 47 315 0 q 153 154 196 95 q 83 277 111 213 q 43 409 56 342 q 31 541 31 477 z "},")":{"ha":701,"x_min":7,"x_max":671,"o":"m 671 541 q 658 409 671 477 q 618 277 645 342 q 548 154 591 213 q 446 47 505 95 q 309 -33 386 0 q 134 -78 231 -66 q 122 -79 128 -79 q 110 -79 115 -79 q 62 -71 81 -79 q 30 -50 42 -63 q 12 -19 18 -37 q 7 16 7 -2 q 10 44 7 30 q 20 71 14 58 q 34 92 26 83 q 53 105 43 101 q 156 175 112 130 q 230 279 201 220 q 274 405 260 337 q 289 543 289 473 q 274 681 289 613 q 230 807 260 748 q 156 910 201 865 q 53 981 112 956 q 34 994 43 985 q 20 1015 26 1003 q 10 1042 14 1027 q 7 1071 7 1057 q 12 1105 7 1088 q 30 1136 18 1122 q 62 1157 42 1149 q 110 1165 81 1165 q 122 1165 115 1165 q 134 1164 128 1165 q 309 1119 231 1152 q 446 1039 386 1086 q 548 932 505 991 q 618 807 591 873 q 658 674 645 742 q 671 541 671 606 z "},"*":{"ha":1394,"x_min":30,"x_max":1364,"o":"m 700 410 q 659 307 681 359 q 617 208 641 262 q 570 106 594 155 q 541 53 556 77 q 506 12 525 29 q 465 -16 487 -6 q 416 -26 443 -26 q 366 -17 392 -26 q 313 9 339 -7 q 264 46 288 25 q 224 90 241 67 q 196 135 206 112 q 186 178 186 158 q 211 256 186 218 q 273 326 235 294 q 326 371 298 347 q 380 419 353 395 q 431 465 406 443 q 473 503 455 486 q 503 530 492 520 q 513 541 513 540 q 411 551 463 545 q 313 562 366 555 q 210 576 260 568 q 139 592 172 581 q 82 620 106 602 q 44 665 58 638 q 30 728 30 691 q 35 775 30 749 q 50 831 39 800 q 114 938 75 905 q 198 971 153 971 q 244 963 218 971 q 301 943 271 956 q 363 915 331 930 q 425 882 395 899 q 573 794 496 844 q 554 903 564 848 q 545 952 550 926 q 535 1004 541 978 q 525 1056 530 1030 q 515 1105 519 1082 q 508 1144 511 1124 q 505 1181 505 1163 q 515 1242 505 1213 q 547 1291 524 1270 q 606 1324 569 1312 q 696 1336 642 1336 q 787 1324 751 1336 q 846 1291 824 1312 q 879 1242 869 1270 q 888 1181 888 1213 q 886 1144 888 1163 q 879 1105 883 1124 q 868 1056 873 1082 q 858 1004 863 1030 q 848 952 853 978 q 840 903 844 926 q 821 794 830 848 q 968 882 897 844 q 1029 915 998 899 q 1092 943 1061 930 q 1148 963 1122 956 q 1196 971 1175 971 q 1279 938 1240 971 q 1343 831 1317 905 q 1359 775 1354 800 q 1364 728 1364 749 q 1350 665 1364 691 q 1311 620 1335 638 q 1254 592 1286 602 q 1184 576 1221 581 q 1080 562 1134 568 q 982 551 1027 555 q 880 541 930 545 q 891 530 880 540 q 920 503 902 520 q 963 465 939 486 q 1013 419 987 443 q 1067 371 1040 395 q 1120 326 1095 347 q 1183 256 1158 294 q 1208 178 1208 218 q 1198 135 1208 158 q 1170 90 1187 112 q 1129 46 1152 67 q 1080 9 1106 25 q 1027 -17 1055 -7 q 976 -26 1000 -26 q 916 -7 944 -26 q 863 42 888 12 q 818 112 839 73 q 780 193 798 152 q 749 273 763 233 q 726 342 736 312 q 709 392 716 373 q 700 410 703 410 z "},"+":{"ha":902,"x_min":28,"x_max":874,"o":"m 450 71 q 397 81 418 71 q 363 107 376 92 q 347 142 351 123 q 342 176 342 160 l 342 414 l 113 414 q 83 416 98 414 q 56 426 68 418 q 36 450 43 434 q 28 493 28 465 q 36 537 28 521 q 56 562 43 553 q 83 572 68 570 q 113 574 98 574 l 342 574 l 342 811 q 347 848 342 829 q 363 882 351 867 q 397 907 376 897 q 450 917 418 917 q 504 907 483 917 q 536 882 524 897 q 553 848 548 867 q 557 811 557 829 l 557 574 l 789 574 q 820 572 805 574 q 847 562 836 570 q 867 537 859 553 q 874 493 874 521 q 867 450 874 465 q 847 426 859 434 q 820 416 836 418 q 789 414 805 414 l 557 414 l 557 176 q 553 142 557 160 q 536 107 548 123 q 504 81 524 92 q 450 71 483 71 z "},",":{"ha":498,"x_min":28,"x_max":465,"o":"m 210 -7 q 129 6 163 -7 q 73 39 95 18 q 39 85 50 59 q 28 140 28 112 q 42 205 28 173 q 85 264 57 238 q 154 306 113 290 q 249 322 195 322 q 346 304 305 322 q 413 254 387 286 q 452 182 439 223 q 465 96 465 141 q 444 -26 465 35 q 382 -138 422 -88 q 284 -220 342 -189 q 153 -252 226 -252 q 122 -240 135 -252 q 110 -214 110 -229 q 117 -185 110 -196 q 136 -164 125 -174 q 160 -144 146 -155 q 184 -116 173 -133 q 202 -73 195 -99 q 210 -7 210 -47 z "},"-":{"ha":859,"x_min":35,"x_max":824,"o":"m 35 418 q 47 476 35 454 q 75 511 58 498 q 112 529 92 524 q 150 534 132 534 l 710 534 q 749 529 729 534 q 786 511 769 524 q 813 476 802 498 q 824 418 824 454 q 813 361 824 383 q 786 326 802 338 q 749 308 769 313 q 710 302 729 302 l 150 302 q 112 308 132 302 q 75 326 92 313 q 47 361 58 338 q 35 418 35 383 z "},".":{"ha":499,"x_min":28,"x_max":470,"o":"m 28 154 q 40 213 28 188 q 71 257 52 239 q 114 289 90 276 q 162 309 138 301 q 210 319 187 316 q 250 322 233 322 q 291 319 267 322 q 338 309 314 316 q 387 289 363 301 q 429 257 410 276 q 459 213 448 239 q 470 154 470 188 q 459 95 470 121 q 429 51 448 69 q 387 20 410 33 q 338 0 363 7 q 291 -11 314 -7 q 250 -14 267 -14 q 210 -11 233 -14 q 162 0 187 -7 q 114 20 138 7 q 71 51 90 33 q 40 95 52 69 q 28 154 28 120 z "},"/":{"ha":701,"x_min":26,"x_max":676,"o":"m 139 -78 q 85 -56 106 -70 q 50 -26 63 -43 q 32 9 37 -9 q 26 47 26 28 q 35 97 26 75 q 49 146 38 109 q 77 239 60 183 q 115 365 94 294 q 159 513 136 435 q 206 673 182 591 q 254 832 231 755 q 298 979 277 909 q 335 1104 319 1049 q 362 1195 351 1159 q 375 1240 372 1231 q 392 1280 381 1260 q 419 1317 402 1301 q 460 1344 437 1333 q 517 1354 484 1354 q 594 1342 563 1354 q 643 1310 625 1329 q 669 1269 661 1291 q 676 1226 676 1246 q 673 1199 676 1213 q 667 1174 671 1186 q 654 1128 665 1164 q 627 1038 643 1093 q 590 913 610 983 q 546 765 569 843 q 498 606 522 688 q 451 447 474 525 q 406 298 427 369 q 369 172 385 228 q 341 79 352 117 q 327 31 330 42 q 311 -8 321 12 q 282 -45 300 -28 q 240 -73 264 -62 q 183 -83 216 -83 q 162 -82 173 -83 q 139 -78 151 -81 z "},":":{"ha":559,"x_min":58,"x_max":500,"o":"m 58 154 q 70 213 58 188 q 101 257 82 239 q 143 289 119 276 q 192 309 168 301 q 240 319 217 316 q 279 322 262 322 q 320 319 297 322 q 368 309 344 316 q 416 289 393 301 q 459 257 440 276 q 489 213 477 239 q 500 154 500 188 q 489 95 500 121 q 459 51 477 69 q 416 20 440 33 q 368 0 393 7 q 320 -11 344 -7 q 279 -14 297 -14 q 240 -11 262 -14 q 192 0 217 -7 q 143 20 168 7 q 101 51 119 33 q 70 95 82 69 q 58 154 58 120 m 58 711 q 70 771 58 745 q 101 814 82 796 q 143 845 119 833 q 192 865 168 858 q 240 876 217 873 q 279 879 262 879 q 320 876 297 879 q 368 865 344 873 q 416 845 393 858 q 459 814 440 833 q 489 770 477 796 q 500 711 500 745 q 489 652 500 677 q 459 608 477 627 q 416 577 440 589 q 368 557 393 564 q 320 546 344 549 q 279 543 297 543 q 240 546 262 543 q 192 557 217 549 q 143 577 168 564 q 101 608 119 589 q 70 652 82 627 q 58 711 58 677 z "},";":{"ha":542,"x_min":45,"x_max":487,"o":"m 45 711 q 57 771 45 745 q 88 814 69 796 q 131 845 106 833 q 179 865 155 858 q 227 876 204 873 q 267 879 250 879 q 308 876 284 879 q 355 865 331 873 q 404 845 380 858 q 446 814 427 833 q 476 770 465 796 q 487 711 487 745 q 476 652 487 677 q 446 608 465 627 q 404 577 427 589 q 355 557 380 564 q 308 546 331 549 q 267 543 284 543 q 227 546 250 543 q 179 557 204 549 q 131 577 155 564 q 88 608 106 589 q 57 652 69 627 q 45 711 45 677 m 227 -7 q 147 6 181 -7 q 90 39 113 18 q 57 85 68 59 q 45 140 45 112 q 60 205 45 173 q 102 264 75 238 q 172 306 130 290 q 267 322 213 322 q 363 304 323 322 q 431 254 404 286 q 470 182 457 223 q 483 96 483 141 q 461 -26 483 35 q 400 -138 440 -88 q 302 -220 360 -189 q 170 -252 243 -252 q 140 -240 153 -252 q 127 -214 127 -229 q 135 -185 127 -196 q 153 -164 142 -174 q 177 -144 164 -155 q 201 -116 191 -133 q 220 -73 212 -99 q 227 -7 227 -47 z "},"<":{"ha":695,"x_min":29,"x_max":643,"o":"m 29 433 q 39 490 29 466 q 67 533 50 513 q 106 570 84 552 q 153 607 129 587 l 366 780 q 414 818 391 800 q 458 848 436 836 q 502 869 480 861 q 549 876 524 876 q 590 868 572 876 q 619 846 608 860 q 637 815 631 832 q 643 779 643 798 q 593 674 643 731 q 445 539 543 617 l 312 433 l 445 328 q 593 192 543 250 q 643 87 643 135 q 637 52 643 69 q 619 21 631 35 q 590 -1 608 7 q 549 -9 572 -9 q 502 -2 524 -9 q 458 18 480 5 q 414 49 436 31 q 366 87 391 66 l 153 260 q 106 297 129 279 q 67 334 84 315 q 39 377 50 353 q 29 433 29 401 z "},"=":{"ha":800,"x_min":55,"x_max":745,"o":"m 55 201 q 62 238 55 224 q 82 258 69 252 q 114 266 95 264 q 155 268 132 268 l 639 268 q 683 267 663 268 q 716 260 703 266 q 738 240 730 254 q 745 201 745 227 q 738 163 745 176 q 716 143 730 149 q 683 136 703 137 q 639 135 663 135 l 155 135 q 114 136 132 135 q 82 143 95 137 q 62 163 69 149 q 55 201 55 176 m 55 430 q 62 467 55 453 q 82 487 69 480 q 114 495 95 493 q 155 496 132 496 l 639 496 q 683 495 663 496 q 716 488 703 494 q 738 469 730 482 q 745 430 745 455 q 738 391 745 405 q 716 372 730 378 q 683 365 703 366 q 639 363 663 363 l 155 363 q 114 365 132 363 q 82 372 95 366 q 62 391 69 378 q 55 430 55 405 z "},">":{"ha":695,"x_min":52,"x_max":666,"o":"m 666 433 q 656 377 666 401 q 628 334 646 353 q 589 297 611 315 q 542 260 566 279 l 329 87 q 281 49 304 66 q 237 18 259 31 q 193 -2 215 5 q 146 -9 171 -9 q 105 -1 123 -9 q 76 21 87 7 q 58 52 64 35 q 52 87 52 69 q 102 192 52 135 q 250 328 152 250 l 383 433 l 250 539 q 102 674 152 617 q 52 779 52 731 q 58 815 52 798 q 76 846 64 832 q 105 868 87 860 q 146 876 123 876 q 193 869 171 876 q 237 848 215 861 q 281 818 259 836 q 329 780 304 800 l 542 607 q 589 570 566 587 q 628 533 611 552 q 656 490 646 513 q 666 433 666 466 z "},"?":{"ha":868,"x_min":24,"x_max":833,"o":"m 377 290 q 330 301 349 290 q 299 328 311 312 q 282 362 288 344 q 277 395 277 380 q 289 518 277 469 q 319 599 301 566 q 357 653 336 631 q 395 695 378 674 q 425 740 413 715 q 437 803 437 764 q 430 850 437 830 q 406 884 422 870 q 361 904 389 897 q 290 911 332 911 q 182 897 230 911 q 96 863 134 884 q 71 857 82 857 q 53 864 61 857 q 38 880 44 870 q 28 901 32 890 q 24 922 24 912 q 27 935 24 930 q 34 945 30 939 q 118 1017 70 985 q 222 1071 166 1049 q 338 1104 277 1093 q 460 1116 399 1116 q 602 1093 534 1116 q 721 1030 669 1070 q 802 934 772 989 q 833 814 833 879 q 818 733 833 769 q 779 667 803 696 q 723 613 754 637 q 659 567 692 589 q 595 526 627 546 q 540 486 564 507 q 500 444 515 466 q 486 395 486 421 q 475 341 486 361 q 448 309 464 320 q 412 294 431 298 q 377 290 393 290 m 220 111 q 229 156 220 137 q 252 190 238 176 q 285 214 267 204 q 322 229 303 223 q 357 236 340 234 q 387 239 374 239 q 437 233 408 239 q 492 214 466 228 q 536 175 518 199 q 555 111 555 150 q 546 66 555 85 q 524 32 538 46 q 492 8 510 18 q 455 -6 474 -1 q 419 -15 437 -12 q 387 -17 401 -17 q 357 -15 374 -17 q 322 -6 340 -12 q 285 8 303 -1 q 253 32 267 18 q 229 66 238 46 q 220 111 220 85 z "},"@":{"ha":2070,"x_min":35,"x_max":2041,"o":"m 1044 297 q 1090 306 1067 297 q 1131 325 1114 315 q 1130 337 1130 330 q 1129 359 1130 344 q 1129 402 1129 375 q 1129 477 1129 430 q 1129 593 1129 524 q 1129 761 1129 662 q 1086 783 1110 772 q 1036 794 1061 794 q 992 782 1009 794 q 964 740 975 769 q 950 661 954 710 q 947 539 947 612 q 949 452 947 495 q 962 374 952 408 q 992 318 972 340 q 1044 297 1011 297 m 1358 163 q 1272 168 1308 163 q 1211 183 1236 174 q 1170 207 1185 193 q 1147 239 1155 221 q 1110 209 1133 224 q 1057 179 1088 193 q 984 157 1025 166 q 892 149 943 149 q 786 165 831 149 q 706 210 740 182 q 650 277 673 239 q 614 359 627 315 q 594 450 600 403 q 589 542 589 496 q 596 636 589 588 q 618 728 603 684 q 658 812 633 773 q 719 881 683 852 q 801 928 754 911 q 908 945 848 945 q 992 937 955 945 q 1058 917 1029 929 q 1108 889 1087 905 q 1143 860 1128 874 q 1162 895 1150 879 q 1194 922 1175 911 q 1241 940 1213 933 q 1307 946 1269 946 q 1400 941 1364 946 q 1456 923 1436 936 q 1482 889 1476 910 q 1489 836 1489 868 q 1489 830 1489 834 q 1489 812 1489 826 q 1489 772 1489 799 q 1489 697 1489 745 q 1489 578 1489 650 q 1489 401 1489 506 q 1497 363 1489 376 q 1516 351 1505 351 q 1586 377 1556 351 q 1634 445 1615 402 q 1662 546 1653 488 q 1671 667 1671 603 q 1648 793 1671 735 q 1586 897 1626 850 q 1491 980 1546 944 q 1371 1039 1436 1015 q 1234 1076 1306 1063 q 1088 1088 1162 1088 q 929 1073 1008 1088 q 777 1029 850 1059 q 642 956 705 1000 q 534 851 580 911 q 462 714 488 791 q 436 546 436 638 q 484 309 436 411 q 615 139 531 207 q 814 36 699 71 q 1065 1 929 1 q 1262 18 1160 1 q 1471 69 1364 35 l 1643 -197 q 1368 -294 1516 -261 q 1064 -328 1220 -328 q 751 -294 894 -328 q 495 -200 609 -260 q 294 -58 380 -140 q 150 121 208 24 q 63 323 92 217 q 35 538 35 429 q 64 755 35 648 q 154 961 94 863 q 303 1142 214 1059 q 514 1286 393 1225 q 786 1382 635 1348 q 1120 1417 938 1417 q 1404 1389 1276 1417 q 1635 1312 1533 1361 q 1814 1197 1737 1263 q 1941 1054 1890 1131 q 2016 892 1991 977 q 2041 724 2041 808 q 2023 576 2041 648 q 1969 443 2005 505 q 1877 329 1933 380 q 1745 240 1821 277 q 1573 183 1670 203 q 1358 163 1476 163 z "},"A":{"ha":1215,"x_min":-6,"x_max":1215,"o":"m 372 435 l 584 435 l 479 829 l 372 435 m 197 0 q 109 13 146 0 q 45 48 71 26 q 7 99 20 70 q -6 160 -6 127 q 1 183 -6 176 q 21 195 9 191 q 48 202 33 199 q 79 214 64 205 q 109 240 95 223 q 134 288 123 256 l 300 796 q 308 821 305 810 q 310 840 310 832 q 298 869 310 861 q 273 880 287 876 q 248 890 259 884 q 236 913 236 896 q 237 921 236 918 q 274 999 243 968 q 355 1047 304 1029 q 474 1073 406 1065 q 625 1080 543 1080 q 759 1075 695 1080 q 875 1053 823 1070 q 961 1005 926 1036 q 1006 921 996 974 q 1008 911 1008 914 q 1001 894 1008 900 q 985 885 995 888 q 965 879 976 882 q 945 872 954 877 q 929 858 935 867 q 922 833 922 849 q 928 796 922 819 l 1078 288 q 1101 240 1087 257 q 1129 214 1114 223 q 1160 202 1145 205 q 1187 195 1175 199 q 1207 183 1200 191 q 1215 160 1215 176 q 1127 38 1215 75 q 874 0 1040 0 q 732 9 794 0 q 627 38 670 18 q 563 87 585 57 q 541 160 541 118 q 547 181 541 174 q 563 192 553 189 q 584 199 572 196 q 605 207 595 201 q 621 221 614 212 q 627 250 627 231 q 623 285 627 265 l 612 332 l 336 332 l 320 285 q 311 243 311 259 q 318 219 311 227 q 334 206 324 210 q 355 199 343 201 q 376 192 366 196 q 392 181 385 189 q 398 160 398 174 q 385 99 398 127 q 347 48 372 70 q 284 13 321 26 q 197 0 246 0 z "},"B":{"ha":1290,"x_min":37,"x_max":1259,"o":"m 706 608 q 754 620 736 608 q 783 652 773 631 q 797 703 793 673 q 800 771 800 733 q 795 845 800 812 q 777 900 790 878 q 740 935 763 923 q 681 947 717 947 q 636 937 652 947 q 613 909 621 926 q 604 869 606 892 q 603 821 603 846 l 603 615 q 618 612 606 613 q 649 609 629 610 q 706 608 669 608 m 706 496 q 649 495 669 496 q 618 492 629 494 q 603 489 606 490 l 603 283 q 604 235 603 258 q 613 195 606 212 q 636 167 621 178 q 681 157 652 157 q 740 169 717 157 q 777 204 763 181 q 795 259 790 227 q 800 334 800 292 q 797 402 800 372 q 783 453 793 432 q 754 485 773 473 q 706 496 736 496 m 370 0 q 228 9 290 0 q 123 38 165 18 q 59 87 81 57 q 37 160 37 118 q 45 183 37 176 q 65 194 53 191 q 91 201 77 198 q 116 213 104 205 q 136 238 128 222 q 144 285 144 254 l 144 796 q 136 843 144 826 q 116 868 128 859 q 91 880 104 876 q 65 887 77 883 q 45 898 53 890 q 37 921 37 905 q 59 993 37 963 q 123 1043 81 1023 q 228 1071 165 1062 q 370 1080 290 1080 l 731 1080 q 925 1068 844 1080 q 1061 1036 1006 1057 q 1149 988 1116 1016 q 1199 928 1182 960 q 1222 861 1217 896 q 1227 791 1227 826 q 1217 721 1227 751 q 1189 667 1206 690 q 1148 628 1171 644 q 1098 602 1124 612 q 1044 586 1072 591 q 991 579 1017 581 q 1087 562 1039 576 q 1173 516 1135 547 q 1235 435 1211 486 q 1259 309 1259 385 q 1247 227 1259 267 q 1209 154 1236 188 q 1138 91 1182 119 q 1030 43 1095 63 q 879 11 966 22 q 678 0 791 0 l 370 0 z "},"C":{"ha":1061,"x_min":37,"x_max":1045,"o":"m 583 -17 q 419 3 494 -17 q 284 59 345 23 q 177 144 223 95 q 100 253 131 194 q 53 378 68 312 q 37 514 37 444 q 50 668 37 594 q 94 808 64 743 q 171 926 123 873 q 286 1018 218 980 q 443 1078 354 1057 q 646 1099 532 1099 q 789 1078 722 1099 q 908 1020 857 1058 q 990 929 960 983 q 1020 808 1020 875 q 1011 760 1020 781 q 988 723 1003 738 q 952 700 972 708 q 907 692 931 692 q 865 699 886 692 q 825 721 844 705 q 791 763 806 737 q 767 825 776 788 q 726 906 755 878 q 663 933 696 933 q 613 918 638 933 q 569 870 589 902 q 538 788 550 838 q 526 671 526 739 q 536 515 526 581 q 564 402 546 449 q 606 326 582 355 q 658 279 630 296 q 715 255 686 262 q 775 249 745 249 q 835 256 806 249 q 888 274 864 263 q 929 296 912 284 q 955 318 947 308 q 977 338 965 332 q 999 345 989 345 q 1031 325 1018 345 q 1045 271 1045 305 q 1011 165 1045 216 q 917 73 978 113 q 771 8 856 33 q 583 -17 686 -17 z "},"D":{"ha":1331,"x_min":37,"x_max":1289,"o":"m 839 579 q 831 719 839 652 q 808 836 824 785 q 765 917 791 887 q 701 947 739 947 q 655 937 672 947 q 629 909 637 926 q 617 869 620 892 q 614 821 614 846 l 614 283 q 617 235 614 258 q 629 195 620 212 q 655 167 637 178 q 701 157 672 157 q 765 187 739 157 q 808 273 791 218 q 831 406 824 328 q 839 579 839 484 m 701 1080 q 897 1061 810 1080 q 1049 1008 983 1042 q 1160 927 1114 975 q 1235 824 1206 880 q 1276 703 1263 767 q 1289 572 1289 640 q 1279 424 1289 496 q 1242 289 1269 352 q 1170 172 1216 225 q 1052 81 1124 119 q 880 21 981 43 q 644 0 779 0 l 370 0 q 228 9 290 0 q 123 38 165 18 q 59 87 81 57 q 37 160 37 118 q 45 183 37 176 q 65 194 53 191 q 91 201 77 198 q 116 213 104 205 q 136 238 128 222 q 144 285 144 254 l 144 798 q 136 844 144 827 q 116 869 128 861 q 91 881 104 878 q 65 888 77 884 q 45 899 53 892 q 37 922 37 906 q 59 995 37 964 q 123 1044 81 1025 q 228 1072 165 1063 q 370 1080 290 1080 l 701 1080 z "},"E":{"ha":1197,"x_min":37,"x_max":1166,"o":"m 945 572 q 937 503 945 536 q 911 443 928 469 q 868 400 895 416 q 804 385 842 385 q 768 394 783 385 q 741 419 753 403 q 719 459 730 436 q 694 510 708 482 l 640 517 l 640 139 l 872 150 l 900 268 q 928 333 911 307 q 963 377 944 360 q 1004 401 983 393 q 1048 408 1026 408 q 1095 400 1073 408 q 1132 375 1116 391 q 1157 336 1148 359 q 1166 285 1166 313 q 1160 225 1166 257 q 1143 161 1154 193 q 1115 100 1132 130 q 1075 49 1098 71 q 1023 13 1052 26 q 960 0 994 0 l 370 0 q 228 9 290 0 q 123 38 165 18 q 59 87 81 57 q 37 160 37 118 q 45 183 37 176 q 65 194 53 191 q 91 201 77 198 q 116 213 104 205 q 136 238 128 222 q 144 285 144 254 l 144 796 q 136 843 144 826 q 116 868 128 859 q 91 880 104 876 q 65 887 77 883 q 45 898 53 890 q 37 921 37 905 q 59 993 37 963 q 123 1043 81 1023 q 228 1071 165 1062 q 370 1080 290 1080 l 951 1080 q 1038 1053 1001 1080 q 1098 985 1074 1026 q 1134 897 1122 944 q 1146 808 1146 849 q 1138 760 1146 781 q 1114 723 1129 738 q 1078 700 1099 708 q 1034 692 1057 692 q 992 699 1013 692 q 954 722 972 706 q 920 763 935 738 q 893 825 904 789 l 867 939 l 640 939 l 640 627 l 694 633 q 719 684 708 661 q 741 723 730 707 q 768 749 753 740 q 804 758 783 758 q 868 742 842 758 q 911 701 895 726 q 937 641 928 675 q 945 572 945 608 z "},"F":{"ha":1126,"x_min":28,"x_max":1113,"o":"m 656 627 q 680 677 669 654 q 703 716 691 700 q 729 742 714 733 q 766 751 744 751 q 829 735 802 751 q 873 694 856 720 q 898 634 890 668 q 906 566 906 601 q 898 496 906 530 q 873 436 890 462 q 829 394 856 410 q 766 378 802 378 q 729 387 744 378 q 703 413 714 396 q 680 452 691 429 q 656 503 669 475 l 585 510 l 585 285 q 593 238 585 255 q 614 213 602 222 q 640 201 626 205 q 667 194 654 198 q 687 183 679 191 q 695 160 695 176 q 673 87 695 118 q 608 38 651 57 q 504 9 566 18 q 361 0 441 0 q 219 9 281 0 q 115 38 157 18 q 51 87 73 57 q 28 160 28 118 q 37 183 28 176 q 57 194 45 191 q 82 201 68 198 q 108 213 96 205 q 128 238 120 222 q 136 285 136 254 l 136 796 q 128 843 136 826 q 108 868 120 859 q 82 880 96 876 q 57 887 68 883 q 37 898 45 890 q 28 921 28 905 q 51 993 28 963 q 115 1043 73 1023 q 219 1071 157 1062 q 361 1080 281 1080 l 918 1080 q 1004 1053 968 1080 q 1065 985 1041 1026 q 1101 897 1089 944 q 1113 808 1113 849 q 1104 760 1113 781 q 1081 723 1096 738 q 1045 700 1065 708 q 1000 692 1024 692 q 959 699 979 692 q 920 722 939 706 q 887 763 902 738 q 861 825 871 789 l 861 939 l 585 939 l 585 619 l 656 627 z "},"G":{"ha":1159,"x_min":30,"x_max":1152,"o":"m 1088 285 q 1072 194 1088 235 q 1024 119 1055 153 q 952 60 994 85 q 860 18 910 35 q 754 -8 810 1 q 640 -17 698 -17 q 494 -3 568 -17 q 353 38 420 10 q 227 110 286 66 q 124 212 168 153 q 55 346 80 271 q 30 514 30 421 q 55 702 30 618 q 123 850 80 785 q 226 962 167 915 q 352 1039 285 1009 q 492 1084 419 1069 q 635 1099 564 1099 q 799 1079 721 1099 q 938 1021 878 1059 q 1033 929 998 983 q 1069 806 1069 874 q 1060 757 1069 779 q 1037 720 1052 735 q 1001 697 1021 705 q 956 689 980 689 q 914 696 935 689 q 874 719 893 703 q 840 760 855 734 q 817 822 825 785 q 795 869 810 848 q 761 903 780 889 q 721 924 741 917 q 684 930 701 930 q 630 915 659 930 q 576 867 601 899 q 535 785 551 835 q 519 668 519 736 q 528 510 519 578 q 552 393 537 442 q 586 310 567 343 q 626 258 606 277 q 667 231 647 239 q 705 222 688 222 q 739 232 726 222 q 752 254 752 241 q 743 315 752 294 q 720 349 734 337 q 690 366 707 361 q 661 377 674 371 q 638 395 647 384 q 629 431 629 407 q 651 515 629 484 q 709 564 673 547 q 791 586 745 581 q 886 591 837 591 q 1017 584 965 591 q 1098 562 1068 576 q 1140 529 1128 548 q 1152 488 1152 510 q 1147 435 1152 454 q 1136 404 1143 416 q 1120 383 1128 391 q 1105 363 1112 374 q 1093 334 1098 352 q 1088 285 1088 316 z "},"H":{"ha":1510,"x_min":37,"x_max":1476,"o":"m 907 494 l 601 494 l 601 288 q 609 240 601 257 q 630 214 618 223 q 656 202 642 205 q 683 195 671 199 q 703 183 694 191 q 711 160 711 176 q 623 38 711 75 q 370 0 536 0 q 228 9 290 0 q 124 38 166 18 q 59 87 81 57 q 37 160 37 118 q 45 183 37 176 q 65 194 54 191 q 91 201 77 198 q 117 213 105 205 q 137 238 129 222 q 145 285 145 254 l 145 796 q 137 843 145 826 q 117 868 129 859 q 91 880 105 876 q 65 887 77 883 q 45 898 54 890 q 37 921 37 905 q 59 993 37 963 q 124 1043 81 1023 q 228 1071 166 1062 q 370 1080 290 1080 q 517 1071 453 1080 q 624 1043 581 1062 q 689 993 667 1023 q 711 921 711 963 q 703 898 711 905 q 683 887 694 890 q 656 880 671 883 q 630 868 642 876 q 610 843 618 859 q 602 796 602 826 l 602 625 l 907 625 l 907 796 q 899 843 907 826 q 879 868 890 859 q 852 880 867 876 q 826 887 838 883 q 806 898 814 890 q 798 921 798 905 q 885 1043 798 1005 q 1139 1080 972 1080 q 1389 1043 1302 1080 q 1476 921 1476 1005 q 1467 898 1476 905 q 1446 887 1459 890 q 1419 880 1434 883 q 1391 868 1404 876 q 1370 843 1379 859 q 1362 796 1362 826 l 1362 288 q 1370 240 1362 257 q 1391 214 1379 223 q 1419 202 1404 205 q 1446 195 1434 199 q 1467 183 1459 191 q 1476 160 1476 176 q 1454 87 1476 118 q 1389 38 1432 57 q 1283 9 1346 18 q 1139 0 1220 0 q 992 9 1056 0 q 885 38 928 18 q 820 87 842 57 q 798 160 798 118 q 806 183 798 176 q 826 195 814 191 q 852 202 838 199 q 879 214 867 205 q 899 240 890 223 q 907 288 907 256 l 907 494 z "},"I":{"ha":744,"x_min":37,"x_max":710,"o":"m 600 288 q 608 240 600 257 q 629 214 616 223 q 655 202 641 205 q 682 195 669 199 q 702 183 694 191 q 710 160 710 176 q 623 38 710 75 q 370 0 535 0 q 228 9 290 0 q 123 38 165 18 q 59 87 81 57 q 37 160 37 118 q 45 183 37 176 q 65 194 53 191 q 91 201 77 198 q 116 213 104 205 q 136 238 128 222 q 144 285 144 254 l 144 796 q 136 843 144 826 q 116 868 128 859 q 91 880 104 876 q 65 887 77 883 q 45 898 53 890 q 37 921 37 905 q 59 993 37 963 q 123 1043 81 1023 q 228 1071 165 1062 q 370 1080 290 1080 q 516 1071 452 1080 q 623 1043 580 1062 q 688 993 666 1023 q 710 921 710 963 q 702 898 710 905 q 682 887 694 890 q 656 880 670 883 q 630 868 642 876 q 610 843 618 859 q 602 796 602 826 l 600 288 z "},"J":{"ha":1101,"x_min":9,"x_max":1080,"o":"m 220 582 q 292 573 255 582 q 361 544 330 564 q 412 495 392 525 q 433 422 433 465 q 425 374 433 397 q 407 330 418 351 q 382 292 395 309 q 358 259 369 274 q 339 231 347 243 q 332 210 332 219 q 348 186 332 195 q 391 178 365 178 q 438 187 416 178 q 477 217 460 196 q 505 271 494 237 q 515 353 515 304 l 515 798 q 507 844 515 827 q 487 869 498 861 q 460 880 475 877 q 434 887 446 883 q 414 898 422 890 q 406 921 406 905 q 493 1043 406 1005 q 747 1080 581 1080 q 889 1071 827 1080 q 993 1043 951 1062 q 1058 993 1036 1023 q 1080 921 1080 963 q 1072 898 1080 905 q 1051 887 1063 890 q 1025 880 1039 883 q 999 868 1011 876 q 979 843 987 859 q 970 796 970 826 l 970 353 q 952 238 970 290 q 901 145 933 186 q 823 74 868 104 q 726 23 779 43 q 616 -7 674 3 q 499 -17 558 -17 q 379 -6 439 -17 q 264 25 319 4 q 163 76 210 45 q 82 148 116 107 q 28 240 47 189 q 9 353 9 292 q 23 440 9 398 q 64 513 37 481 q 131 563 92 545 q 220 582 170 582 z "},"K":{"ha":1411,"x_min":37,"x_max":1421,"o":"m 911 796 q 936 821 930 808 q 941 842 941 833 q 930 862 941 853 q 905 881 919 871 q 880 903 891 891 q 869 930 869 914 q 890 1003 869 974 q 946 1049 911 1032 q 1026 1073 981 1066 q 1116 1080 1070 1080 q 1219 1072 1171 1080 q 1304 1047 1267 1064 q 1362 1003 1341 1030 q 1384 939 1384 976 q 1372 901 1384 915 q 1338 877 1359 886 q 1289 860 1316 867 q 1231 843 1261 852 q 1171 819 1201 833 q 1115 781 1141 804 l 972 648 l 1255 288 q 1297 245 1276 260 q 1336 222 1318 231 q 1370 208 1354 213 q 1397 196 1385 203 q 1415 177 1409 189 q 1421 143 1421 165 q 1338 34 1421 68 q 1098 0 1255 0 q 957 9 1019 0 q 851 39 895 19 q 784 90 807 59 q 761 164 761 121 q 773 190 761 181 q 799 205 785 199 q 825 218 813 212 q 837 239 837 225 q 831 258 837 248 q 813 285 825 269 l 696 437 q 680 451 690 446 q 660 459 671 456 q 638 462 650 462 q 614 463 626 463 l 601 463 l 601 288 q 609 240 601 257 q 629 214 617 223 q 656 202 642 205 q 682 195 670 199 q 703 183 694 191 q 711 160 711 176 q 623 38 711 75 q 370 0 536 0 q 228 9 290 0 q 124 38 166 18 q 59 87 81 57 q 37 160 37 118 q 45 183 37 176 q 65 194 54 191 q 91 201 77 198 q 117 213 105 205 q 137 238 129 222 q 145 285 145 254 l 145 796 q 137 843 145 826 q 117 868 129 859 q 91 880 105 876 q 65 887 77 883 q 45 898 54 890 q 37 921 37 905 q 59 993 37 963 q 124 1043 81 1023 q 228 1071 166 1062 q 370 1080 290 1080 q 517 1071 453 1080 q 624 1043 581 1062 q 689 993 667 1023 q 711 921 711 963 q 703 898 711 905 q 682 887 694 890 q 656 880 670 883 q 629 868 642 876 q 609 843 617 859 q 601 796 601 826 l 601 585 q 641 587 620 585 q 679 602 662 589 l 911 796 z "},"L":{"ha":1046,"x_min":37,"x_max":1040,"o":"m 601 244 q 609 194 601 213 q 628 164 616 175 q 654 150 640 154 q 681 146 669 146 q 684 147 682 146 q 693 148 686 147 q 712 149 699 148 q 747 153 724 151 l 774 271 q 802 336 786 309 q 838 379 819 363 q 879 404 857 396 q 922 411 900 411 q 969 402 947 411 q 1006 378 991 394 q 1031 339 1022 362 q 1040 288 1040 316 q 1034 227 1040 260 q 1017 163 1029 195 q 989 101 1006 131 q 949 50 972 72 q 898 14 926 27 q 834 0 869 0 l 370 0 q 228 9 290 0 q 124 38 166 18 q 59 87 81 57 q 37 160 37 118 q 45 183 37 176 q 65 194 54 191 q 91 201 77 198 q 117 213 105 205 q 137 238 129 222 q 145 285 145 254 l 145 796 q 137 843 145 826 q 117 868 129 859 q 91 880 105 876 q 65 887 77 883 q 45 898 54 890 q 37 921 37 905 q 59 993 37 963 q 124 1043 81 1023 q 228 1071 166 1062 q 370 1080 290 1080 q 517 1071 453 1080 q 624 1043 581 1062 q 689 993 667 1023 q 711 921 711 963 q 703 898 711 905 q 683 887 694 890 q 656 880 671 883 q 630 868 642 876 q 610 843 618 859 q 602 796 602 826 l 601 244 z "},"M":{"ha":1505,"x_min":42,"x_max":1468,"o":"m 347 568 l 347 288 q 355 240 347 257 q 376 214 363 223 q 402 202 388 205 q 429 195 416 199 q 449 183 441 191 q 457 160 457 176 q 438 87 457 118 q 391 38 420 57 q 325 9 361 18 q 254 0 289 0 q 175 9 214 0 q 107 38 137 18 q 60 87 78 57 q 42 160 42 118 q 50 183 42 176 q 70 194 58 191 q 96 201 82 198 q 122 213 110 205 q 142 238 134 222 q 150 285 150 254 l 150 796 q 142 843 150 826 q 122 868 134 859 q 96 880 110 876 q 70 887 82 883 q 50 898 58 890 q 42 921 42 905 q 62 993 42 963 q 116 1043 81 1023 q 196 1071 150 1062 q 294 1080 241 1080 q 379 1071 345 1080 q 440 1041 413 1061 q 491 987 467 1020 q 545 907 515 954 l 726 612 l 890 892 q 938 965 913 930 q 995 1025 964 999 q 1065 1065 1026 1050 q 1153 1080 1103 1080 q 1295 1071 1236 1080 q 1393 1043 1355 1062 q 1450 993 1432 1023 q 1468 921 1468 963 q 1460 898 1468 905 q 1440 887 1452 890 q 1413 880 1428 883 q 1387 868 1399 876 q 1367 843 1375 859 q 1358 796 1358 826 l 1358 288 q 1367 240 1358 257 q 1387 214 1375 223 q 1413 202 1399 205 q 1440 195 1428 199 q 1460 183 1452 191 q 1468 160 1468 176 q 1381 38 1468 75 q 1128 0 1293 0 q 986 9 1048 0 q 881 38 924 18 q 817 87 839 57 q 795 160 795 118 q 803 183 795 176 q 823 194 811 191 q 849 201 835 198 q 874 213 863 205 q 895 238 886 222 q 903 285 903 254 l 903 567 l 660 160 q 634 144 652 144 q 607 160 618 144 l 347 568 z "},"N":{"ha":1228,"x_min":43,"x_max":1194,"o":"m 361 526 q 354 530 357 530 q 348 523 348 530 q 349 519 348 521 l 349 288 q 357 240 349 257 q 377 214 365 223 q 404 202 389 205 q 430 195 418 199 q 450 183 442 191 q 458 160 458 176 q 440 87 458 118 q 392 38 421 57 q 327 9 363 18 q 256 0 290 0 q 177 9 215 0 q 109 38 138 18 q 61 87 79 57 q 43 160 43 118 q 52 183 43 176 q 72 194 60 191 q 97 201 83 198 q 123 213 111 205 q 143 238 135 222 q 151 285 151 254 l 151 796 q 143 843 151 826 q 123 868 135 859 q 97 880 111 876 q 72 887 83 883 q 52 898 60 890 q 43 921 43 905 q 60 993 43 963 q 107 1043 77 1023 q 176 1071 136 1062 q 262 1080 216 1080 q 323 1075 298 1080 q 371 1056 349 1069 q 419 1020 394 1042 q 479 965 444 998 l 868 603 q 872 600 869 602 q 878 599 874 599 q 885 603 882 599 q 889 618 889 606 l 889 793 q 881 841 889 824 q 861 867 873 858 q 834 879 848 876 q 808 886 820 882 q 787 898 795 890 q 779 921 779 905 q 798 993 779 963 q 846 1043 817 1023 q 911 1071 875 1062 q 982 1080 947 1080 q 1061 1071 1023 1080 q 1129 1043 1099 1062 q 1176 993 1158 1023 q 1194 921 1194 963 q 1186 898 1194 905 q 1167 887 1179 890 q 1141 880 1155 883 q 1115 868 1127 876 q 1096 843 1103 859 q 1088 796 1088 826 l 1088 146 q 1080 73 1088 101 q 1059 28 1073 44 q 1026 6 1045 12 q 983 0 1006 0 q 949 7 967 0 q 912 27 932 14 q 869 60 892 40 q 817 104 845 79 l 361 526 z "},"O":{"ha":1288,"x_min":40,"x_max":1247,"o":"m 615 -17 q 430 3 513 -17 q 283 59 347 23 q 174 144 220 95 q 98 253 127 194 q 54 378 68 312 q 40 514 40 444 q 49 668 40 594 q 83 808 58 743 q 152 926 108 873 q 266 1018 196 980 q 436 1078 336 1057 q 672 1099 536 1099 q 867 1079 782 1099 q 1017 1023 953 1059 q 1125 938 1081 987 q 1196 830 1168 888 q 1235 707 1223 772 q 1247 575 1247 642 q 1238 426 1247 499 q 1204 286 1229 352 q 1135 165 1179 220 q 1020 69 1090 109 q 850 6 950 28 q 615 -17 751 -17 m 654 161 q 704 178 684 161 q 734 227 723 195 q 750 305 745 259 q 754 410 754 351 l 754 440 q 753 547 754 492 q 749 655 753 602 q 738 756 746 709 q 716 840 730 804 q 681 897 703 876 q 629 918 660 918 q 577 904 597 918 q 547 861 557 889 q 533 791 536 833 q 529 696 529 750 q 530 587 529 646 q 534 469 530 528 q 545 354 537 410 q 566 256 552 298 q 601 187 580 213 q 654 161 623 161 z "},"P":{"ha":1285,"x_min":38,"x_max":1270,"o":"m 702 511 q 752 526 733 511 q 781 564 771 541 q 793 616 790 587 q 796 671 796 644 q 795 703 796 688 q 795 730 795 718 q 792 808 795 769 q 777 878 789 847 q 741 929 765 909 q 677 949 718 949 q 636 940 651 949 q 615 917 622 932 q 606 883 608 902 q 604 841 604 863 l 604 518 q 617 515 606 516 q 646 512 627 513 q 702 511 665 511 m 766 1080 q 988 1051 893 1080 q 1145 974 1082 1021 q 1239 864 1208 926 q 1270 739 1270 803 q 1237 610 1270 673 q 1142 497 1205 547 q 984 417 1078 448 q 766 387 890 387 q 732 388 755 387 q 683 388 709 388 q 635 389 658 389 q 602 390 612 389 l 602 288 q 610 240 602 257 q 630 214 618 223 q 656 202 642 205 q 683 195 671 199 q 703 183 695 191 q 711 160 711 176 q 624 38 711 75 q 371 0 536 0 q 229 9 291 0 q 124 38 167 18 q 60 87 82 57 q 38 160 38 118 q 46 183 38 176 q 66 194 54 191 q 92 201 78 198 q 118 213 106 205 q 138 238 130 222 q 146 285 146 254 l 146 796 q 138 843 146 826 q 118 868 130 859 q 92 880 106 876 q 66 887 78 883 q 46 898 54 890 q 38 921 38 905 q 59 992 38 962 q 122 1042 81 1023 q 224 1071 163 1062 q 362 1080 284 1080 l 371 1080 l 766 1080 z "},"Q":{"ha":1290,"x_min":41,"x_max":1248,"o":"m 1248 575 q 1237 412 1248 492 q 1195 261 1225 332 q 1108 134 1164 191 q 964 40 1053 77 l 1090 -45 q 1143 -65 1116 -62 q 1191 -69 1170 -69 q 1220 -67 1208 -69 q 1232 -65 1227 -66 q 1240 -88 1237 -77 q 1242 -111 1242 -100 q 1230 -154 1242 -133 q 1192 -198 1218 -176 q 1127 -244 1166 -220 q 1033 -293 1088 -267 q 984 -311 1007 -306 q 940 -317 961 -317 q 889 -308 913 -317 q 844 -286 865 -299 q 802 -256 822 -273 q 762 -224 782 -240 l 519 -11 q 366 23 434 -2 q 244 84 297 47 q 152 169 191 121 q 90 272 114 217 q 53 389 65 328 q 41 514 41 450 q 51 668 41 594 q 84 808 60 743 q 153 926 109 873 q 268 1018 197 980 q 437 1078 338 1057 q 673 1099 537 1099 q 869 1079 783 1099 q 1018 1023 954 1059 q 1126 938 1082 987 q 1197 830 1170 888 q 1236 707 1224 772 q 1248 575 1248 642 m 655 161 q 705 178 686 161 q 735 227 724 195 q 751 305 747 259 q 755 410 755 351 l 755 443 q 754 550 755 494 q 750 657 753 605 q 739 758 747 710 q 718 841 731 805 q 683 897 704 876 q 630 918 661 918 q 578 904 598 918 q 548 861 559 889 q 534 791 538 833 q 530 696 530 750 q 531 587 530 646 q 535 469 532 528 q 546 354 538 410 q 567 256 553 298 q 603 187 581 213 q 655 161 624 161 z "},"R":{"ha":1391,"x_min":37,"x_max":1410,"o":"m 1235 281 q 1274 236 1254 252 q 1314 212 1295 220 q 1351 200 1333 204 q 1381 193 1368 197 q 1402 183 1394 190 q 1410 163 1410 177 q 1392 83 1410 115 q 1332 33 1375 52 q 1218 7 1289 15 q 1040 0 1147 0 q 957 9 993 0 q 892 36 920 19 q 843 76 865 53 q 806 125 822 98 q 776 180 789 151 q 750 238 762 209 l 682 427 l 674 427 q 637 427 652 427 q 600 429 622 428 l 600 283 q 608 238 600 254 q 629 214 616 222 q 655 202 641 205 q 682 195 669 199 q 702 183 694 191 q 710 160 710 176 q 623 38 710 75 q 370 0 535 0 q 228 9 290 0 q 123 38 165 18 q 59 87 81 57 q 37 160 37 118 q 45 183 37 176 q 65 194 53 191 q 91 201 77 198 q 116 213 104 205 q 136 238 128 222 q 144 285 144 254 l 144 796 q 136 843 144 826 q 116 868 128 859 q 91 880 104 876 q 65 887 77 883 q 45 898 53 890 q 37 921 37 905 q 60 993 37 963 q 126 1043 83 1023 q 233 1071 170 1062 q 376 1080 296 1080 l 743 1080 q 935 1069 851 1080 q 1080 1037 1018 1057 q 1186 987 1143 1016 q 1255 924 1229 958 q 1294 851 1282 890 q 1305 772 1305 813 q 1297 686 1305 728 q 1266 607 1289 644 q 1203 538 1243 570 q 1101 484 1164 507 l 1235 281 m 693 532 q 783 571 754 532 q 812 681 812 610 l 812 701 q 810 790 812 746 q 797 870 808 835 q 760 927 785 905 q 688 949 734 949 q 642 939 659 949 q 616 914 625 930 q 604 877 607 898 q 602 833 602 857 l 602 539 q 612 535 602 537 q 638 533 620 534 q 693 532 656 532 z "},"S":{"ha":1065,"x_min":36,"x_max":1029,"o":"m 669 880 q 635 915 669 899 q 530 930 601 930 q 453 924 481 930 q 410 906 425 917 q 391 881 395 895 q 387 852 387 867 q 415 801 387 823 q 487 760 442 779 q 590 720 532 740 q 708 676 648 701 q 826 621 768 652 q 929 548 884 590 q 1001 450 974 506 q 1029 319 1029 393 q 992 160 1029 224 q 890 56 956 96 q 735 0 825 17 q 538 -17 645 -17 q 414 -7 476 -17 q 297 20 353 2 q 194 64 241 38 q 111 123 146 90 q 56 196 76 156 q 36 281 36 235 q 47 341 36 315 q 76 384 58 367 q 117 408 94 400 q 165 416 140 416 q 226 405 195 416 q 281 371 256 393 q 320 316 305 349 q 336 241 336 283 q 346 220 336 231 q 374 198 355 208 q 420 182 393 189 q 484 175 448 175 q 564 181 534 175 q 610 199 594 188 q 631 223 626 210 q 635 250 635 237 q 610 280 635 267 q 545 306 585 293 q 451 334 504 319 q 345 370 399 349 q 238 419 290 391 q 144 488 185 448 q 79 582 104 528 q 54 708 54 636 q 71 836 54 779 q 120 935 88 892 q 195 1009 151 979 q 293 1060 239 1040 q 409 1089 347 1080 q 538 1099 471 1099 q 743 1075 659 1099 q 880 1013 827 1050 q 957 928 933 975 q 981 838 981 882 q 964 768 981 798 q 920 720 947 739 q 859 692 893 701 q 789 684 824 684 q 723 691 755 684 q 666 713 690 699 q 626 750 641 728 q 610 799 610 771 q 620 829 610 819 q 640 846 629 840 q 660 860 651 853 q 669 880 669 867 z "},"T":{"ha":1180,"x_min":7,"x_max":1173,"o":"m 818 288 q 826 240 818 257 q 846 214 834 223 q 873 202 859 205 q 899 195 887 199 q 920 183 911 191 q 928 160 928 176 q 840 38 928 75 q 587 0 753 0 q 445 9 507 0 q 341 38 383 18 q 276 87 298 57 q 254 160 254 118 q 262 183 254 176 q 282 194 271 191 q 308 201 294 198 q 334 213 322 205 q 354 238 346 222 q 362 285 362 254 l 362 935 l 286 932 l 260 823 q 233 762 249 787 q 199 721 218 736 q 161 697 181 705 q 119 690 140 690 q 75 699 96 690 q 39 722 54 707 q 15 758 24 736 q 7 807 7 780 q 19 896 7 848 q 55 984 31 943 q 115 1053 79 1025 q 201 1080 152 1080 l 979 1080 q 1065 1053 1029 1080 q 1125 985 1101 1026 q 1161 897 1149 944 q 1173 808 1173 849 q 1165 760 1173 781 q 1141 723 1156 738 q 1106 700 1126 708 q 1061 692 1085 692 q 1019 699 1040 692 q 979 721 998 705 q 945 763 960 737 q 921 825 930 788 l 895 933 l 818 936 l 818 288 z "},"U":{"ha":1276,"x_min":22,"x_max":1254,"o":"m 1145 350 q 1128 231 1145 284 q 1078 137 1110 178 q 1002 67 1046 96 q 905 19 958 38 q 792 -8 852 1 q 669 -17 732 -17 q 525 -8 594 -17 q 396 20 456 1 q 287 68 336 39 q 203 138 238 97 q 149 233 168 180 q 130 353 130 286 l 130 796 q 122 843 130 826 q 102 868 114 859 q 76 880 90 876 q 51 887 62 883 q 31 898 39 890 q 22 921 22 905 q 44 993 22 963 q 109 1043 66 1023 q 213 1071 151 1062 q 355 1080 275 1080 q 502 1071 438 1080 q 609 1043 566 1062 q 674 993 652 1023 q 696 921 696 963 q 688 898 696 905 q 668 887 680 890 q 642 880 656 883 q 615 869 627 877 q 595 844 604 861 q 587 798 587 827 l 587 353 q 601 272 587 305 q 639 218 614 239 q 697 187 663 197 q 770 178 730 178 q 840 188 808 178 q 896 218 872 197 q 933 273 920 239 q 947 353 947 306 l 947 796 q 939 843 947 826 q 919 868 931 859 q 893 880 907 876 q 867 887 879 883 q 847 898 855 890 q 839 921 839 905 q 859 993 839 963 q 911 1043 880 1023 q 979 1071 942 1062 q 1051 1080 1017 1080 q 1117 1071 1082 1080 q 1183 1043 1153 1062 q 1234 993 1214 1023 q 1254 921 1254 963 q 1246 898 1254 905 q 1225 886 1238 890 q 1199 879 1213 882 q 1173 867 1185 876 q 1152 841 1160 858 q 1144 793 1144 824 l 1145 350 z "},"V":{"ha":1162,"x_min":-6,"x_max":1170,"o":"m 856 796 q 865 837 865 821 q 857 862 865 853 q 839 875 850 870 q 815 882 828 880 q 791 888 802 884 q 773 900 781 892 q 766 921 766 907 q 779 982 766 954 q 817 1033 791 1011 q 880 1067 842 1055 q 967 1080 918 1080 q 1055 1067 1017 1080 q 1119 1033 1093 1055 q 1157 982 1144 1011 q 1170 921 1170 954 q 1161 898 1170 905 q 1139 886 1153 890 q 1108 879 1125 882 q 1074 867 1090 876 q 1041 841 1057 858 q 1016 793 1026 824 l 812 295 q 747 139 774 201 q 694 38 720 76 q 643 -16 669 0 q 578 -32 616 -32 q 520 -12 546 -32 q 466 54 494 7 q 403 176 438 100 q 319 364 368 252 l 130 793 q 102 839 117 822 q 72 864 87 855 q 42 877 56 873 q 18 885 28 880 q 0 897 7 889 q -6 921 -6 905 q 81 1043 -6 1005 q 334 1080 168 1080 q 476 1071 414 1080 q 581 1043 538 1062 q 645 993 623 1023 q 667 921 667 963 q 661 900 667 907 q 644 888 654 892 q 621 882 633 884 q 599 874 609 879 q 582 862 589 869 q 575 839 575 854 q 577 820 575 831 q 585 796 580 810 l 696 525 q 711 497 703 509 q 728 486 718 486 q 744 496 735 486 q 762 532 752 506 l 856 796 z "},"W":{"ha":1856,"x_min":-10,"x_max":1860,"o":"m 846 810 q 819 846 833 833 q 790 866 804 859 q 763 877 776 873 q 741 885 751 881 q 726 898 732 890 q 720 921 720 905 q 807 1043 720 1005 q 1061 1080 895 1080 q 1203 1071 1141 1080 q 1307 1043 1265 1062 q 1372 993 1350 1023 q 1394 921 1394 963 q 1387 900 1394 907 q 1370 888 1380 892 q 1348 882 1360 884 q 1326 875 1336 880 q 1309 862 1316 870 q 1302 838 1302 854 q 1304 820 1302 830 q 1312 796 1306 810 l 1402 553 q 1416 525 1408 536 q 1434 513 1425 513 q 1450 523 1442 513 q 1468 559 1459 534 l 1546 796 q 1554 836 1554 821 q 1547 861 1554 852 q 1529 875 1540 870 q 1505 882 1518 880 q 1481 888 1493 884 q 1463 900 1470 892 q 1456 921 1456 907 q 1469 982 1456 954 q 1507 1033 1482 1011 q 1570 1067 1533 1055 q 1657 1080 1608 1080 q 1746 1067 1708 1080 q 1809 1033 1784 1055 q 1847 982 1834 1011 q 1860 921 1860 954 q 1852 897 1860 905 q 1831 886 1844 890 q 1801 879 1817 882 q 1767 866 1784 875 q 1734 840 1750 857 q 1706 793 1718 823 l 1525 311 q 1480 194 1500 245 q 1443 104 1461 142 q 1410 40 1426 66 q 1377 -2 1394 14 q 1339 -25 1360 -18 q 1294 -32 1319 -32 q 1234 -13 1261 -32 q 1176 52 1206 6 q 1113 173 1147 97 q 1034 364 1078 250 l 934 623 l 816 312 q 751 146 778 212 q 701 40 725 80 q 649 -16 676 1 q 584 -32 623 -32 q 526 -12 551 -32 q 474 54 501 8 q 411 176 446 100 q 324 364 376 252 l 125 793 q 97 838 112 821 q 66 863 81 854 q 38 876 52 871 q 13 884 24 880 q -4 897 3 889 q -10 921 -10 905 q 77 1043 -10 1005 q 330 1080 164 1080 q 472 1071 410 1080 q 577 1043 534 1062 q 641 993 619 1023 q 663 921 663 963 q 656 900 663 907 q 639 888 649 892 q 616 881 629 884 q 593 873 604 878 q 576 861 583 869 q 569 840 569 853 q 572 821 569 831 q 581 796 574 810 l 692 553 q 707 525 700 537 q 724 513 715 513 q 740 524 732 513 q 758 559 748 534 l 846 810 z "},"X":{"ha":1202,"x_min":2,"x_max":1219,"o":"m 419 485 l 168 796 q 126 836 146 822 q 88 859 106 850 q 54 872 69 867 q 26 884 38 877 q 8 902 15 890 q 2 936 2 914 q 26 1001 2 974 q 92 1046 50 1029 q 192 1072 134 1064 q 319 1080 250 1080 q 490 1071 421 1080 q 601 1042 559 1061 q 660 991 642 1022 q 677 917 677 960 q 666 890 677 899 q 639 875 654 882 q 613 862 625 869 q 601 842 601 855 q 606 823 601 833 q 625 796 611 812 l 674 736 l 736 796 q 759 823 752 812 q 766 842 766 833 q 757 860 766 853 q 737 874 748 867 q 717 890 726 881 q 708 916 708 899 q 729 990 708 959 q 785 1042 751 1022 q 864 1071 820 1061 q 955 1080 909 1080 q 1034 1072 996 1080 q 1099 1047 1072 1064 q 1144 1003 1127 1030 q 1160 939 1160 976 q 1150 902 1160 915 q 1122 882 1139 889 q 1080 869 1104 874 q 1031 856 1057 864 q 978 835 1005 848 q 926 796 951 821 l 762 632 l 1053 288 q 1095 247 1074 261 q 1135 223 1116 232 q 1169 209 1154 214 q 1195 197 1184 204 q 1213 177 1206 189 q 1219 143 1219 165 q 1136 34 1219 68 q 895 0 1053 0 q 750 9 817 0 q 634 39 683 19 q 557 90 585 59 q 530 164 530 121 q 542 190 530 181 q 568 205 553 199 q 594 218 583 212 q 606 239 606 225 q 601 258 606 248 q 583 285 596 269 l 507 378 l 412 285 q 391 261 397 271 q 385 243 385 250 q 397 222 385 230 q 424 208 409 215 q 450 191 438 201 q 462 164 462 182 q 439 90 462 121 q 378 39 416 59 q 292 9 340 19 q 194 0 243 0 q 129 8 161 0 q 69 33 96 16 q 26 77 43 50 q 9 142 9 104 q 17 177 9 165 q 40 198 26 190 q 75 211 55 205 q 118 225 95 217 q 167 248 142 234 q 218 288 192 262 l 419 485 z "},"Y":{"ha":1183,"x_min":5,"x_max":1181,"o":"m 585 0 q 441 9 504 0 q 336 38 379 18 q 272 87 294 57 q 250 160 250 118 q 258 183 250 176 q 278 194 266 191 q 304 201 290 198 q 331 213 319 205 q 351 238 343 222 q 359 285 359 254 l 359 529 l 169 793 q 131 833 151 819 q 93 857 111 848 q 59 871 75 866 q 31 882 43 876 q 12 896 19 887 q 5 921 5 905 q 93 1043 5 1005 q 345 1080 180 1080 q 488 1071 425 1080 q 592 1043 550 1062 q 657 993 635 1023 q 679 921 679 963 q 667 893 679 902 q 640 878 654 884 q 613 866 625 872 q 601 845 601 859 q 606 825 601 837 q 625 796 612 813 l 696 681 q 727 662 713 662 q 746 669 737 662 q 762 688 755 677 l 840 796 q 855 824 851 812 q 859 845 859 836 q 853 862 859 856 q 838 872 847 868 q 818 880 829 876 q 799 888 808 883 q 783 900 789 892 q 777 921 777 908 q 790 982 777 954 q 828 1033 803 1011 q 891 1067 854 1055 q 979 1080 929 1080 q 1067 1067 1029 1080 q 1130 1033 1105 1055 q 1168 982 1156 1011 q 1181 921 1181 954 q 1173 896 1181 905 q 1151 883 1165 888 q 1118 873 1137 878 q 1080 859 1100 868 q 1039 835 1060 850 q 1000 793 1018 819 l 815 529 l 815 288 q 823 240 815 257 q 844 214 831 223 q 870 202 856 205 q 896 195 884 199 q 916 183 908 191 q 924 160 924 176 q 902 87 924 118 q 837 38 880 57 q 731 9 794 18 q 585 0 667 0 z "},"Z":{"ha":1083,"x_min":20,"x_max":1065,"o":"m 471 905 q 472 911 472 909 q 467 925 472 919 q 454 932 461 932 l 300 932 l 273 823 q 247 762 262 787 q 213 721 231 736 q 174 697 195 705 q 133 690 154 690 q 89 699 109 690 q 53 722 68 707 q 29 758 37 736 q 20 807 20 780 q 32 896 20 848 q 68 984 44 943 q 129 1053 92 1025 q 215 1080 165 1080 l 941 1080 q 997 1065 981 1080 q 1013 1027 1013 1050 q 1007 993 1013 1011 q 989 958 1000 975 l 625 221 q 611 185 611 200 q 617 169 611 175 q 632 158 623 162 q 653 154 642 155 q 675 153 665 153 q 743 163 717 153 q 785 191 769 174 q 809 229 800 208 q 823 274 817 251 q 837 318 829 296 q 857 357 844 340 q 893 384 871 374 q 953 395 916 395 q 997 387 977 395 q 1033 363 1018 378 q 1056 327 1048 348 q 1065 278 1065 305 q 1053 189 1065 237 q 1017 98 1041 140 q 957 28 993 56 q 871 0 920 0 l 123 0 q 98 3 111 0 q 75 12 85 5 q 58 29 64 18 q 52 56 52 39 q 59 91 52 71 q 81 138 66 111 l 471 905 z "},"[":{"ha":585,"x_min":99,"x_max":608,"o":"m 99 1153 q 100 1219 99 1186 q 106 1281 101 1252 q 124 1336 112 1311 q 159 1379 136 1361 q 216 1408 182 1398 q 302 1418 251 1418 q 437 1410 380 1418 q 533 1383 495 1402 q 589 1334 571 1364 q 608 1260 608 1304 q 598 1185 608 1215 q 561 1136 588 1155 q 485 1109 534 1118 q 357 1101 435 1101 l 357 115 q 485 107 435 115 q 561 80 534 99 q 598 32 588 62 q 608 -43 608 1 q 589 -118 608 -87 q 533 -166 571 -148 q 437 -193 495 -185 q 302 -201 380 -201 q 216 -191 251 -201 q 159 -163 182 -181 q 124 -119 136 -144 q 106 -65 112 -94 q 100 -3 101 -35 q 99 64 99 30 l 99 1153 z "},"\\":{"ha":701,"x_min":26,"x_max":675,"o":"m 564 -78 q 541 -82 552 -81 q 519 -83 529 -83 q 462 -73 486 -83 q 420 -45 437 -62 q 392 -8 403 -28 q 376 31 381 12 l 35 1174 q 28 1199 31 1186 q 26 1226 26 1213 q 33 1269 26 1246 q 59 1310 41 1291 q 108 1342 77 1329 q 185 1354 139 1354 q 242 1344 218 1354 q 283 1317 266 1333 q 311 1280 300 1301 q 327 1240 321 1260 q 340 1195 330 1231 q 367 1104 351 1159 q 404 979 383 1049 q 448 832 425 909 q 496 673 471 755 q 543 513 520 591 q 587 365 566 435 q 625 239 608 294 q 653 146 642 183 q 667 97 664 109 q 675 47 675 75 q 670 9 675 28 q 652 -26 665 -9 q 618 -56 640 -43 q 564 -78 596 -70 z "},"]":{"ha":585,"x_min":-22,"x_max":486,"o":"m 486 64 q 485 -2 486 31 q 479 -65 484 -35 q 461 -119 473 -94 q 426 -163 449 -144 q 369 -191 404 -181 q 283 -201 334 -201 q 148 -193 205 -201 q 52 -166 90 -185 q -4 -118 14 -148 q -22 -43 -22 -87 q -13 32 -22 1 q 24 80 -3 62 q 100 107 52 99 q 228 115 149 115 l 228 1101 q 100 1109 149 1101 q 24 1136 52 1118 q -13 1185 -3 1155 q -22 1260 -22 1215 q -4 1334 -22 1304 q 52 1383 14 1364 q 148 1410 90 1402 q 283 1418 205 1418 q 369 1408 334 1418 q 426 1379 404 1398 q 461 1336 449 1361 q 479 1281 473 1311 q 485 1219 484 1252 q 486 1153 486 1186 l 486 64 z "},"^":{"ha":709,"x_min":17,"x_max":692,"o":"m 355 1079 q 427 1065 397 1079 q 480 1017 456 1050 q 531 926 505 983 q 591 787 556 870 l 684 566 q 691 545 689 555 q 692 527 692 536 q 687 498 692 511 q 671 477 681 486 q 649 465 661 469 q 624 460 637 460 q 594 465 607 460 q 568 481 582 469 q 537 515 554 493 q 493 572 519 536 l 355 789 l 216 572 q 172 515 190 536 q 141 481 155 493 q 115 465 127 469 q 85 460 102 460 q 60 465 73 460 q 38 477 48 469 q 23 498 28 486 q 17 527 17 511 q 19 545 17 536 q 25 566 20 555 l 118 787 q 179 926 153 870 q 229 1017 204 983 q 283 1065 254 1050 q 355 1079 312 1079 z "},"_":{"ha":802,"x_min":7,"x_max":796,"o":"m 7 -115 q 19 -58 7 -80 q 47 -22 31 -35 q 84 -4 64 -9 q 122 1 104 1 l 682 1 q 721 -4 701 1 q 758 -22 741 -9 q 785 -58 774 -35 q 796 -115 796 -80 q 785 -173 796 -151 q 758 -208 774 -195 q 721 -226 741 -221 q 682 -231 701 -231 l 122 -231 q 84 -226 104 -231 q 47 -208 64 -221 q 19 -173 31 -195 q 7 -115 7 -151 z "},"`":{"ha":547,"x_min":11,"x_max":534,"o":"m 534 107 q 529 85 534 96 q 514 63 524 73 q 493 47 505 54 q 469 41 481 41 q 402 64 445 41 q 290 138 359 86 q 232 179 263 157 q 171 226 201 201 q 111 276 140 250 q 60 331 82 302 q 24 388 37 359 q 11 449 11 418 q 22 505 11 477 q 55 554 34 532 q 105 590 76 576 q 172 604 135 604 q 254 576 218 604 q 322 505 290 549 q 383 408 353 461 q 445 302 412 354 q 489 231 471 261 q 516 177 506 200 q 530 138 526 155 q 534 107 534 121 z "},"a":{"ha":1055,"x_min":27,"x_max":1052,"o":"m 486 139 q 523 146 509 139 q 544 166 536 153 q 554 199 551 180 q 556 243 556 218 q 555 296 556 264 q 554 360 555 329 q 552 436 553 397 q 534 438 543 437 q 517 439 526 439 q 459 426 483 439 q 422 387 436 412 q 402 329 408 362 q 396 256 396 295 q 399 211 396 232 q 411 173 401 189 q 438 148 420 157 q 486 139 456 139 m 813 0 q 744 4 779 0 q 679 19 710 7 q 623 52 648 31 q 578 110 597 74 q 535 54 565 78 q 466 15 505 31 q 386 -9 428 -1 q 304 -17 343 -17 q 184 -1 236 -17 q 98 46 133 16 q 45 118 62 76 q 27 212 27 160 q 48 329 27 274 q 118 426 68 385 q 252 491 168 467 q 460 515 335 515 l 553 515 q 548 640 553 591 q 532 719 543 690 q 505 760 522 748 q 466 771 489 771 q 423 755 440 771 q 395 710 406 740 q 380 639 385 681 q 376 545 376 597 q 314 546 347 545 q 251 551 282 547 q 191 563 219 555 q 141 586 163 572 q 106 623 119 601 q 94 677 94 646 q 117 762 94 722 q 189 832 140 802 q 312 881 237 863 q 490 899 387 899 q 696 874 610 899 q 839 801 783 850 q 922 678 895 752 q 949 504 949 604 l 949 264 q 957 218 949 235 q 976 194 964 202 q 1000 182 987 185 q 1025 175 1014 178 q 1044 164 1036 171 q 1052 143 1052 158 q 991 38 1052 75 q 813 0 930 0 z "},"b":{"ha":1212,"x_min":39,"x_max":1177,"o":"m 555 811 q 599 842 574 827 q 658 870 625 858 q 733 891 691 883 q 827 899 775 899 q 948 879 896 899 q 1040 826 1001 859 q 1105 747 1079 792 q 1148 650 1132 701 q 1171 543 1164 598 q 1177 435 1177 488 q 1168 322 1177 378 q 1140 216 1159 267 q 1093 123 1122 166 q 1023 50 1063 81 q 932 1 983 18 q 817 -17 881 -17 q 712 -7 758 -17 q 632 18 667 3 q 572 51 597 33 q 531 85 547 68 q 507 49 522 65 q 469 22 492 33 q 415 6 447 12 q 342 0 384 0 q 213 8 269 0 q 118 34 157 16 q 59 80 79 52 q 39 146 39 107 q 47 167 39 161 q 65 177 54 174 q 89 183 76 180 q 113 194 102 186 q 131 216 123 201 q 138 258 138 231 l 138 1021 q 131 1063 138 1048 q 113 1085 123 1078 q 89 1096 102 1093 q 65 1102 76 1099 q 47 1112 54 1105 q 39 1133 39 1118 q 59 1199 39 1172 q 118 1245 79 1227 q 213 1271 157 1263 q 342 1279 269 1279 q 458 1272 416 1279 q 522 1246 500 1264 q 550 1198 544 1228 q 556 1121 556 1167 l 555 811 m 635 725 q 591 717 612 725 q 553 697 570 709 l 553 261 q 553 222 553 241 q 552 186 553 203 q 595 165 571 174 q 648 155 618 155 q 706 169 686 155 q 736 214 727 182 q 748 299 746 245 q 749 432 749 352 q 743 573 749 516 q 724 663 737 629 q 688 711 710 696 q 635 725 667 725 z "},"c":{"ha":901,"x_min":31,"x_max":879,"o":"m 494 899 q 667 876 595 899 q 784 816 739 854 q 851 727 830 778 q 872 619 872 676 q 865 577 872 595 q 845 546 857 559 q 814 526 832 533 q 777 519 797 519 q 741 526 759 519 q 706 545 722 532 q 677 581 690 559 q 657 633 664 602 q 641 673 652 656 q 616 702 630 690 q 586 719 602 713 q 553 725 569 725 q 502 713 524 725 q 467 677 481 701 q 446 620 452 654 q 439 545 439 587 q 488 303 439 382 q 646 225 537 225 q 709 234 677 225 q 770 252 742 242 q 818 271 798 262 q 846 279 838 279 q 870 266 861 279 q 879 236 879 253 q 879 226 879 231 q 876 216 878 221 q 821 124 857 166 q 735 50 785 81 q 622 1 685 18 q 485 -17 559 -17 q 346 1 409 -17 q 232 51 283 19 q 144 127 182 83 q 81 221 106 170 q 43 329 56 273 q 31 441 31 385 q 43 556 31 499 q 82 663 56 612 q 146 757 108 714 q 237 832 185 800 q 353 881 288 863 q 494 899 417 899 z "},"d":{"ha":1209,"x_min":35,"x_max":1171,"o":"m 1071 261 q 1078 218 1071 233 q 1097 194 1086 202 q 1121 183 1107 186 q 1145 177 1134 180 q 1163 167 1156 174 q 1171 146 1171 161 q 1090 34 1171 68 q 859 0 1010 0 q 788 6 819 0 q 735 23 758 12 q 699 51 713 35 q 676 86 685 66 q 633 52 659 70 q 571 18 608 33 q 488 -7 535 3 q 380 -17 441 -17 q 259 2 312 -17 q 169 54 207 21 q 104 131 130 87 q 63 225 79 175 q 41 329 47 275 q 35 435 35 382 q 42 543 35 488 q 68 650 50 598 q 114 747 86 701 q 183 826 142 792 q 277 879 223 859 q 399 899 331 899 q 487 891 448 899 q 558 873 526 884 q 613 846 589 861 q 655 817 637 831 l 655 1021 q 648 1063 655 1048 q 630 1085 641 1078 q 606 1096 618 1093 q 582 1102 593 1099 q 564 1112 571 1105 q 557 1133 557 1118 q 577 1199 557 1172 q 635 1245 597 1227 q 730 1271 674 1263 q 859 1279 787 1279 q 975 1272 932 1279 q 1039 1246 1017 1264 q 1067 1198 1061 1228 q 1074 1121 1074 1167 l 1071 261 m 557 155 q 610 165 584 155 q 656 186 637 174 q 655 221 655 203 q 655 258 655 239 l 655 688 q 604 713 632 701 q 547 725 576 725 q 496 711 516 725 q 465 663 476 696 q 449 573 453 629 q 444 432 444 516 q 448 332 444 381 q 463 243 451 282 q 496 180 474 204 q 557 155 519 155 z "},"e":{"ha":912,"x_min":31,"x_max":888,"o":"m 545 725 q 504 715 523 725 q 471 685 485 705 q 449 633 457 665 q 441 558 441 602 l 658 558 q 650 638 658 606 q 629 689 643 670 q 593 717 614 709 q 545 725 572 725 m 494 899 q 658 871 585 899 q 782 797 731 844 q 861 685 833 749 q 888 547 888 621 q 880 500 888 517 q 856 475 871 483 q 817 465 840 467 q 765 463 794 463 l 439 463 q 454 341 439 388 q 496 269 469 295 q 562 234 524 243 q 646 225 600 225 q 696 230 670 225 q 746 242 722 235 q 791 258 770 250 q 825 273 811 266 q 846 279 836 279 q 870 266 861 279 q 879 237 879 253 q 878 227 879 231 q 876 217 878 222 q 822 124 856 167 q 740 50 788 81 q 627 1 691 18 q 484 -17 564 -17 q 346 1 408 -17 q 232 51 283 19 q 144 127 182 83 q 81 221 106 170 q 43 329 56 273 q 31 441 31 385 q 43 556 31 499 q 82 663 56 612 q 146 757 108 714 q 237 832 185 800 q 353 881 288 863 q 494 899 417 899 z "},"f":{"ha":716,"x_min":47,"x_max":905,"o":"m 151 879 q 160 975 151 928 q 190 1064 170 1022 q 242 1143 210 1107 q 320 1205 275 1179 q 426 1246 366 1232 q 562 1261 486 1261 q 694 1250 631 1261 q 803 1214 756 1239 q 877 1146 850 1188 q 905 1044 905 1105 q 898 1003 905 1025 q 873 960 890 980 q 828 926 857 940 q 759 913 800 913 q 685 924 715 913 q 635 954 654 936 q 607 995 616 972 q 599 1040 599 1018 q 602 1072 599 1053 q 614 1111 605 1090 q 567 1108 586 1111 q 537 1100 549 1105 q 522 1086 526 1094 q 517 1067 517 1078 q 523 1033 517 1053 q 536 990 529 1014 q 550 939 544 966 q 556 879 556 911 l 628 879 q 648 878 636 879 q 669 871 659 877 q 687 851 680 865 q 694 814 694 838 q 688 777 694 791 q 674 756 683 763 q 656 747 666 749 q 637 745 646 745 l 562 745 l 562 260 q 569 216 562 232 q 587 193 576 201 q 611 182 598 185 q 635 176 625 179 q 654 166 646 172 q 661 144 661 159 q 582 34 661 67 q 351 0 502 0 q 221 8 277 0 q 126 34 165 16 q 67 78 87 51 q 47 144 47 106 q 55 166 47 159 q 73 176 62 172 q 97 182 84 179 q 121 192 110 184 q 139 215 132 200 q 146 257 146 229 l 146 743 l 113 743 q 93 744 104 743 q 71 752 81 745 q 54 773 61 759 q 47 814 47 787 q 55 851 47 838 q 72 871 62 865 q 94 878 82 877 q 113 879 105 879 l 151 879 z "},"g":{"ha":1115,"x_min":57,"x_max":1148,"o":"m 573 899 q 712 883 651 899 q 818 839 773 867 q 860 862 837 851 q 909 881 884 873 q 961 894 935 889 q 1013 899 987 899 q 1065 892 1040 899 q 1108 872 1090 886 q 1137 836 1126 858 q 1148 781 1148 813 q 1141 740 1148 760 q 1120 704 1134 720 q 1084 678 1105 688 q 1034 668 1063 668 q 990 676 1006 668 q 965 696 974 684 q 952 723 956 709 q 943 749 948 737 q 931 770 939 762 q 909 778 924 778 q 902 777 906 778 q 892 775 898 777 q 938 698 923 739 q 953 614 953 656 q 925 493 953 553 q 841 387 897 434 q 704 310 786 339 q 516 281 623 281 q 408 289 462 281 l 408 272 q 435 247 408 255 q 505 235 462 239 q 605 225 549 230 q 719 212 661 221 q 832 184 777 202 q 932 133 888 165 q 1002 52 975 101 q 1029 -71 1029 2 q 1011 -177 1029 -130 q 962 -262 994 -224 q 888 -326 931 -299 q 795 -371 846 -353 q 689 -397 745 -389 q 576 -406 633 -406 q 456 -400 516 -406 q 342 -380 397 -394 q 242 -344 288 -366 q 161 -289 195 -322 q 107 -212 127 -256 q 87 -110 87 -168 q 100 -45 87 -72 q 132 -1 112 -18 q 77 61 97 24 q 57 154 57 99 q 70 221 57 191 q 106 274 83 251 q 164 314 130 297 q 239 342 197 330 q 170 387 201 361 q 117 444 139 412 q 83 514 95 476 q 71 597 71 553 q 101 708 71 654 q 194 804 132 762 q 350 872 256 846 q 573 899 445 899 m 687 -129 q 671 -101 687 -111 q 628 -85 655 -91 q 563 -78 600 -80 q 484 -74 526 -76 q 396 -70 441 -73 q 308 -61 351 -67 q 309 -97 309 -79 q 316 -132 310 -115 q 335 -164 322 -149 q 374 -191 349 -179 q 438 -209 399 -202 q 536 -215 477 -215 q 616 -207 586 -215 q 662 -186 646 -199 q 682 -158 677 -173 q 687 -129 687 -142 m 530 725 q 489 716 506 725 q 461 694 471 708 q 445 661 450 680 q 440 621 440 642 q 448 566 440 593 q 468 516 455 538 q 499 479 481 494 q 538 465 517 465 q 579 476 562 465 q 608 504 597 486 q 626 543 620 521 q 631 589 631 565 q 625 638 631 614 q 606 682 618 663 q 574 713 593 701 q 530 725 555 725 z "},"h":{"ha":1316,"x_min":34,"x_max":1299,"o":"m 549 781 q 590 818 564 798 q 654 856 616 838 q 742 886 692 874 q 859 899 793 899 q 989 879 935 899 q 1081 827 1043 860 q 1141 752 1118 795 q 1176 664 1164 710 q 1192 570 1188 617 q 1196 481 1196 523 l 1196 267 q 1204 221 1196 237 q 1223 196 1211 205 q 1247 184 1234 188 q 1272 177 1261 181 q 1291 167 1284 174 q 1299 146 1299 161 q 1219 34 1299 68 q 988 0 1139 0 q 859 8 915 0 q 764 34 802 16 q 705 80 725 52 q 685 146 685 107 q 692 167 685 161 q 711 177 700 174 q 736 184 723 181 q 760 195 749 187 q 779 219 772 203 q 787 264 787 235 l 787 541 q 781 618 787 584 q 760 676 774 653 q 719 712 745 700 q 656 725 694 725 q 620 720 636 725 q 590 706 604 714 q 565 690 576 699 q 547 673 555 681 l 547 261 q 555 218 547 233 q 573 194 562 202 q 597 183 585 186 q 622 177 610 180 q 640 167 633 174 q 648 146 648 161 q 568 34 648 68 q 336 0 488 0 q 112 34 191 0 q 34 146 34 68 q 41 167 34 161 q 59 177 48 174 q 83 183 71 180 q 107 194 96 186 q 125 216 118 201 q 132 258 132 231 l 132 1021 q 125 1063 132 1048 q 107 1085 118 1078 q 83 1096 96 1093 q 59 1102 71 1099 q 41 1112 48 1105 q 34 1133 34 1118 q 112 1245 34 1211 q 336 1279 191 1279 q 452 1272 410 1279 q 516 1246 494 1264 q 544 1198 538 1228 q 550 1121 550 1167 l 549 781 z "},"i":{"ha":694,"x_min":45,"x_max":659,"o":"m 138 1112 q 150 1172 138 1146 q 181 1216 162 1197 q 223 1247 199 1234 q 272 1267 248 1259 q 319 1277 296 1274 q 359 1280 342 1280 q 400 1277 377 1280 q 448 1267 424 1274 q 496 1247 473 1259 q 539 1216 520 1234 q 569 1172 557 1197 q 580 1112 580 1146 q 569 1053 580 1079 q 539 1009 557 1027 q 496 978 520 991 q 448 958 473 966 q 400 948 424 951 q 359 945 377 945 q 319 948 342 945 q 272 958 296 951 q 223 978 248 966 q 181 1009 199 991 q 150 1053 162 1027 q 138 1112 138 1078 m 559 258 q 566 216 559 231 q 585 194 574 201 q 609 183 596 186 q 633 177 622 180 q 652 167 644 174 q 659 146 659 161 q 579 34 659 68 q 348 0 499 0 q 218 8 275 0 q 123 34 162 16 q 65 80 85 52 q 45 146 45 107 q 52 167 45 161 q 71 177 60 174 q 94 183 81 180 q 118 194 107 186 q 136 216 129 201 q 144 258 144 231 l 144 621 q 136 663 144 648 q 118 685 129 677 q 94 696 107 693 q 71 702 81 699 q 52 712 60 705 q 45 733 45 718 q 65 799 45 772 q 123 845 85 827 q 218 871 162 863 q 348 879 275 879 q 463 871 421 879 q 527 846 505 864 q 553 798 548 828 q 559 721 559 767 l 559 258 z "},"j":{"ha":649,"x_min":8,"x_max":561,"o":"m 119 1112 q 131 1172 119 1146 q 162 1216 143 1197 q 204 1247 180 1234 q 253 1267 229 1259 q 301 1277 278 1274 q 340 1280 323 1280 q 381 1277 358 1280 q 429 1267 405 1274 q 477 1247 454 1259 q 520 1216 501 1234 q 550 1172 538 1197 q 561 1112 561 1146 q 550 1053 561 1079 q 520 1009 538 1027 q 477 978 501 991 q 429 958 454 966 q 381 948 405 951 q 340 945 358 945 q 301 948 323 945 q 253 958 278 951 q 204 978 229 966 q 162 1009 180 991 q 131 1053 143 1027 q 119 1112 119 1078 m 553 150 q 543 54 553 101 q 511 -35 532 7 q 456 -113 490 -77 q 377 -175 423 -149 q 270 -216 330 -201 q 134 -231 209 -231 q 75 -224 99 -231 q 36 -207 51 -217 q 15 -182 22 -196 q 8 -154 8 -168 q 14 -126 8 -140 q 29 -103 20 -113 q 52 -87 39 -93 q 81 -81 65 -81 q 127 -78 109 -81 q 157 -69 146 -75 q 173 -55 168 -64 q 178 -36 178 -47 q 171 -3 178 -22 q 157 40 165 16 q 143 91 149 63 q 136 150 136 118 l 136 621 q 129 663 136 648 q 111 685 121 677 q 87 696 100 693 q 63 702 74 699 q 45 712 52 705 q 37 733 37 718 q 57 799 37 772 q 116 845 77 827 q 211 871 155 863 q 340 879 267 879 q 455 871 413 879 q 519 846 498 864 q 547 798 541 828 q 553 721 553 767 l 553 150 z "},"k":{"ha":1258,"x_min":40,"x_max":1264,"o":"m 790 647 q 810 668 805 659 q 815 685 815 677 q 804 703 815 694 q 778 722 792 712 q 752 742 764 731 q 741 765 741 752 q 762 823 741 801 q 817 858 783 846 q 891 874 850 870 q 969 879 931 879 q 1067 873 1027 879 q 1133 853 1107 867 q 1170 817 1158 839 q 1181 765 1181 795 q 1173 734 1181 745 q 1150 717 1164 724 q 1117 705 1136 710 q 1077 694 1099 701 q 1033 676 1055 687 q 987 647 1010 666 l 886 561 l 1099 249 q 1133 214 1115 225 q 1170 198 1152 203 q 1205 191 1188 193 q 1235 186 1222 189 q 1256 175 1249 182 q 1264 149 1264 167 q 1247 80 1264 109 q 1197 34 1230 52 q 1114 8 1164 16 q 1000 0 1065 0 q 881 8 926 0 q 811 30 836 16 q 775 62 786 43 q 759 105 765 81 q 745 154 752 128 q 721 208 739 180 l 621 366 q 615 372 618 368 q 605 378 612 375 q 586 383 598 381 q 554 385 574 385 l 554 261 q 562 218 554 233 q 580 194 569 202 q 604 183 591 186 q 628 177 617 180 q 647 167 640 174 q 654 146 654 161 q 574 34 654 68 q 343 0 494 0 q 214 8 270 0 q 119 34 157 16 q 60 80 80 52 q 40 146 40 107 q 47 167 40 161 q 66 177 55 174 q 90 183 77 180 q 113 194 102 186 q 132 216 124 201 q 139 258 139 231 l 139 1021 q 132 1063 139 1048 q 113 1085 124 1078 q 90 1096 102 1093 q 66 1102 77 1099 q 47 1112 55 1105 q 40 1133 40 1118 q 60 1199 40 1172 q 119 1245 80 1227 q 214 1271 157 1263 q 343 1279 270 1279 q 454 1273 412 1279 q 518 1250 496 1266 q 547 1207 540 1234 q 554 1140 554 1181 l 554 494 q 579 495 570 494 q 595 499 589 496 q 606 506 601 501 q 621 517 612 510 l 790 647 z "},"l":{"ha":694,"x_min":41,"x_max":654,"o":"m 555 261 q 562 218 555 233 q 581 194 570 202 q 605 183 591 186 q 629 177 618 180 q 647 167 640 174 q 654 146 654 161 q 574 34 654 68 q 343 0 494 0 q 214 8 271 0 q 119 34 158 16 q 61 80 81 52 q 41 146 41 107 q 48 167 41 161 q 66 177 55 174 q 90 183 77 180 q 114 194 102 186 q 132 216 125 201 q 139 258 139 231 l 139 1021 q 132 1063 139 1048 q 114 1085 125 1078 q 90 1096 102 1093 q 66 1102 77 1099 q 48 1112 55 1105 q 41 1133 41 1118 q 61 1199 41 1172 q 119 1245 81 1227 q 214 1271 158 1263 q 343 1279 271 1279 q 458 1272 416 1279 q 522 1246 500 1264 q 549 1198 543 1228 q 555 1121 555 1167 l 555 261 z "},"m":{"ha":1871,"x_min":39,"x_max":1853,"o":"m 1076 815 q 1106 837 1087 823 q 1161 864 1124 850 q 1258 888 1198 878 q 1413 899 1318 899 q 1537 882 1485 899 q 1628 836 1590 865 q 1690 767 1666 806 q 1729 681 1714 727 q 1748 586 1743 635 q 1754 488 1754 536 l 1754 481 q 1753 356 1753 400 q 1752 292 1752 313 q 1752 268 1752 272 q 1752 264 1752 264 q 1760 220 1752 236 q 1778 196 1767 204 q 1803 184 1790 187 q 1827 177 1816 181 q 1846 167 1839 174 q 1853 146 1853 161 q 1834 80 1853 107 q 1777 34 1815 52 q 1686 8 1740 16 q 1560 0 1631 0 q 1439 8 1492 0 q 1349 34 1385 16 q 1293 80 1312 52 q 1274 146 1274 107 q 1279 167 1274 161 q 1292 177 1284 174 q 1308 183 1299 180 q 1324 194 1317 186 q 1337 216 1332 201 q 1342 258 1342 231 l 1342 550 q 1337 624 1342 591 q 1320 679 1332 656 q 1290 713 1309 701 q 1241 725 1270 725 q 1176 697 1196 725 q 1156 624 1156 669 l 1156 267 q 1162 221 1156 237 q 1176 196 1167 205 q 1194 184 1184 188 q 1212 177 1204 181 q 1226 167 1221 174 q 1232 146 1232 161 q 1216 80 1232 107 q 1169 34 1201 52 q 1086 8 1137 16 q 964 0 1036 0 q 843 8 896 0 q 753 34 789 16 q 697 80 716 52 q 678 146 678 107 q 683 167 678 161 q 696 177 688 174 q 712 183 703 180 q 729 194 722 186 q 742 216 736 201 q 747 258 747 231 l 747 550 q 727 678 747 633 q 655 724 707 724 q 616 716 635 724 q 584 695 598 709 q 562 662 570 681 q 553 621 553 643 l 553 261 q 559 218 553 233 q 574 194 565 202 q 593 183 583 186 q 612 177 604 180 q 627 167 621 174 q 633 146 633 161 q 556 34 633 68 q 334 0 479 0 q 210 8 264 0 q 117 34 155 16 q 59 80 79 52 q 39 146 39 107 q 47 167 39 161 q 65 177 54 174 q 89 183 76 180 q 113 194 102 186 q 131 216 123 201 q 138 258 138 231 l 138 621 q 131 663 138 648 q 113 685 123 677 q 89 696 102 693 q 65 702 76 699 q 47 712 54 705 q 39 733 39 718 q 59 799 39 772 q 116 845 79 827 q 208 871 154 863 q 331 879 262 879 q 387 876 362 879 q 432 868 412 873 q 465 856 451 863 q 490 843 479 850 q 523 807 513 827 q 603 852 556 832 q 701 884 643 870 q 836 899 758 899 q 977 876 916 899 q 1076 815 1039 853 z "},"n":{"ha":1334,"x_min":43,"x_max":1317,"o":"m 557 261 q 565 218 557 233 q 584 194 572 202 q 608 183 595 186 q 632 177 621 180 q 650 167 643 174 q 658 146 658 161 q 578 34 658 68 q 347 0 498 0 q 217 8 273 0 q 122 34 161 16 q 63 80 83 52 q 43 146 43 107 q 51 167 43 161 q 69 177 58 174 q 93 183 80 180 q 117 194 106 186 q 135 216 127 201 q 142 258 142 231 l 142 621 q 135 663 142 648 q 117 685 127 677 q 93 696 106 693 q 69 702 80 699 q 51 712 58 705 q 43 733 43 718 q 63 799 43 772 q 122 845 83 827 q 217 871 161 863 q 347 879 273 879 q 452 868 413 879 q 513 843 492 857 q 548 807 538 827 q 632 852 583 832 q 735 884 674 870 q 877 899 795 899 q 1005 880 951 899 q 1097 830 1059 861 q 1158 756 1135 798 q 1193 669 1181 715 q 1210 577 1206 624 q 1215 489 1215 531 l 1215 264 q 1222 220 1215 236 q 1241 196 1230 204 q 1266 184 1253 187 q 1291 177 1279 181 q 1310 167 1302 174 q 1317 146 1317 161 q 1237 34 1317 68 q 1006 0 1158 0 q 877 8 933 0 q 782 34 821 16 q 723 80 743 52 q 703 146 703 107 q 711 167 703 161 q 730 177 718 174 q 754 183 741 180 q 779 194 767 186 q 798 216 790 201 q 805 258 805 231 l 805 548 q 799 623 805 590 q 777 679 792 656 q 736 713 762 701 q 674 725 711 725 q 629 717 650 725 q 593 695 608 709 q 568 662 577 682 q 559 621 559 643 l 557 261 z "},"o":{"ha":1066,"x_min":29,"x_max":1036,"o":"m 515 -17 q 367 2 435 -17 q 246 54 300 21 q 151 132 192 87 q 83 228 111 176 q 43 336 56 280 q 29 449 29 393 q 44 563 29 507 q 88 669 58 618 q 161 761 117 719 q 265 833 205 803 q 398 881 324 864 q 562 899 473 899 q 706 881 641 899 q 825 832 772 863 q 917 760 878 802 q 983 668 957 718 q 1023 564 1010 618 q 1036 453 1036 509 q 1022 338 1036 395 q 979 228 1008 280 q 907 131 950 176 q 805 53 863 86 q 675 2 747 20 q 515 -17 602 -17 m 546 157 q 584 170 568 157 q 608 208 599 183 q 622 269 618 233 q 626 349 626 304 q 625 430 626 387 q 622 515 625 473 q 613 595 619 557 q 596 662 607 633 q 568 708 585 691 q 526 725 551 725 q 486 712 503 725 q 458 675 469 699 q 443 618 448 651 q 437 545 437 585 q 439 464 437 507 q 444 377 440 420 q 456 294 448 334 q 476 224 464 254 q 505 175 488 193 q 546 157 522 157 z "},"p":{"ha":1164,"x_min":40,"x_max":1128,"o":"m 1128 435 q 1122 329 1128 382 q 1100 225 1116 275 q 1059 131 1084 175 q 995 54 1033 87 q 904 2 956 21 q 783 -17 851 -17 q 649 -1 705 -17 q 554 39 593 16 l 554 -119 q 562 -163 554 -148 q 580 -186 569 -178 q 604 -197 591 -194 q 628 -203 617 -200 q 646 -213 639 -207 q 654 -235 654 -220 q 574 -346 654 -312 q 342 -380 494 -380 q 214 -372 270 -380 q 119 -346 157 -364 q 60 -301 80 -328 q 40 -235 40 -273 q 47 -213 40 -220 q 65 -203 54 -207 q 89 -197 77 -200 q 113 -187 102 -195 q 131 -164 124 -179 q 138 -122 138 -150 l 138 621 q 131 663 138 648 q 113 685 124 677 q 89 696 102 693 q 65 702 77 699 q 47 712 54 705 q 40 733 40 718 q 60 799 40 772 q 119 845 80 827 q 214 871 157 863 q 342 879 270 879 q 465 867 422 879 q 528 827 508 856 q 571 854 547 841 q 626 877 595 867 q 695 892 657 886 q 779 899 732 899 q 900 879 847 899 q 992 826 953 859 q 1057 747 1031 792 q 1099 650 1083 701 q 1122 543 1115 598 q 1128 435 1128 488 m 554 174 q 583 165 568 168 q 614 163 598 163 q 672 175 652 163 q 702 217 692 186 q 713 300 711 248 q 715 432 715 352 q 709 573 715 516 q 689 663 703 629 q 654 711 675 696 q 601 725 632 725 q 576 723 589 725 q 554 717 564 721 q 555 672 555 696 q 555 621 555 648 l 554 174 z "},"q":{"ha":1208,"x_min":35,"x_max":1168,"o":"m 653 71 q 609 39 635 54 q 550 11 584 23 q 475 -9 517 -1 q 381 -17 433 -17 q 260 2 313 -17 q 169 54 208 21 q 105 131 131 87 q 64 225 79 175 q 42 329 48 275 q 35 435 35 382 q 42 543 35 488 q 65 650 49 598 q 107 747 81 701 q 173 826 134 792 q 264 879 212 859 q 385 899 317 899 q 484 889 440 899 q 563 866 528 880 q 624 834 598 852 q 667 800 650 817 q 689 838 675 823 q 727 862 703 852 q 784 875 750 871 q 866 879 819 879 q 995 871 939 879 q 1090 845 1051 863 q 1148 799 1128 827 q 1168 733 1168 772 q 1161 712 1168 718 q 1143 702 1154 705 q 1119 696 1132 699 q 1096 685 1107 693 q 1077 663 1084 677 q 1070 621 1070 648 l 1070 -122 q 1077 -164 1070 -150 q 1096 -187 1084 -179 q 1119 -197 1107 -195 q 1143 -203 1132 -200 q 1161 -213 1154 -207 q 1168 -235 1168 -220 q 1148 -301 1168 -273 q 1090 -346 1128 -328 q 995 -372 1051 -364 q 866 -380 939 -380 q 635 -346 715 -380 q 555 -235 555 -312 q 562 -213 555 -220 q 581 -203 570 -207 q 605 -197 591 -200 q 629 -186 618 -194 q 647 -163 640 -178 q 654 -119 654 -148 l 653 71 m 551 163 q 605 172 578 163 q 653 193 632 182 l 653 694 q 611 716 634 707 q 563 725 589 725 q 510 711 532 725 q 475 663 488 696 q 455 573 461 629 q 449 432 449 516 q 451 300 449 352 q 462 217 452 248 q 492 175 471 186 q 551 163 513 163 z "},"r":{"ha":915,"x_min":25,"x_max":901,"o":"m 539 261 q 547 218 539 233 q 565 194 554 202 q 589 183 576 186 q 613 177 602 180 q 632 167 625 174 q 640 146 640 161 q 559 34 640 68 q 328 0 479 0 q 199 8 255 0 q 104 34 142 16 q 45 80 65 52 q 25 146 25 107 q 33 167 25 161 q 51 177 40 174 q 75 183 62 180 q 98 194 87 186 q 117 216 109 201 q 124 258 124 231 l 124 621 q 117 663 124 648 q 98 685 109 677 q 75 696 87 693 q 51 702 62 699 q 33 712 40 705 q 25 733 25 718 q 45 799 25 772 q 104 845 65 827 q 199 871 142 863 q 328 879 255 879 q 436 866 395 879 q 499 827 476 852 q 538 850 518 839 q 582 870 559 861 q 632 883 605 878 q 692 888 659 888 q 770 879 732 888 q 837 851 808 871 q 883 801 866 832 q 901 725 901 770 q 890 667 901 695 q 860 616 880 638 q 810 581 840 594 q 741 567 780 567 q 679 578 701 567 q 644 607 656 590 q 626 644 632 624 q 614 681 621 664 q 597 709 608 698 q 566 721 587 721 q 538 716 545 721 q 531 701 531 711 q 536 670 531 689 q 541 624 541 651 l 539 261 z "},"s":{"ha":874,"x_min":32,"x_max":847,"o":"m 553 721 q 524 749 553 736 q 437 762 496 762 q 389 759 408 762 q 359 749 370 755 q 345 734 349 743 q 341 714 341 726 q 363 675 341 692 q 420 643 385 659 q 501 612 456 627 q 594 576 547 596 q 687 530 642 556 q 768 468 732 504 q 825 385 804 433 q 847 275 847 338 q 812 143 847 199 q 720 53 777 88 q 590 0 663 17 q 441 -17 517 -17 q 291 -1 365 -17 q 160 43 218 15 q 67 112 102 72 q 32 200 32 152 q 41 250 32 229 q 64 285 50 271 q 98 306 79 299 q 137 313 117 313 q 191 305 170 313 q 225 286 212 298 q 246 259 238 274 q 262 227 254 243 q 278 196 269 211 q 302 169 287 180 q 340 149 317 157 q 399 142 363 142 q 485 152 457 142 q 512 192 512 162 q 492 213 512 203 q 439 235 472 224 q 365 261 407 247 q 279 295 323 275 q 194 339 236 314 q 119 398 152 365 q 67 475 87 432 q 47 574 47 519 q 62 682 47 634 q 103 766 77 730 q 168 827 130 802 q 249 868 205 852 q 342 891 293 884 q 444 899 392 899 q 599 882 534 899 q 705 838 663 865 q 766 779 747 812 q 786 714 786 746 q 777 672 786 692 q 750 637 768 652 q 707 613 732 622 q 650 604 682 604 q 590 608 613 604 q 552 620 566 612 q 533 636 538 627 q 528 659 528 646 q 532 677 528 671 q 540 689 536 683 q 549 701 545 694 q 553 721 553 708 z "},"t":{"ha":762,"x_min":20,"x_max":758,"o":"m 519 338 q 520 295 519 315 q 528 258 522 274 q 549 232 535 241 q 589 222 564 222 q 650 232 624 222 q 704 256 676 241 q 724 262 715 262 q 749 248 740 262 q 758 218 758 235 q 755 199 758 206 q 704 109 735 149 q 633 41 673 68 q 545 -2 593 13 q 441 -17 496 -17 q 311 2 366 -17 q 220 54 257 22 q 160 129 182 86 q 126 217 138 171 q 110 311 114 264 q 106 400 106 358 l 106 743 l 73 743 q 34 758 48 743 q 20 790 20 772 q 39 825 20 811 q 184 936 118 882 q 297 1031 250 989 q 397 1122 353 1080 q 433 1148 414 1140 q 468 1157 451 1157 q 503 1143 489 1157 q 517 1099 517 1128 l 517 879 l 683 879 q 702 878 691 879 q 724 871 713 877 q 741 851 734 865 q 748 814 748 838 q 741 773 748 787 q 724 752 734 759 q 703 744 714 745 q 683 743 692 743 l 517 743 l 519 338 z "},"u":{"ha":1316,"x_min":18,"x_max":1291,"o":"m 778 618 q 770 661 778 646 q 752 685 763 677 q 728 695 741 692 q 704 702 715 699 q 685 712 692 705 q 677 733 677 718 q 758 845 677 810 q 989 879 838 879 q 1074 869 1040 879 q 1132 843 1109 860 q 1167 802 1154 826 q 1185 750 1179 779 q 1192 688 1191 721 q 1193 621 1193 656 l 1193 257 q 1200 215 1193 230 q 1218 192 1207 200 q 1242 182 1230 184 q 1266 176 1255 179 q 1284 166 1277 172 q 1291 144 1291 159 q 1213 33 1291 67 q 989 -1 1135 -1 q 925 4 953 -1 q 877 18 897 9 q 841 38 856 27 q 816 62 826 50 q 786 125 792 89 q 703 54 751 85 q 656 27 682 40 q 600 5 631 15 q 534 -11 570 -5 q 458 -17 498 -17 q 330 2 384 -17 q 238 52 275 20 q 177 124 200 83 q 141 211 154 165 q 124 303 128 256 q 119 391 119 349 l 119 614 q 112 659 119 643 q 93 683 104 675 q 68 695 81 692 q 44 702 56 698 q 25 712 33 705 q 18 733 18 718 q 98 845 18 810 q 329 879 178 879 q 436 863 396 879 q 497 818 476 846 q 524 751 518 790 q 530 668 530 713 l 530 333 q 537 258 530 291 q 558 202 543 225 q 599 167 574 179 q 661 155 624 155 q 706 163 685 155 q 743 184 727 170 q 767 216 758 197 q 777 257 777 235 l 778 618 z "},"v":{"ha":1073,"x_min":-20,"x_max":1091,"o":"m 728 646 q 734 662 733 656 q 735 674 735 668 l 735 684 q 721 701 735 692 q 691 720 707 710 q 660 740 674 729 q 646 764 646 751 q 673 822 646 800 q 739 858 699 845 q 824 874 779 870 q 907 879 869 879 q 1043 852 996 879 q 1091 764 1091 825 q 1082 740 1091 748 q 1058 725 1073 731 q 1025 715 1043 720 q 988 702 1006 710 q 953 681 970 694 q 926 646 937 668 l 638 50 q 615 10 627 26 q 591 -16 603 -6 q 567 -30 578 -26 q 545 -35 555 -35 q 526 -31 536 -35 q 503 -16 515 -26 q 477 12 490 -6 q 449 56 463 29 l 130 646 q 100 683 117 669 q 67 703 84 696 q 35 714 51 710 q 7 723 20 718 q -13 737 -5 728 q -20 764 -20 746 q 8 824 -20 801 q 81 859 36 846 q 182 875 126 871 q 295 879 239 879 q 430 874 372 879 q 526 857 488 869 q 583 822 564 844 q 602 764 602 799 q 590 741 602 751 q 563 724 578 732 q 536 707 549 715 q 524 689 524 699 q 531 671 526 682 q 545 646 536 661 l 642 457 l 728 646 z "},"w":{"ha":1412,"x_min":-20,"x_max":1430,"o":"m 1430 761 q 1422 741 1430 750 q 1403 724 1415 732 q 1377 708 1392 716 q 1350 692 1363 701 q 1325 675 1336 684 q 1308 656 1314 667 l 961 5 q 949 -6 957 -2 q 933 -11 941 -11 q 908 5 918 -11 l 723 329 l 529 5 q 516 -6 524 -2 q 500 -11 509 -11 q 476 5 485 -11 l 134 616 q 103 660 120 642 q 68 688 85 677 q 36 707 52 699 q 7 722 20 714 q -12 738 -5 729 q -20 760 -20 746 q 2 821 -20 798 q 67 857 24 844 q 171 874 109 870 q 312 879 233 879 q 367 877 336 879 q 431 870 398 875 q 497 857 465 865 q 554 835 529 848 q 595 803 579 822 q 610 760 610 785 q 601 726 610 738 q 581 708 592 715 q 561 694 570 701 q 551 675 551 688 q 557 656 551 667 l 644 469 l 732 656 q 734 666 734 661 q 722 687 734 678 q 695 706 710 696 q 669 729 681 716 q 656 761 656 741 q 668 822 656 798 q 704 858 680 845 q 765 874 728 870 q 852 879 802 879 q 921 874 891 879 q 972 856 951 869 q 1003 819 992 842 q 1013 760 1013 796 q 972 722 989 740 q 943 690 956 707 q 930 663 930 674 q 932 656 930 658 l 1037 469 l 1133 656 q 1135 666 1135 661 q 1123 686 1135 677 q 1097 705 1111 695 q 1070 727 1082 715 q 1058 760 1058 740 q 1071 818 1058 795 q 1109 855 1084 842 q 1173 873 1135 868 q 1261 879 1211 879 q 1325 876 1295 879 q 1378 860 1356 872 q 1414 825 1400 848 q 1430 761 1428 802 z "},"x":{"ha":1086,"x_min":1,"x_max":1094,"o":"m 369 401 l 137 646 q 101 677 119 665 q 68 695 83 688 q 41 707 54 703 q 19 719 28 712 q 5 735 10 725 q 1 764 1 745 q 27 817 1 795 q 95 852 53 839 q 192 872 138 866 q 302 879 246 879 q 443 874 387 879 q 533 857 499 869 q 581 822 567 844 q 595 764 595 799 q 586 739 595 749 q 564 721 576 729 q 543 703 553 712 q 533 684 533 694 q 537 667 533 676 q 552 646 542 659 l 597 600 l 648 646 q 668 667 662 658 q 673 684 673 676 q 666 701 673 692 q 650 720 659 710 q 633 740 641 729 q 626 764 626 751 q 643 822 626 800 q 689 858 661 845 q 753 874 717 870 q 827 879 789 879 q 925 872 885 879 q 991 852 966 866 q 1027 816 1016 838 q 1038 764 1038 794 q 1030 733 1038 744 q 1008 716 1022 722 q 975 705 994 709 q 934 693 956 700 q 890 676 913 687 q 846 646 867 665 l 690 507 l 958 235 q 993 202 976 213 q 1025 186 1010 192 q 1053 179 1040 181 q 1075 174 1065 178 q 1089 161 1084 170 q 1094 135 1094 153 q 1070 79 1094 104 q 1005 37 1046 54 q 908 9 964 19 q 787 0 852 0 q 668 8 723 0 q 573 32 613 16 q 511 74 533 48 q 488 135 488 99 q 498 156 488 149 q 519 168 508 163 q 541 178 531 173 q 551 195 551 184 q 546 211 551 202 q 532 232 542 219 l 462 304 l 383 233 q 366 213 370 222 q 361 199 361 205 q 371 182 361 189 q 392 171 380 176 q 413 157 404 165 q 423 135 423 149 q 411 74 423 99 q 370 32 398 48 q 297 8 342 16 q 189 0 252 0 q 120 9 152 0 q 63 37 87 19 q 25 79 39 54 q 11 135 11 104 q 17 163 11 153 q 36 177 24 172 q 63 184 47 182 q 98 192 79 186 q 139 207 117 197 q 182 236 160 216 l 369 401 z "},"y":{"ha":1120,"x_min":-16,"x_max":1137,"o":"m 675 433 l 774 646 q 781 663 780 657 q 781 674 781 668 l 781 684 q 767 701 781 692 q 737 720 753 710 q 706 740 720 729 q 692 764 692 751 q 719 822 692 800 q 785 858 745 845 q 870 874 825 870 q 954 879 916 879 q 1089 852 1042 879 q 1137 764 1137 825 q 1128 740 1137 748 q 1104 726 1119 731 q 1070 716 1089 720 q 1034 703 1052 711 q 999 682 1015 695 q 972 646 983 669 l 634 -86 q 554 -233 594 -173 q 473 -331 513 -293 q 393 -385 433 -368 q 315 -401 353 -401 q 226 -380 267 -401 q 154 -325 184 -359 q 106 -248 123 -290 q 88 -164 88 -206 q 100 -74 88 -111 q 131 -16 112 -38 q 174 16 150 6 q 223 25 198 25 q 275 11 254 25 q 309 -25 296 -4 q 331 -72 323 -47 q 347 -119 340 -98 q 359 -155 353 -140 q 374 -170 366 -170 q 390 -160 380 -170 q 411 -130 399 -151 q 439 -74 423 -109 q 477 11 456 -39 l 134 646 q 105 683 121 669 q 72 703 89 696 q 40 714 56 710 q 12 723 24 718 q -8 736 -1 728 q -16 764 -16 745 q -3 807 -16 789 q 33 838 10 825 q 85 859 55 851 q 151 871 116 867 q 224 877 186 876 q 300 879 262 879 q 435 874 377 879 q 531 857 492 869 q 588 822 569 844 q 606 764 606 799 q 594 741 606 751 q 568 724 582 732 q 541 708 553 715 q 529 690 529 700 q 530 684 529 688 q 538 668 534 676 q 549 646 542 661 l 675 433 z "},"z":{"ha":920,"x_min":28,"x_max":895,"o":"m 399 743 q 400 749 400 747 q 396 756 400 754 q 388 759 392 759 q 385 758 385 759 l 256 758 l 235 669 q 213 619 226 640 q 185 585 201 598 q 153 567 170 572 q 119 561 136 561 q 83 568 100 561 q 54 587 66 574 q 35 616 42 599 q 28 656 28 634 q 38 728 28 689 q 67 801 47 767 q 117 857 87 834 q 187 879 146 879 l 794 879 q 838 867 825 879 q 850 836 850 854 q 845 806 850 822 q 832 775 840 791 l 536 180 q 527 150 527 162 q 531 136 527 141 q 543 129 536 131 q 559 125 550 126 q 576 125 568 125 q 645 139 622 125 q 680 176 668 154 q 697 223 691 198 q 712 271 703 249 q 742 308 722 293 q 803 322 762 322 q 868 297 842 322 q 895 227 895 271 q 885 154 895 194 q 856 80 876 115 q 806 23 836 46 q 736 0 777 0 l 113 0 q 92 2 102 0 q 74 8 81 3 q 61 22 66 14 q 56 43 56 30 q 61 73 56 56 q 77 113 66 90 l 399 743 z "},"{":{"ha":779,"x_min":2,"x_max":809,"o":"m 2 696 q 65 708 40 696 q 105 744 90 721 q 126 802 120 768 q 132 880 132 836 l 132 939 q 164 1111 132 1034 q 251 1240 197 1187 q 376 1321 305 1293 q 526 1349 448 1349 q 669 1325 597 1349 q 809 1250 741 1301 l 780 1169 q 744 1176 762 1173 q 710 1181 728 1179 q 674 1183 692 1183 q 611 1171 636 1183 q 571 1135 586 1158 q 550 1077 556 1112 q 544 999 544 1042 l 544 940 q 535 849 544 889 q 510 777 526 808 q 476 723 495 746 q 437 684 457 700 q 330 631 389 646 q 437 577 389 615 q 476 538 457 561 q 510 483 495 515 q 535 412 526 452 q 544 321 544 372 l 544 262 q 550 184 544 218 q 571 126 556 150 q 611 91 586 103 q 674 78 636 78 q 710 80 692 78 q 744 85 728 82 q 780 92 762 87 l 809 11 q 669 -63 741 -39 q 526 -87 597 -87 q 376 -59 448 -87 q 251 22 305 -31 q 164 151 197 75 q 132 322 132 227 l 132 380 q 126 458 132 424 q 105 517 120 493 q 65 553 90 541 q 2 566 40 566 l 2 696 z "},"|":{"ha":509,"x_min":104,"x_max":404,"o":"m 254 -204 q 180 -190 209 -204 q 134 -153 151 -175 q 111 -105 117 -131 q 104 -57 104 -79 l 104 1133 q 111 1184 104 1158 q 134 1231 117 1210 q 180 1266 151 1253 q 254 1280 209 1280 q 329 1266 300 1280 q 374 1231 357 1253 q 398 1184 391 1210 q 404 1133 404 1158 l 404 -57 q 398 -105 404 -79 q 374 -153 391 -131 q 329 -190 357 -175 q 254 -204 300 -204 z "},"}":{"ha":778,"x_min":-30,"x_max":777,"o":"m 777 566 q 714 553 739 566 q 673 517 688 541 q 652 458 659 493 q 646 380 646 424 l 646 322 q 614 151 646 227 q 528 22 582 75 q 403 -59 474 -31 q 254 -87 332 -87 q 110 -63 182 -87 q -30 11 38 -39 l -1 92 q 35 85 17 87 q 68 80 50 82 q 104 78 87 78 q 168 91 142 78 q 208 126 193 103 q 229 184 223 150 q 235 262 235 218 l 235 321 q 244 412 235 372 q 269 483 254 452 q 302 538 283 515 q 342 577 321 561 q 449 631 389 615 q 342 684 389 646 q 302 723 321 700 q 269 777 283 746 q 244 849 254 808 q 235 940 235 889 l 235 999 q 229 1077 235 1042 q 208 1135 223 1112 q 168 1171 193 1158 q 104 1183 142 1183 q 68 1181 87 1183 q 35 1176 50 1179 q -1 1169 17 1173 l -30 1250 q 110 1325 38 1301 q 254 1349 182 1349 q 403 1321 332 1349 q 528 1240 474 1293 q 614 1111 582 1187 q 646 939 646 1034 l 646 880 q 652 802 646 836 q 673 744 659 768 q 714 708 688 721 q 777 696 739 696 l 777 566 z "},"~":{"ha":957,"x_min":18,"x_max":943,"o":"m 943 804 q 888 660 920 717 q 819 570 857 603 q 738 523 781 536 q 648 510 694 510 q 541 522 596 510 q 431 547 486 533 q 320 573 376 562 q 212 585 265 585 q 169 581 189 585 q 132 567 148 576 q 107 541 117 557 q 98 503 98 526 q 101 500 98 500 l 18 583 q 80 728 47 671 q 149 818 113 785 q 224 865 185 852 q 307 878 264 878 q 408 866 355 878 q 519 839 461 853 q 639 811 576 824 q 769 799 702 799 q 806 803 789 799 q 836 818 823 808 q 854 844 848 828 q 861 884 861 861 q 860 889 861 888 l 943 804 z "},"":{"ha":339,"x_min":0,"x_max":0,"o":""},"":{"ha":556,"x_min":53,"x_max":495,"o":"m 53 154 q 65 213 53 188 q 95 257 77 239 q 138 289 114 276 q 187 309 162 301 q 234 319 212 316 q 274 322 257 322 q 315 319 292 322 q 363 309 338 316 q 411 289 387 301 q 453 257 435 276 q 483 213 472 239 q 494 154 494 188 q 483 95 494 121 q 453 51 472 69 q 411 20 435 33 q 363 0 387 7 q 315 -11 338 -7 q 274 -14 292 -14 q 234 -11 257 -14 q 187 0 212 -7 q 138 20 162 7 q 95 51 114 33 q 65 95 77 69 q 53 154 53 120 m 486 867 q 456 706 469 777 q 433 582 444 635 q 411 491 422 528 q 381 430 399 453 q 338 395 363 406 q 275 385 313 385 q 219 395 241 385 q 181 430 197 406 q 154 491 165 454 q 131 583 142 529 q 106 708 119 637 q 72 869 92 779 q 64 912 66 891 q 61 953 61 933 q 72 1022 61 990 q 108 1078 83 1055 q 174 1115 133 1101 q 275 1128 215 1128 q 380 1114 338 1128 q 448 1077 422 1101 q 484 1020 473 1053 q 495 949 495 987 q 493 909 495 929 q 486 867 490 888 z "},"":{"ha":916,"x_min":31,"x_max":880,"o":"m 511 -196 q 483 -190 494 -195 q 465 -176 471 -184 q 455 -158 458 -168 q 452 -138 452 -148 q 452 -133 452 -136 q 453 -127 452 -130 q 456 -92 454 -122 q 463 -13 459 -62 q 331 9 391 -10 q 223 60 271 28 q 139 135 175 92 q 79 227 103 178 q 43 331 55 277 q 31 441 31 386 q 44 556 31 499 q 83 665 57 613 q 147 760 109 716 q 237 837 186 804 q 353 887 289 869 q 495 905 418 905 q 517 905 507 905 q 538 904 528 905 l 551 1053 q 553 1072 551 1062 q 563 1090 556 1082 q 580 1103 570 1098 q 606 1109 591 1109 q 613 1109 610 1109 q 620 1108 616 1109 q 649 1102 638 1107 q 667 1088 661 1097 q 676 1069 674 1080 q 679 1049 679 1059 l 679 1042 q 675 993 678 1036 q 666 882 671 950 q 760 838 720 865 q 824 777 799 811 q 861 702 849 742 q 873 619 873 662 q 865 577 873 595 q 845 546 858 559 q 815 526 833 533 q 777 519 798 519 q 741 526 760 519 q 707 545 723 532 q 677 581 690 559 q 658 633 665 602 q 648 661 654 647 l 612 227 q 646 225 629 225 q 697 230 671 225 q 747 242 723 235 q 791 258 771 250 q 825 273 812 266 q 846 279 836 279 q 871 266 861 279 q 880 237 880 253 q 876 216 880 227 q 834 141 861 176 q 772 77 808 106 q 692 28 736 49 q 594 -3 647 7 l 593 -16 q 588 -75 590 -49 q 585 -117 587 -98 q 584 -139 584 -137 q 579 -159 583 -149 q 569 -177 576 -169 q 550 -191 562 -186 q 524 -197 539 -197 q 517 -197 520 -197 q 511 -196 515 -197 m 439 545 q 451 402 439 463 q 489 302 463 342 l 524 721 q 460 664 480 709 q 439 545 439 618 z "},"":{"ha":1135,"x_min":35,"x_max":1099,"o":"m 616 244 q 624 194 616 213 q 644 164 632 175 q 670 151 656 154 q 697 147 684 147 q 707 147 698 147 q 731 148 716 147 q 765 150 745 149 q 806 153 784 151 l 833 271 q 861 336 845 309 q 897 379 878 363 q 938 404 916 396 q 981 411 959 411 q 1027 402 1006 411 q 1065 378 1049 394 q 1090 339 1081 362 q 1099 288 1099 316 q 1093 227 1099 260 q 1076 163 1087 195 q 1048 101 1065 131 q 1008 50 1031 72 q 957 14 985 27 q 893 0 928 0 l 386 0 q 244 9 306 0 q 139 38 182 18 q 75 87 97 57 q 53 160 53 118 q 61 183 53 176 q 81 194 69 191 q 107 201 93 198 q 133 213 121 205 q 153 238 144 222 q 161 285 161 254 l 161 593 q 177 755 161 684 q 225 881 194 827 q 299 973 256 935 q 397 1035 343 1011 q 512 1069 450 1059 q 643 1080 574 1080 q 822 1058 743 1080 q 955 998 901 1035 q 1038 912 1009 960 q 1067 812 1067 863 q 1055 760 1067 782 q 1025 723 1044 737 q 982 701 1006 708 q 933 694 958 694 q 885 700 909 694 q 840 717 860 706 q 807 744 820 728 q 794 782 794 760 q 790 855 794 825 q 775 903 785 885 q 749 929 766 922 q 709 937 733 937 q 666 928 684 937 q 637 900 648 920 q 621 848 626 880 q 616 771 616 817 l 616 244 m 35 581 q 43 626 35 608 q 66 654 52 644 q 95 668 79 664 q 125 672 111 672 l 775 672 q 805 668 789 672 q 834 654 821 664 q 856 626 847 644 q 864 581 864 608 q 856 535 864 553 q 834 507 847 517 q 805 493 821 497 q 775 489 789 489 l 125 489 q 95 493 111 489 q 66 507 79 497 q 43 535 52 517 q 35 581 35 553 z "},"":{"ha":875,"x_min":58,"x_max":819,"o":"m 422 258 q 298 275 353 258 l 209 149 q 183 124 199 136 q 144 113 167 113 q 117 118 131 113 q 108 122 113 120 q 97 129 102 125 q 68 157 76 142 q 60 186 60 172 q 61 198 60 193 q 64 210 62 204 q 70 222 67 217 q 77 233 73 228 l 163 354 q 84 471 110 406 q 58 604 58 536 q 82 731 58 670 q 158 839 106 792 l 79 953 l 64 978 q 61 999 61 988 q 74 1037 61 1017 q 121 1069 87 1057 q 149 1074 135 1074 q 185 1063 170 1074 q 210 1039 201 1053 q 217 1029 212 1036 q 230 1007 221 1021 q 255 970 239 992 q 294 917 270 948 q 370 934 330 928 q 456 940 410 940 q 587 920 528 940 l 669 1039 q 694 1063 678 1053 q 731 1074 710 1074 q 758 1069 744 1074 q 805 1037 792 1057 q 819 1000 819 1018 q 814 978 819 987 l 801 953 l 720 836 q 788 730 765 789 q 810 608 810 671 q 785 477 810 541 q 709 364 760 413 q 750 308 734 331 q 778 269 767 284 q 794 244 788 253 q 802 233 800 236 q 809 222 806 228 q 814 210 812 217 q 819 186 819 199 q 811 156 819 172 q 783 129 803 141 q 772 122 777 125 q 762 118 766 120 q 735 113 749 113 q 696 124 713 113 q 670 149 680 135 l 576 282 q 422 258 509 258 m 444 386 q 472 396 460 386 q 491 425 484 406 q 501 471 498 444 q 504 530 504 498 q 504 591 504 559 q 501 655 503 623 q 494 715 498 686 q 481 765 490 743 q 460 800 473 787 q 429 812 447 812 q 398 802 411 812 q 378 774 386 792 q 367 731 370 756 q 363 676 363 706 q 365 616 363 648 q 369 551 366 583 q 377 489 372 519 q 392 436 382 459 q 414 399 401 413 q 444 386 427 386 z "},"":{"ha":1227,"x_min":26,"x_max":1202,"o":"m 176 529 q 181 560 176 548 q 196 578 187 572 q 215 588 205 585 q 235 590 226 590 l 334 590 l 189 787 q 151 828 170 813 q 113 851 132 843 q 79 865 95 860 q 51 876 63 870 q 33 890 39 882 q 26 916 26 899 q 113 1037 26 1000 q 366 1075 200 1075 q 508 1066 446 1075 q 613 1037 570 1057 q 677 988 655 1018 q 699 916 699 958 q 687 888 699 897 q 660 873 675 879 q 633 860 646 867 q 621 840 621 854 q 627 819 621 831 q 645 790 632 807 l 717 681 q 733 667 726 671 q 747 663 741 663 q 766 670 758 663 q 783 688 774 677 l 860 790 q 875 819 871 807 q 880 839 880 830 q 873 856 880 850 q 858 866 867 862 q 839 874 849 871 q 819 882 828 877 q 804 895 810 887 q 798 916 798 903 q 810 977 798 948 q 849 1027 823 1006 q 912 1062 874 1049 q 999 1075 949 1075 q 1087 1062 1049 1075 q 1151 1027 1125 1049 q 1189 977 1176 1006 q 1202 916 1202 948 q 1194 891 1202 899 q 1172 877 1185 882 q 1139 867 1158 871 q 1101 853 1121 862 q 1060 829 1080 844 q 1020 787 1039 814 l 879 590 l 991 590 q 1011 588 1001 590 q 1030 578 1022 585 q 1045 560 1039 572 q 1050 529 1050 548 q 1045 499 1050 511 q 1030 481 1039 488 q 1011 472 1022 475 q 991 469 1001 469 l 836 469 l 836 401 l 991 401 q 1011 399 1001 401 q 1030 389 1022 396 q 1045 371 1039 382 q 1050 340 1050 359 q 1045 311 1050 322 q 1030 292 1039 299 q 1011 283 1022 286 q 991 281 1001 281 l 836 281 q 845 237 836 252 q 866 213 854 221 q 891 201 878 205 q 917 194 905 198 q 937 183 929 191 q 945 160 945 176 q 923 87 945 118 q 858 38 901 57 q 751 9 814 18 q 605 0 688 0 q 462 9 524 0 q 357 38 399 18 q 292 87 314 57 q 270 160 270 118 q 278 183 270 176 q 298 194 286 191 q 324 201 310 198 q 350 213 338 205 q 371 236 362 220 q 380 281 379 252 l 235 281 q 215 283 226 281 q 196 292 205 286 q 181 311 187 299 q 176 340 176 322 q 181 371 176 359 q 196 389 187 382 q 215 399 205 396 q 235 401 226 401 l 380 401 l 380 469 l 235 469 q 215 472 226 469 q 196 481 205 475 q 181 499 187 488 q 176 529 176 511 z "},"":{"ha":498,"x_min":99,"x_max":399,"o":"m 249 -204 q 174 -190 203 -204 q 129 -153 145 -175 q 105 -105 112 -131 q 99 -57 99 -79 l 99 268 q 105 318 99 292 q 129 366 112 345 q 174 401 145 387 q 249 415 203 415 q 323 401 294 415 q 369 366 352 387 q 392 318 386 345 q 399 268 399 292 l 399 -57 q 392 -105 399 -79 q 369 -153 386 -131 q 323 -190 352 -175 q 249 -204 294 -204 m 249 663 q 174 677 203 663 q 129 714 145 692 q 105 762 112 736 q 99 810 99 787 l 99 1135 q 105 1185 99 1159 q 129 1233 112 1211 q 174 1268 145 1254 q 249 1282 203 1282 q 323 1268 294 1282 q 369 1233 352 1254 q 392 1185 386 1211 q 399 1135 399 1159 l 399 810 q 392 762 399 787 q 369 714 386 736 q 323 677 352 692 q 249 663 294 663 z "},"":{"ha":736,"x_min":50,"x_max":690,"o":"m 460 940 q 437 962 460 951 q 368 972 414 972 q 319 968 337 972 q 291 957 300 964 q 279 940 281 949 q 276 922 276 931 q 294 896 276 907 q 341 874 312 884 q 407 853 370 864 q 483 828 444 842 q 559 793 522 813 q 626 746 597 774 q 672 679 654 718 q 690 590 690 641 q 681 526 690 555 q 654 474 671 497 q 613 432 637 450 q 561 401 589 414 q 611 367 587 386 q 652 322 635 347 q 680 267 670 298 q 690 199 690 237 q 663 96 690 138 q 591 27 635 54 q 489 -13 546 0 q 372 -25 431 -25 q 254 -13 312 -25 q 151 20 196 -1 q 78 72 105 41 q 50 140 50 102 q 57 179 50 163 q 75 207 64 196 q 102 224 87 218 q 133 229 117 229 q 185 219 168 229 q 214 194 203 210 q 231 162 224 179 q 249 129 237 144 q 281 104 260 114 q 339 94 301 94 q 391 100 372 94 q 420 113 410 105 q 434 131 431 121 q 437 150 437 141 q 421 167 437 160 q 379 181 405 174 q 319 196 353 188 q 250 218 285 205 q 181 250 215 231 q 121 298 147 269 q 79 366 95 326 q 62 458 62 405 q 93 575 62 530 q 175 644 124 619 q 131 679 151 659 q 95 723 111 698 q 71 780 80 748 q 62 850 62 811 q 87 958 62 914 q 155 1029 113 1002 q 255 1068 198 1057 q 374 1080 311 1080 q 495 1067 444 1080 q 578 1033 546 1054 q 626 986 611 1012 q 642 935 642 960 q 634 901 642 917 q 614 874 627 886 q 580 855 600 862 q 534 848 560 848 q 488 851 507 848 q 458 860 469 854 q 443 873 448 865 q 439 890 439 881 q 442 905 439 900 q 449 915 446 910 q 456 924 453 919 q 460 940 460 930 m 437 524 q 432 534 437 528 q 419 545 427 539 q 401 555 411 550 q 380 565 391 560 q 322 586 354 576 q 299 568 309 577 q 283 550 290 559 q 276 532 276 541 q 290 512 276 523 q 322 491 304 500 q 368 468 342 479 q 403 484 387 475 q 427 501 416 491 q 437 524 437 511 z "},"":{"ha":1025,"x_min":27,"x_max":998,"o":"m 27 210 q 48 293 27 260 q 98 344 68 326 q 161 370 128 363 q 220 378 195 378 q 280 370 247 378 q 343 344 314 363 q 393 293 373 326 q 413 210 413 260 q 393 127 413 159 q 343 75 373 94 q 280 49 314 56 q 220 41 247 41 q 161 49 195 41 q 98 75 128 56 q 48 127 68 94 q 27 210 27 159 m 612 210 q 632 293 612 260 q 683 344 653 326 q 747 370 713 363 q 805 378 780 378 q 865 370 832 378 q 928 344 899 363 q 978 293 958 326 q 998 210 998 260 q 978 127 998 159 q 928 75 958 94 q 865 49 899 56 q 805 41 832 41 q 747 49 780 41 q 683 75 713 56 q 632 127 653 94 q 612 210 612 159 z "},"":{"ha":1354,"x_min":34,"x_max":1320,"o":"m 686 184 q 507 218 585 184 q 377 306 430 251 q 298 434 325 361 q 271 586 271 507 q 294 758 271 677 q 372 899 318 839 q 515 995 427 960 q 733 1029 604 1029 q 842 1014 790 1029 q 932 970 893 999 q 994 901 971 942 q 1017 810 1017 861 q 992 744 1017 768 q 931 721 968 721 q 899 726 915 721 q 869 744 883 732 q 843 775 854 755 q 825 822 831 794 q 793 883 815 863 q 745 904 771 904 q 708 892 726 904 q 674 857 689 881 q 650 794 659 832 q 641 705 641 757 q 649 587 641 637 q 670 501 656 536 q 702 442 684 465 q 742 406 721 419 q 786 388 763 393 q 831 383 809 383 q 877 389 854 383 q 917 402 899 394 q 948 420 935 410 q 968 437 962 429 q 1001 457 984 457 q 1025 442 1015 457 q 1036 401 1036 427 q 1010 321 1036 360 q 939 252 985 282 q 828 203 892 221 q 686 184 764 184 m 34 604 q 57 770 34 691 q 123 918 81 850 q 225 1043 165 987 q 356 1138 284 1099 q 509 1199 427 1177 q 677 1221 590 1221 q 846 1199 764 1221 q 999 1138 928 1177 q 1130 1043 1071 1099 q 1231 918 1189 987 q 1297 770 1274 850 q 1320 604 1320 691 q 1297 438 1320 517 q 1231 290 1274 358 q 1130 165 1189 221 q 999 70 1071 110 q 846 9 928 31 q 677 -12 764 -12 q 509 9 591 -12 q 356 70 427 31 q 225 165 284 110 q 123 290 165 221 q 57 437 81 358 q 34 604 34 517 m 197 604 q 214 476 197 538 q 262 362 231 415 q 337 264 294 309 q 435 189 381 220 q 550 141 488 158 q 677 123 611 123 q 805 141 744 123 q 920 189 867 158 q 1017 264 973 220 q 1092 362 1061 309 q 1140 476 1123 415 q 1158 604 1158 538 q 1140 732 1158 671 q 1092 847 1123 793 q 1017 944 1061 900 q 920 1019 973 987 q 805 1067 867 1050 q 677 1084 744 1084 q 550 1067 611 1084 q 435 1019 488 1050 q 337 944 381 987 q 262 847 294 900 q 214 732 231 793 q 197 604 197 671 z "},"":{"ha":1085,"x_min":36,"x_max":1061,"o":"m 495 335 q 531 342 517 335 q 553 362 545 349 q 563 395 560 376 q 565 439 565 414 q 564 492 565 460 q 563 556 564 525 q 561 632 562 593 q 543 634 551 633 q 526 635 534 635 q 468 622 492 635 q 431 583 445 608 q 411 525 416 558 q 405 452 405 491 q 408 407 405 428 q 420 369 410 385 q 447 344 429 353 q 495 335 465 335 m 822 196 q 753 200 787 196 q 688 215 719 203 q 631 248 657 227 q 587 306 606 270 q 544 250 574 274 q 475 211 513 227 q 394 187 437 195 q 313 179 352 179 q 193 195 245 179 q 106 242 142 212 q 54 314 71 272 q 36 408 36 356 q 57 525 36 470 q 127 622 77 581 q 260 687 177 663 q 469 711 344 711 l 562 711 q 557 836 562 787 q 541 915 552 886 q 514 956 530 944 q 475 967 498 967 q 432 951 449 967 q 404 906 414 936 q 389 835 393 877 q 385 741 385 793 q 323 742 355 741 q 259 747 291 743 q 200 759 228 751 q 150 782 172 768 q 115 819 128 797 q 102 873 102 842 q 126 958 102 918 q 198 1028 149 998 q 321 1077 246 1059 q 498 1095 395 1095 q 705 1070 618 1095 q 848 997 792 1046 q 931 874 904 948 q 958 700 958 800 l 958 460 q 965 414 958 431 q 984 390 973 398 q 1009 378 996 381 q 1034 371 1023 374 q 1053 360 1045 367 q 1061 339 1061 354 q 1000 234 1061 271 q 822 196 939 196 z "},"":{"ha":1318,"x_min":18,"x_max":1275,"o":"m 18 433 q 29 511 18 478 q 63 569 39 543 q 125 618 87 595 q 220 664 163 640 q 351 716 276 688 q 524 782 427 745 q 554 790 541 787 q 579 793 567 793 q 620 785 602 793 q 650 763 638 777 q 667 731 661 749 q 673 696 673 714 q 661 652 673 672 q 622 610 648 631 q 555 566 595 589 q 461 511 515 542 l 322 433 l 461 355 q 555 301 515 325 q 622 256 595 277 q 661 215 648 235 q 673 171 673 195 q 667 134 673 152 q 650 103 661 117 q 620 80 638 89 q 579 72 602 72 q 554 75 567 72 q 524 85 541 79 q 351 150 427 122 q 220 202 276 178 q 125 249 163 227 q 63 297 87 271 q 29 356 39 323 q 18 433 18 389 m 620 433 q 630 511 620 478 q 665 569 641 543 q 727 618 688 595 q 821 664 765 640 q 953 716 878 688 q 1125 782 1028 745 q 1155 790 1142 787 q 1181 793 1168 793 q 1222 785 1204 793 q 1251 763 1240 777 q 1269 731 1263 749 q 1275 696 1275 714 q 1262 652 1275 672 q 1223 610 1249 631 q 1157 566 1197 589 q 1063 511 1117 542 l 924 433 l 1063 355 q 1157 301 1117 325 q 1223 256 1197 277 q 1262 215 1249 235 q 1275 171 1275 195 q 1269 134 1275 152 q 1251 103 1263 117 q 1222 80 1240 89 q 1181 72 1204 72 q 1155 75 1168 72 q 1125 85 1142 79 q 953 150 1028 122 q 821 202 878 178 q 727 249 765 227 q 665 297 688 271 q 630 356 641 323 q 620 433 620 389 z "},"":{"ha":789,"x_min":35,"x_max":726,"o":"m 35 466 q 42 503 35 489 q 62 523 50 516 q 94 531 75 529 q 135 532 113 532 l 650 532 q 692 526 677 532 q 715 506 707 519 q 724 472 722 492 q 726 426 726 452 l 726 258 q 725 217 726 235 q 718 185 724 198 q 698 165 711 172 q 659 158 684 158 q 622 165 635 158 q 603 185 609 172 q 594 217 596 198 q 593 258 593 235 l 593 399 l 135 399 q 94 400 113 399 q 62 408 75 401 q 42 427 50 414 q 35 466 35 441 z "},"":{"ha":545,"x_min":-64,"x_max":626,"o":"m -64 318 q -57 355 -64 341 q -37 375 -50 368 q -6 383 -24 381 q 35 385 13 385 l 519 385 q 564 384 544 385 q 597 376 583 382 q 618 357 611 370 q 626 318 626 343 q 618 279 626 293 q 597 260 611 266 q 564 253 583 254 q 519 252 544 252 l 35 252 q -6 253 13 252 q -37 260 -24 254 q -57 279 -50 266 q -64 318 -64 293 z "},"":{"ha":1354,"x_min":34,"x_max":1320,"o":"m 34 604 q 57 770 34 691 q 123 918 81 850 q 225 1043 165 987 q 356 1138 284 1099 q 509 1199 427 1177 q 677 1221 590 1221 q 846 1199 764 1221 q 999 1138 928 1177 q 1130 1043 1071 1099 q 1231 918 1189 987 q 1297 770 1274 850 q 1320 604 1320 691 q 1297 438 1320 517 q 1231 290 1274 358 q 1130 165 1189 221 q 999 70 1071 110 q 846 9 928 31 q 677 -12 764 -12 q 509 9 591 -12 q 356 70 427 31 q 225 165 284 110 q 123 290 165 221 q 57 437 81 358 q 34 604 34 517 m 197 604 q 214 476 197 538 q 262 362 231 415 q 337 264 294 309 q 435 189 381 220 q 550 141 488 158 q 677 123 611 123 q 805 141 744 123 q 920 189 867 158 q 1017 264 973 220 q 1092 362 1061 309 q 1140 476 1123 415 q 1158 604 1158 538 q 1140 732 1158 671 q 1092 847 1123 793 q 1017 944 1061 900 q 920 1019 973 987 q 805 1067 867 1050 q 677 1084 744 1084 q 550 1067 611 1084 q 435 1019 488 1050 q 337 944 381 987 q 262 847 294 900 q 214 732 231 793 q 197 604 197 671 m 619 472 q 629 441 619 450 q 650 430 638 433 q 671 422 661 426 q 680 407 680 419 q 631 339 680 360 q 490 318 583 318 q 353 339 401 318 q 305 407 305 360 q 315 424 305 420 q 336 430 324 427 q 357 442 347 433 q 366 476 366 451 l 366 761 q 362 787 366 778 q 351 801 357 796 q 336 807 344 806 q 321 811 328 809 q 310 817 314 813 q 305 831 305 821 q 355 899 305 878 q 495 920 405 920 l 699 920 q 849 905 789 920 q 945 867 909 891 q 997 812 981 844 q 1012 747 1012 781 q 1007 700 1012 723 q 990 656 1002 677 q 955 617 977 635 q 898 586 932 600 l 983 460 q 1009 431 994 442 q 1038 412 1025 419 q 1070 400 1054 405 q 1059 359 1070 376 q 1023 332 1048 342 q 960 317 999 321 q 865 313 921 313 q 800 324 826 313 q 757 355 774 336 q 727 397 739 374 q 705 444 715 420 l 696 465 l 665 555 l 661 555 q 639 555 648 555 q 619 557 631 555 l 619 472 m 671 614 q 722 635 705 614 q 739 697 739 657 l 739 705 q 737 755 739 730 q 729 800 736 780 q 708 833 722 821 q 667 846 694 846 q 643 840 652 846 q 628 826 633 835 q 622 806 623 817 q 621 782 621 794 l 621 618 q 626 616 621 616 q 641 614 631 614 q 671 614 651 614 z "},"":{"ha":848,"x_min":28,"x_max":820,"o":"m 28 192 q 42 266 28 237 q 79 312 57 295 q 127 335 102 329 q 176 342 153 342 l 673 342 q 723 335 697 342 q 771 312 749 329 q 806 266 792 295 q 820 192 820 237 q 806 117 820 146 q 771 71 792 88 q 723 48 749 54 q 673 41 697 41 l 176 41 q 127 48 153 41 q 79 71 102 54 q 42 117 57 88 q 28 192 28 146 z "},"":{"ha":675,"x_min":26,"x_max":647,"o":"m 212 808 q 225 748 212 772 q 257 711 239 725 q 297 693 276 698 q 335 688 319 688 q 372 693 351 688 q 412 711 393 698 q 443 748 431 725 q 456 808 456 772 q 443 869 456 845 q 412 906 431 892 q 372 925 393 920 q 335 930 351 930 q 297 925 319 930 q 257 906 276 920 q 225 869 239 892 q 212 808 212 845 m 26 810 q 42 905 26 864 q 83 976 58 946 q 141 1026 109 1006 q 209 1058 174 1046 q 276 1075 243 1070 q 336 1080 309 1080 q 400 1075 366 1080 q 469 1058 434 1070 q 535 1026 503 1046 q 592 976 568 1006 q 632 905 617 946 q 647 810 647 864 q 632 715 647 756 q 592 644 617 674 q 535 594 568 614 q 469 563 503 574 q 400 546 434 551 q 336 541 366 541 q 276 546 310 541 q 209 563 243 551 q 141 594 174 574 q 83 644 109 614 q 42 715 58 674 q 26 810 26 756 z "},"":{"ha":911,"x_min":35,"x_max":882,"o":"m 91 145 q 98 182 91 168 q 118 202 105 195 q 150 210 131 208 q 191 212 168 212 l 675 212 q 719 211 699 212 q 752 203 739 210 q 774 184 766 197 q 781 145 781 170 q 774 106 781 120 q 752 87 766 93 q 719 80 739 81 q 675 79 699 79 l 191 79 q 150 80 168 79 q 118 87 131 81 q 98 106 105 93 q 91 145 91 120 m 458 284 q 404 295 425 284 q 371 321 383 305 q 354 355 359 337 q 349 390 349 374 l 349 627 l 121 627 q 91 629 106 627 q 63 640 75 631 q 43 663 51 648 q 35 707 35 679 q 43 751 35 734 q 63 775 51 767 q 91 785 75 783 q 121 787 106 787 l 349 787 l 349 1025 q 354 1061 349 1042 q 371 1096 359 1080 q 404 1121 383 1111 q 458 1131 425 1131 q 511 1121 490 1131 q 544 1096 532 1111 q 560 1061 555 1080 q 565 1025 565 1042 l 565 787 l 797 787 q 828 785 812 787 q 855 775 843 783 q 874 751 867 767 q 882 707 882 734 q 874 663 882 679 q 855 640 867 648 q 828 629 843 631 q 797 627 812 627 l 565 627 l 565 390 q 560 355 565 374 q 544 321 555 337 q 511 295 532 305 q 458 284 490 284 z "},"":{"ha":767,"x_min":11,"x_max":732,"o":"m 54 110 q 120 195 84 150 q 192 288 156 241 q 262 384 229 336 q 322 476 296 431 q 363 562 348 521 q 379 635 379 602 q 371 672 379 656 q 347 701 363 689 q 303 719 330 712 q 237 725 276 725 q 146 713 187 725 q 71 684 104 701 q 50 677 62 677 q 35 683 42 677 q 22 697 28 689 q 14 715 17 705 q 11 733 11 725 q 13 744 11 739 q 18 751 15 748 q 91 814 50 787 q 180 860 132 842 q 279 889 227 879 q 383 899 331 899 q 514 879 456 899 q 612 825 572 859 q 673 744 652 790 q 694 644 694 697 q 677 531 694 588 q 622 418 661 475 q 520 307 583 362 q 366 199 457 252 q 492 205 443 199 q 570 222 541 212 q 614 244 600 232 q 635 266 628 256 q 646 282 642 275 q 659 289 650 289 q 711 269 690 289 q 732 214 732 248 q 726 151 732 187 q 703 80 720 114 q 657 23 686 47 q 581 0 627 0 l 118 0 q 81 5 96 0 q 57 20 66 11 q 44 40 48 29 q 40 64 40 52 q 44 89 40 77 q 54 110 48 101 z "},"":{"ha":864,"x_min":4,"x_max":836,"o":"m 444 -216 q 329 -206 387 -216 q 219 -175 272 -195 q 122 -125 167 -155 q 43 -57 77 -96 q 37 -48 39 -53 q 35 -36 35 -43 q 38 -16 35 -26 q 47 5 41 -5 q 61 20 54 14 q 78 26 69 26 q 100 21 91 26 q 142 2 119 11 q 191 -13 165 -7 q 243 -23 216 -20 q 297 -26 271 -26 q 371 -13 339 -26 q 423 24 402 1 q 455 75 444 47 q 465 132 465 104 q 456 181 465 157 q 429 225 447 205 q 386 256 412 244 q 326 268 360 268 q 294 262 311 268 q 262 256 277 256 q 241 262 251 256 q 223 279 231 269 q 211 301 216 289 q 207 323 207 313 q 214 348 207 337 q 236 370 221 358 q 295 418 271 393 q 335 468 319 443 q 358 519 351 494 q 365 568 365 545 q 355 620 365 596 q 327 662 345 644 q 284 690 309 680 q 227 700 258 700 q 148 686 189 700 q 65 639 108 671 q 52 634 58 635 q 40 633 45 633 q 12 647 19 633 q 4 677 4 661 q 5 691 4 684 q 7 701 5 697 q 63 787 24 750 q 151 848 101 823 q 260 886 201 873 q 379 899 319 899 q 504 884 444 899 q 611 840 564 869 q 686 766 658 810 q 714 661 714 721 q 707 597 714 629 q 681 536 700 566 q 630 478 663 506 q 549 428 598 451 q 676 376 622 409 q 766 300 730 342 q 819 209 802 258 q 836 110 836 159 q 810 -10 836 49 q 735 -114 785 -68 q 612 -188 685 -160 q 444 -216 538 -216 z "},"":{"ha":546,"x_min":12,"x_max":536,"o":"m 12 107 q 16 138 12 121 q 31 177 20 155 q 58 231 41 200 q 101 302 75 261 q 163 408 134 354 q 225 505 193 461 q 292 576 256 549 q 374 604 328 604 q 440 590 411 604 q 491 554 470 576 q 524 505 513 532 q 536 449 536 477 q 523 388 536 418 q 487 331 509 359 q 436 276 465 302 q 376 226 407 250 q 314 179 345 201 q 256 138 283 157 q 144 64 188 86 q 77 41 101 41 q 53 47 65 41 q 32 63 41 54 q 18 85 23 73 q 12 107 12 96 z "},"":{"ha":1355,"x_min":46,"x_max":1320,"o":"m 806 618 q 799 661 806 646 q 780 685 791 677 q 756 695 769 692 q 732 702 743 699 q 713 712 721 705 q 706 733 706 718 q 786 845 706 810 q 1017 879 866 879 q 1103 869 1068 879 q 1160 843 1137 860 q 1195 802 1183 826 q 1214 750 1208 779 q 1220 688 1219 721 q 1221 621 1221 656 l 1221 257 q 1229 215 1221 230 q 1247 192 1236 200 q 1271 182 1258 184 q 1294 176 1283 179 q 1313 166 1305 172 q 1320 144 1320 159 q 1241 33 1320 67 q 1017 -1 1163 -1 q 954 4 981 -1 q 905 18 926 9 q 869 38 884 27 q 844 62 854 50 q 814 125 821 89 q 731 54 779 85 q 685 27 711 40 q 629 5 659 15 q 563 -11 598 -5 q 487 -17 527 -17 q 402 -2 437 -17 q 346 31 368 13 q 304 79 320 52 q 308 -64 304 3 q 316 -188 312 -132 q 325 -283 321 -243 q 328 -346 328 -324 q 324 -386 328 -367 q 308 -418 319 -404 q 276 -441 296 -433 q 226 -449 256 -449 q 176 -441 195 -449 q 145 -418 157 -433 q 130 -386 134 -404 q 125 -346 125 -367 q 127 -305 125 -332 q 131 -245 129 -279 q 137 -173 134 -212 q 142 -96 140 -135 q 146 -20 144 -57 q 148 49 148 18 l 148 612 q 140 658 148 642 q 121 683 133 674 q 97 694 110 691 q 73 702 84 698 q 54 712 61 705 q 46 733 46 718 q 126 845 46 810 q 357 879 206 879 q 465 863 425 879 q 526 818 505 846 q 553 751 547 790 q 559 668 559 713 l 559 333 q 565 258 559 291 q 587 202 572 225 q 627 167 602 179 q 690 155 652 155 q 734 163 713 155 q 771 184 755 170 q 796 216 787 197 q 805 257 805 235 l 806 618 z "},"":{"ha":1006,"x_min":29,"x_max":945,"o":"m 601 40 q 597 11 601 25 q 584 -16 593 -4 q 559 -34 574 -27 q 521 -41 544 -41 q 483 -35 498 -41 q 458 -17 468 -28 q 444 9 448 -5 q 440 40 440 24 l 440 501 q 351 508 397 501 q 258 530 304 515 q 171 571 212 545 q 98 633 130 596 q 48 720 66 670 q 29 835 29 770 q 59 972 29 916 q 138 1065 89 1029 q 252 1121 188 1101 q 384 1151 316 1141 q 519 1162 452 1160 q 643 1164 587 1164 q 867 1129 789 1164 q 945 1018 945 1095 q 938 997 945 1003 q 920 987 931 990 q 896 981 909 983 q 872 970 884 978 q 854 947 861 962 q 847 905 847 932 l 847 37 q 842 8 847 22 q 828 -17 838 -6 q 803 -35 819 -28 q 766 -41 787 -41 q 728 -34 743 -41 q 703 -16 713 -27 q 690 11 694 -4 q 686 40 686 25 l 686 1054 l 601 1054 l 601 40 z "},"":{"ha":503,"x_min":31,"x_max":473,"o":"m 31 585 q 43 644 31 618 q 74 688 55 669 q 116 719 92 707 q 165 739 140 732 q 213 750 190 747 q 252 753 235 753 q 293 750 270 753 q 341 739 317 747 q 389 719 366 732 q 432 688 413 707 q 461 644 450 669 q 473 585 473 618 q 461 526 473 551 q 432 481 450 500 q 389 450 413 463 q 341 430 366 437 q 293 419 317 422 q 252 416 270 416 q 213 419 235 416 q 165 430 190 422 q 116 450 140 437 q 74 481 92 463 q 43 525 55 500 q 31 585 31 551 z "},"":{"ha":470,"x_min":16,"x_max":449,"o":"m 16 -221 q 47 -239 28 -229 q 89 -258 66 -249 q 135 -272 111 -267 q 180 -278 158 -278 q 212 -274 197 -278 q 238 -258 227 -269 q 255 -230 249 -248 q 262 -187 262 -213 q 254 -146 262 -168 q 227 -102 245 -125 q 179 -54 209 -79 q 106 0 150 -28 l 248 0 q 324 -27 288 -9 q 389 -72 361 -45 q 433 -132 416 -98 q 449 -204 449 -165 q 430 -298 449 -258 q 379 -365 411 -338 q 305 -404 347 -391 q 218 -416 263 -416 q 111 -398 164 -416 q 16 -343 58 -380 l 16 -221 z "},"":{"ha":709,"x_min":49,"x_max":680,"o":"m 157 595 q 149 642 157 625 q 129 666 140 658 q 103 678 117 675 q 77 685 89 682 q 57 696 65 689 q 49 720 49 703 q 76 790 49 760 q 146 840 102 820 q 247 869 190 860 q 362 879 303 879 q 481 866 439 879 q 543 825 523 852 q 567 758 563 798 q 571 663 571 718 l 571 288 q 579 240 571 257 q 600 214 587 223 q 626 202 612 205 q 652 195 640 199 q 672 183 664 191 q 680 160 680 176 q 653 90 680 120 q 581 40 625 60 q 479 10 536 20 q 362 0 422 0 q 247 10 303 0 q 146 39 190 20 q 76 89 102 59 q 49 160 49 119 q 57 183 49 176 q 77 194 65 191 q 103 201 89 198 q 129 213 117 205 q 149 238 140 222 q 157 285 157 254 l 157 595 z "},"":{"ha":993,"x_min":33,"x_max":962,"o":"m 962 471 q 922 256 962 348 q 816 104 882 165 q 663 13 749 43 q 483 -17 576 -17 q 310 11 392 -17 q 167 93 229 38 q 69 230 105 148 q 33 421 33 312 q 72 631 33 541 q 177 780 111 721 q 330 869 243 840 q 511 899 416 899 q 683 871 601 899 q 826 790 764 844 q 925 656 888 736 q 962 471 962 576 m 398 505 q 409 346 398 416 q 437 227 420 276 q 475 151 454 177 q 517 125 496 125 q 546 141 532 125 q 571 190 560 157 q 588 274 582 222 q 595 396 595 325 q 584 547 595 479 q 556 661 573 614 q 517 733 538 708 q 475 758 496 758 q 446 743 460 758 q 421 697 432 728 q 404 619 410 667 q 398 505 398 571 z "},"":{"ha":1159,"x_min":37,"x_max":1156,"o":"m 235 539 q 153 616 190 583 q 91 679 117 650 q 51 731 64 707 q 37 779 37 755 q 43 815 37 798 q 61 846 49 832 q 90 868 73 860 q 132 876 108 876 q 198 860 161 876 q 277 817 235 844 q 363 756 319 791 q 451 686 408 722 q 526 623 490 654 q 589 561 562 592 q 634 497 617 529 q 650 433 650 466 q 634 369 650 401 q 589 306 617 338 q 526 243 562 275 q 451 180 490 212 q 363 110 408 144 q 277 50 319 76 q 198 7 235 23 q 132 -9 161 -9 q 90 -1 108 -9 q 61 21 73 7 q 43 52 49 35 q 37 87 37 69 q 51 136 37 111 q 91 188 64 160 q 153 250 117 216 q 235 328 190 284 l 347 433 l 235 539 m 741 539 q 659 616 696 583 q 596 679 623 650 q 556 731 570 707 q 543 779 543 755 q 549 815 543 798 q 566 846 555 832 q 595 868 578 860 q 637 876 613 876 q 703 860 666 876 q 782 817 741 844 q 868 756 824 791 q 956 686 913 722 q 1031 623 995 654 q 1095 561 1067 592 q 1140 497 1123 529 q 1156 433 1156 466 q 1140 369 1156 401 q 1095 306 1123 338 q 1031 243 1067 275 q 956 180 995 212 q 868 110 913 144 q 782 50 824 76 q 703 7 741 23 q 637 -9 666 -9 q 595 -1 613 -9 q 566 21 578 7 q 549 52 555 35 q 543 87 543 69 q 556 136 543 111 q 596 188 570 160 q 659 250 623 216 q 741 328 696 284 l 852 433 l 741 539 z "},"":{"ha":1478,"x_min":49,"x_max":1453,"o":"m 124 747 q 119 780 124 768 q 105 798 113 791 q 86 806 96 804 q 68 810 77 808 q 54 818 60 813 q 49 835 49 823 q 67 884 49 863 q 117 919 86 905 q 187 939 148 932 q 269 946 227 946 q 352 942 323 946 q 396 925 382 937 q 412 889 410 912 q 414 827 414 865 l 414 532 q 420 498 414 510 q 434 480 426 486 q 452 472 442 474 q 471 467 463 469 q 485 459 479 464 q 490 443 490 454 q 471 394 490 415 q 421 359 452 373 q 350 337 390 345 q 269 330 310 330 q 187 337 227 330 q 117 358 148 344 q 67 393 86 372 q 49 443 49 414 q 54 459 49 454 q 68 467 60 464 q 86 472 77 469 q 105 480 96 474 q 119 498 113 486 q 124 530 124 509 l 124 747 m 372 35 q 336 73 347 54 q 326 113 326 93 q 333 147 326 132 q 351 175 341 162 q 372 203 355 182 q 414 257 389 224 q 471 330 439 289 q 538 415 503 370 q 610 507 573 460 q 681 598 646 553 q 747 683 716 643 q 803 755 779 724 q 844 808 828 787 q 865 834 861 829 q 900 865 878 852 q 953 878 922 878 q 996 868 977 878 q 1029 845 1015 858 q 1052 817 1043 831 q 1061 794 1060 803 q 1063 785 1063 790 q 1064 777 1064 781 q 1056 742 1063 758 q 1038 714 1048 726 q 1017 688 1034 709 q 977 635 1001 667 q 921 564 952 604 q 854 479 889 524 q 783 387 819 434 q 711 296 746 340 q 644 211 675 251 q 587 138 612 170 q 545 85 562 106 q 522 58 528 64 q 508 42 516 50 q 489 26 500 33 q 466 15 479 20 q 438 11 453 11 q 406 17 423 11 q 372 35 388 22 m 1313 179 l 1317 179 q 1377 178 1352 179 q 1420 168 1403 176 q 1445 139 1437 159 q 1453 85 1453 120 q 1445 36 1453 53 q 1420 11 1437 18 q 1377 1 1403 3 q 1317 0 1352 0 l 1313 0 l 1313 -18 q 1319 -52 1313 -40 q 1333 -69 1324 -63 q 1351 -78 1341 -75 q 1369 -83 1361 -80 q 1383 -91 1377 -85 q 1389 -107 1389 -96 q 1370 -156 1389 -135 q 1319 -191 1350 -177 q 1248 -213 1288 -205 q 1167 -220 1208 -220 q 1086 -213 1125 -220 q 1016 -192 1046 -206 q 966 -157 985 -178 q 947 -107 947 -136 q 953 -91 947 -96 q 967 -83 958 -85 q 985 -78 975 -80 q 1003 -70 995 -76 q 1017 -52 1012 -64 q 1023 -20 1023 -41 l 1023 0 l 853 0 q 779 2 809 0 q 729 9 748 3 q 703 27 711 16 q 694 60 694 39 l 694 84 q 700 138 694 108 q 727 199 705 168 l 1023 614 q 1165 606 1109 614 q 1254 578 1221 597 q 1300 529 1286 559 q 1313 456 1313 499 l 1313 179 m 1023 410 q 969 333 996 373 q 920 258 942 293 q 870 179 895 218 l 1023 179 l 1023 410 z "},"":{"ha":1544,"x_min":44,"x_max":1515,"o":"m 119 747 q 114 780 119 768 q 100 798 109 791 q 82 806 92 804 q 63 810 72 808 q 50 818 55 813 q 44 835 44 823 q 63 884 44 863 q 112 919 81 905 q 182 939 143 932 q 264 946 222 946 q 348 942 318 946 q 391 925 377 937 q 407 889 405 912 q 410 827 410 865 l 410 532 q 415 498 410 510 q 429 480 421 486 q 448 472 437 474 q 466 467 458 469 q 480 459 474 464 q 486 443 486 454 q 467 394 486 415 q 416 359 448 373 q 345 337 385 345 q 264 330 305 330 q 182 337 222 330 q 112 358 143 344 q 63 393 81 372 q 44 443 44 414 q 50 459 44 454 q 63 467 55 464 q 82 472 72 469 q 100 480 92 474 q 114 498 109 486 q 119 530 119 509 l 119 747 m 368 35 q 331 73 342 54 q 321 113 321 93 q 329 147 321 132 q 346 175 336 162 q 368 203 351 182 q 410 257 385 224 q 466 330 435 289 q 533 415 498 370 q 605 507 568 460 q 676 598 642 553 q 743 683 711 643 q 799 755 774 724 q 840 808 823 787 q 860 834 856 829 q 896 865 873 852 q 948 878 918 878 q 991 868 972 878 q 1024 845 1010 858 q 1047 817 1038 831 q 1057 794 1055 803 q 1059 785 1058 790 q 1059 777 1059 781 q 1051 742 1058 758 q 1033 714 1044 726 q 1013 688 1029 709 q 972 635 996 667 q 916 564 947 604 q 849 479 884 524 q 778 387 814 434 q 706 296 741 340 q 639 211 671 251 q 582 138 607 170 q 540 85 557 106 q 517 58 523 64 q 503 42 511 50 q 485 26 495 33 q 461 15 474 20 q 433 11 448 11 q 401 17 418 11 q 368 35 383 22 m 1240 -151 q 1160 -144 1200 -151 q 1084 -123 1120 -137 q 1015 -88 1047 -109 q 960 -40 983 -67 q 956 -33 958 -37 q 954 -25 954 -29 q 957 -11 954 -19 q 963 3 959 -3 q 973 14 967 9 q 985 18 979 18 q 992 18 989 18 q 1000 16 996 18 q 1063 -9 1025 0 q 1137 -18 1101 -18 q 1189 -8 1167 -18 q 1226 17 1211 1 q 1248 52 1241 33 q 1255 92 1255 72 q 1249 126 1255 109 q 1230 157 1242 144 q 1200 179 1218 171 q 1158 187 1181 187 q 1135 183 1147 187 q 1114 179 1123 179 q 1098 183 1105 179 q 1086 195 1091 188 q 1078 210 1081 202 q 1075 227 1075 218 q 1094 258 1075 243 q 1164 328 1143 291 q 1185 397 1185 365 q 1178 434 1185 417 q 1159 464 1171 451 q 1128 483 1146 476 q 1088 490 1110 490 q 1033 480 1061 490 q 975 447 1005 471 q 958 443 964 443 q 938 453 943 443 q 933 475 933 463 q 933 484 933 479 q 935 492 933 488 q 974 551 947 526 q 1036 594 1000 577 q 1112 621 1071 612 q 1194 629 1153 629 q 1282 619 1240 629 q 1357 588 1324 609 q 1409 536 1390 568 q 1429 463 1429 505 q 1424 418 1429 440 q 1406 374 1419 395 q 1371 334 1393 353 q 1314 300 1348 315 q 1403 263 1365 286 q 1466 210 1441 239 q 1503 146 1491 180 q 1515 77 1515 112 q 1497 -7 1515 34 q 1444 -80 1479 -48 q 1357 -132 1409 -112 q 1240 -151 1306 -151 z "},"":{"ha":1692,"x_min":45,"x_max":1668,"o":"m 353 179 q 273 186 313 179 q 196 208 233 194 q 127 243 159 222 q 72 290 96 264 q 68 297 70 294 q 66 306 66 301 q 69 319 66 312 q 75 333 71 327 q 85 344 79 340 q 97 349 91 349 q 104 348 101 349 q 113 346 108 348 q 176 322 138 331 q 250 313 214 313 q 301 322 279 313 q 338 348 323 332 q 360 384 353 363 q 368 424 368 404 q 361 458 368 441 q 342 488 355 475 q 312 510 330 501 q 271 518 294 518 q 249 514 260 518 q 226 510 237 510 q 211 514 218 510 q 198 526 203 519 q 190 541 193 532 q 187 557 187 549 q 208 588 187 574 q 276 659 256 621 q 297 728 297 696 q 290 764 297 747 q 271 794 283 781 q 241 813 258 806 q 201 821 223 821 q 146 811 174 821 q 87 778 118 801 q 71 774 76 774 q 51 783 56 774 q 45 806 45 793 q 45 814 45 810 q 47 821 45 819 q 86 881 59 855 q 148 925 113 907 q 224 951 183 942 q 307 960 265 960 q 394 949 352 960 q 469 919 437 939 q 522 866 502 898 q 541 793 541 835 q 536 748 541 770 q 519 705 532 726 q 484 665 506 684 q 426 631 461 646 q 515 594 477 617 q 578 541 553 570 q 615 476 603 511 q 627 407 627 442 q 609 323 627 364 q 556 250 591 282 q 470 199 521 218 q 353 179 418 179 m 569 35 q 533 73 543 54 q 522 113 522 93 q 530 147 522 132 q 547 175 538 162 q 569 203 552 182 q 611 257 586 224 q 668 330 636 289 q 734 415 699 370 q 806 507 770 460 q 878 598 843 553 q 944 683 913 643 q 1000 755 975 724 q 1041 808 1025 787 q 1061 834 1057 829 q 1097 865 1075 852 q 1149 878 1119 878 q 1193 868 1173 878 q 1226 845 1212 858 q 1248 817 1240 831 q 1258 794 1257 803 q 1260 785 1259 790 q 1261 777 1261 781 q 1252 742 1259 758 q 1234 714 1245 726 q 1214 688 1230 709 q 1173 635 1198 667 q 1117 564 1149 604 q 1051 479 1086 524 q 979 387 1016 434 q 907 296 943 340 q 840 211 872 251 q 783 138 808 170 q 741 85 758 106 q 719 58 724 64 q 705 42 713 50 q 686 26 696 33 q 663 15 675 20 q 635 11 650 11 q 602 17 620 11 q 569 35 585 22 m 1527 179 l 1532 179 q 1592 178 1567 179 q 1635 168 1618 176 q 1659 139 1651 159 q 1668 85 1668 120 q 1659 36 1668 53 q 1635 11 1651 18 q 1592 1 1618 3 q 1532 0 1567 0 l 1527 0 l 1527 -18 q 1533 -52 1527 -40 q 1547 -69 1539 -63 q 1566 -78 1556 -75 q 1584 -83 1575 -80 q 1598 -91 1592 -85 q 1604 -107 1604 -96 q 1585 -156 1604 -135 q 1534 -191 1565 -177 q 1462 -213 1502 -205 q 1381 -220 1423 -220 q 1301 -213 1340 -220 q 1231 -192 1261 -206 q 1181 -157 1200 -178 q 1162 -107 1162 -136 q 1168 -91 1162 -96 q 1182 -83 1173 -85 q 1200 -78 1190 -80 q 1218 -70 1209 -76 q 1232 -52 1226 -64 q 1237 -20 1237 -41 l 1237 0 l 1068 0 q 993 2 1023 0 q 944 9 963 3 q 918 27 926 16 q 909 60 909 39 q 909 72 909 65 q 909 87 909 79 q 914 139 909 111 q 941 199 920 168 l 1237 614 q 1379 606 1323 614 q 1468 578 1435 597 q 1514 529 1501 559 q 1527 456 1527 499 l 1527 179 m 1237 410 q 1184 333 1211 373 q 1135 258 1156 293 q 1084 179 1108 218 l 1237 179 l 1237 410 z "},"":{"ha":868,"x_min":24,"x_max":833,"o":"m 377 290 q 330 301 349 290 q 299 328 311 312 q 282 362 288 344 q 277 395 277 380 q 289 518 277 469 q 319 599 301 566 q 357 653 336 631 q 395 695 378 674 q 425 740 413 715 q 437 803 437 764 q 430 850 437 830 q 406 884 422 870 q 361 904 389 897 q 290 911 332 911 q 182 897 230 911 q 96 863 134 884 q 71 857 82 857 q 53 864 61 857 q 38 880 44 870 q 28 901 32 890 q 24 922 24 912 q 27 935 24 930 q 34 945 30 939 q 118 1017 70 985 q 222 1071 166 1049 q 338 1104 277 1093 q 460 1116 399 1116 q 602 1093 534 1116 q 721 1030 669 1070 q 802 934 772 989 q 833 814 833 879 q 818 733 833 769 q 779 667 803 696 q 723 613 754 637 q 659 567 692 589 q 595 526 627 546 q 540 486 564 507 q 500 444 515 466 q 486 395 486 421 q 475 341 486 361 q 448 309 464 320 q 412 294 431 298 q 377 290 393 290 m 220 111 q 229 156 220 137 q 252 190 238 176 q 285 214 267 204 q 322 229 303 223 q 357 236 340 234 q 387 239 374 239 q 437 233 408 239 q 492 214 466 228 q 536 175 518 199 q 555 111 555 150 q 546 66 555 85 q 524 32 538 46 q 492 8 510 18 q 455 -6 474 -1 q 419 -15 437 -12 q 387 -17 401 -17 q 357 -15 374 -17 q 322 -6 340 -12 q 285 8 303 -1 q 253 32 267 18 q 229 66 238 46 q 220 111 220 85 z "},"":{"ha":1214,"x_min":-6,"x_max":1215,"o":"m 372 435 l 584 435 l 479 829 l 372 435 m 197 0 q 109 13 146 0 q 45 48 71 26 q 7 99 20 70 q -6 160 -6 127 q 1 183 -6 176 q 21 195 9 191 q 48 202 33 199 q 79 214 64 205 q 109 240 95 223 q 134 288 123 256 l 300 796 q 308 821 305 810 q 310 840 310 832 q 298 869 310 861 q 273 880 287 876 q 248 890 259 884 q 236 913 236 896 q 237 921 236 918 q 274 999 243 968 q 355 1047 304 1029 q 474 1073 406 1065 q 625 1080 543 1080 q 759 1075 695 1080 q 875 1053 823 1070 q 961 1005 926 1036 q 1006 921 996 974 q 1008 911 1008 914 q 1001 894 1008 900 q 985 885 995 888 q 965 879 976 882 q 945 872 954 877 q 929 858 935 867 q 922 833 922 849 q 928 796 922 819 l 1078 288 q 1101 240 1087 257 q 1129 214 1114 223 q 1160 202 1145 205 q 1187 195 1175 199 q 1207 183 1200 191 q 1215 160 1215 176 q 1127 38 1215 75 q 874 0 1040 0 q 732 9 794 0 q 627 38 670 18 q 563 87 585 57 q 541 160 541 118 q 547 181 541 174 q 563 192 553 189 q 584 199 572 196 q 605 207 595 201 q 621 221 614 212 q 627 250 627 231 q 623 285 627 265 l 612 332 l 336 332 l 320 285 q 311 243 311 259 q 318 219 311 227 q 334 206 324 210 q 355 199 343 201 q 376 192 366 196 q 392 181 385 189 q 398 160 398 174 q 385 99 398 127 q 347 48 372 70 q 284 13 321 26 q 197 0 246 0 m 739 1218 q 734 1196 739 1207 q 719 1174 728 1184 q 698 1158 710 1164 q 674 1152 686 1152 q 607 1175 650 1152 q 494 1249 564 1197 q 437 1290 468 1268 q 375 1337 406 1312 q 316 1387 345 1361 q 264 1441 287 1413 q 229 1499 242 1470 q 216 1560 216 1529 q 227 1615 216 1588 q 260 1665 239 1643 q 310 1701 281 1687 q 376 1715 340 1715 q 459 1687 422 1715 q 527 1616 495 1659 q 588 1518 558 1572 q 650 1413 617 1465 q 693 1341 676 1372 q 721 1288 711 1311 q 735 1249 731 1265 q 739 1218 739 1232 z "},"":{"ha":1214,"x_min":-6,"x_max":1215,"o":"m 372 435 l 584 435 l 479 829 l 372 435 m 197 0 q 109 13 146 0 q 45 48 71 26 q 7 99 20 70 q -6 160 -6 127 q 1 183 -6 176 q 21 195 9 191 q 48 202 33 199 q 79 214 64 205 q 109 240 95 223 q 134 288 123 256 l 300 796 q 308 821 305 810 q 310 840 310 832 q 298 869 310 861 q 273 880 287 876 q 248 890 259 884 q 236 913 236 896 q 237 921 236 918 q 274 999 243 968 q 355 1047 304 1029 q 474 1073 406 1065 q 625 1080 543 1080 q 759 1075 695 1080 q 875 1053 823 1070 q 961 1005 926 1036 q 1006 921 996 974 q 1008 911 1008 914 q 1001 894 1008 900 q 985 885 995 888 q 965 879 976 882 q 945 872 954 877 q 929 858 935 867 q 922 833 922 849 q 928 796 922 819 l 1078 288 q 1101 240 1087 257 q 1129 214 1114 223 q 1160 202 1145 205 q 1187 195 1175 199 q 1207 183 1200 191 q 1215 160 1215 176 q 1127 38 1215 75 q 874 0 1040 0 q 732 9 794 0 q 627 38 670 18 q 563 87 585 57 q 541 160 541 118 q 547 181 541 174 q 563 192 553 189 q 584 199 572 196 q 605 207 595 201 q 621 221 614 212 q 627 250 627 231 q 623 285 627 265 l 612 332 l 336 332 l 320 285 q 311 243 311 259 q 318 219 311 227 q 334 206 324 210 q 355 199 343 201 q 376 192 366 196 q 392 181 385 189 q 398 160 398 174 q 385 99 398 127 q 347 48 372 70 q 284 13 321 26 q 197 0 246 0 m 369 1218 q 373 1249 369 1232 q 387 1288 377 1265 q 414 1341 397 1311 q 458 1413 431 1372 q 520 1518 490 1465 q 582 1616 550 1572 q 649 1687 613 1659 q 731 1715 685 1715 q 797 1701 768 1715 q 848 1665 827 1687 q 881 1615 869 1643 q 892 1560 892 1588 q 879 1499 892 1529 q 844 1441 866 1470 q 792 1387 821 1413 q 732 1337 764 1361 q 670 1290 701 1312 q 613 1249 640 1268 q 501 1175 545 1197 q 434 1152 458 1152 q 410 1158 422 1152 q 389 1174 398 1164 q 374 1196 380 1184 q 369 1218 369 1207 z "},"":{"ha":1214,"x_min":-6,"x_max":1215,"o":"m 372 435 l 584 435 l 479 829 l 372 435 m 197 0 q 109 13 146 0 q 45 48 71 26 q 7 99 20 70 q -6 160 -6 127 q 1 183 -6 176 q 21 195 9 191 q 48 202 33 199 q 79 214 64 205 q 109 240 95 223 q 134 288 123 256 l 300 796 q 308 821 305 810 q 310 840 310 832 q 298 869 310 861 q 273 880 287 876 q 248 890 259 884 q 236 913 236 896 q 237 921 236 918 q 274 999 243 968 q 355 1047 304 1029 q 474 1073 406 1065 q 625 1080 543 1080 q 759 1075 695 1080 q 875 1053 823 1070 q 961 1005 926 1036 q 1006 921 996 974 q 1008 911 1008 914 q 1001 894 1008 900 q 985 885 995 888 q 965 879 976 882 q 945 872 954 877 q 929 858 935 867 q 922 833 922 849 q 928 796 922 819 l 1078 288 q 1101 240 1087 257 q 1129 214 1114 223 q 1160 202 1145 205 q 1187 195 1175 199 q 1207 183 1200 191 q 1215 160 1215 176 q 1127 38 1215 75 q 874 0 1040 0 q 732 9 794 0 q 627 38 670 18 q 563 87 585 57 q 541 160 541 118 q 547 181 541 174 q 563 192 553 189 q 584 199 572 196 q 605 207 595 201 q 621 221 614 212 q 627 250 627 231 q 623 285 627 265 l 612 332 l 336 332 l 320 285 q 311 243 311 259 q 318 219 311 227 q 334 206 324 210 q 355 199 343 201 q 376 192 366 196 q 392 181 385 189 q 398 160 398 174 q 385 99 398 127 q 347 48 372 70 q 284 13 321 26 q 197 0 246 0 m 608 1694 q 690 1673 656 1694 q 752 1607 724 1651 q 809 1493 781 1562 q 873 1331 838 1425 l 902 1257 q 911 1213 911 1233 q 904 1182 911 1196 q 887 1159 898 1168 q 863 1145 877 1149 q 835 1140 849 1140 q 803 1145 817 1140 q 773 1163 789 1149 q 739 1200 758 1176 q 690 1263 720 1225 l 608 1373 l 527 1263 q 478 1200 498 1225 q 444 1163 459 1176 q 415 1145 429 1149 q 382 1140 401 1140 q 354 1145 368 1140 q 330 1159 340 1149 q 313 1182 319 1168 q 307 1213 307 1196 q 315 1257 307 1233 l 344 1332 q 408 1494 380 1426 q 465 1607 436 1563 q 527 1673 494 1651 q 608 1694 561 1694 z "},"":{"ha":1214,"x_min":-6,"x_max":1215,"o":"m 372 435 l 584 435 l 479 829 l 372 435 m 197 0 q 109 13 146 0 q 45 48 71 26 q 7 99 20 70 q -6 160 -6 127 q 1 183 -6 176 q 21 195 9 191 q 48 202 33 199 q 79 214 64 205 q 109 240 95 223 q 134 288 123 256 l 300 796 q 308 821 305 810 q 310 840 310 832 q 298 869 310 861 q 273 880 287 876 q 248 890 259 884 q 236 913 236 896 q 237 921 236 918 q 274 999 243 968 q 355 1047 304 1029 q 474 1073 406 1065 q 625 1080 543 1080 q 759 1075 695 1080 q 875 1053 823 1070 q 961 1005 926 1036 q 1006 921 996 974 q 1008 911 1008 914 q 1001 894 1008 900 q 985 885 995 888 q 965 879 976 882 q 945 872 954 877 q 929 858 935 867 q 922 833 922 849 q 928 796 922 819 l 1078 288 q 1101 240 1087 257 q 1129 214 1114 223 q 1160 202 1145 205 q 1187 195 1175 199 q 1207 183 1200 191 q 1215 160 1215 176 q 1127 38 1215 75 q 874 0 1040 0 q 732 9 794 0 q 627 38 670 18 q 563 87 585 57 q 541 160 541 118 q 547 181 541 174 q 563 192 553 189 q 584 199 572 196 q 605 207 595 201 q 621 221 614 212 q 627 250 627 231 q 623 285 627 265 l 612 332 l 336 332 l 320 285 q 311 243 311 259 q 318 219 311 227 q 334 206 324 210 q 355 199 343 201 q 376 192 366 196 q 392 181 385 189 q 398 160 398 174 q 385 99 398 127 q 347 48 372 70 q 284 13 321 26 q 197 0 246 0 m 1145 1506 q 1089 1361 1121 1418 q 1020 1271 1058 1304 q 939 1224 982 1238 q 849 1211 896 1211 q 743 1223 798 1211 q 632 1249 688 1234 q 522 1274 577 1263 q 414 1286 467 1286 q 370 1282 391 1286 q 334 1268 349 1278 q 309 1242 318 1258 q 300 1204 300 1227 q 302 1201 300 1201 l 220 1284 q 282 1429 249 1372 q 351 1519 315 1486 q 426 1566 387 1553 q 508 1579 465 1579 q 610 1567 557 1579 q 720 1540 663 1554 q 841 1513 778 1525 q 970 1500 903 1500 q 1008 1505 991 1500 q 1037 1519 1025 1509 q 1056 1546 1049 1529 q 1063 1586 1063 1562 q 1061 1590 1063 1589 l 1145 1506 z "},"":{"ha":1214,"x_min":-6,"x_max":1215,"o":"m 372 435 l 584 435 l 479 829 l 372 435 m 197 0 q 109 13 146 0 q 45 48 71 26 q 7 99 20 70 q -6 160 -6 127 q 1 183 -6 176 q 21 195 9 191 q 48 202 33 199 q 79 214 64 205 q 109 240 95 223 q 134 288 123 256 l 300 796 q 308 821 305 810 q 310 840 310 832 q 298 869 310 861 q 273 880 287 876 q 248 890 259 884 q 236 913 236 896 q 237 921 236 918 q 274 999 243 968 q 355 1047 304 1029 q 474 1073 406 1065 q 625 1080 543 1080 q 759 1075 695 1080 q 875 1053 823 1070 q 961 1005 926 1036 q 1006 921 996 974 q 1008 911 1008 914 q 1001 894 1008 900 q 985 885 995 888 q 965 879 976 882 q 945 872 954 877 q 929 858 935 867 q 922 833 922 849 q 928 796 922 819 l 1078 288 q 1101 240 1087 257 q 1129 214 1114 223 q 1160 202 1145 205 q 1187 195 1175 199 q 1207 183 1200 191 q 1215 160 1215 176 q 1127 38 1215 75 q 874 0 1040 0 q 732 9 794 0 q 627 38 670 18 q 563 87 585 57 q 541 160 541 118 q 547 181 541 174 q 563 192 553 189 q 584 199 572 196 q 605 207 595 201 q 621 221 614 212 q 627 250 627 231 q 623 285 627 265 l 612 332 l 336 332 l 320 285 q 311 243 311 259 q 318 219 311 227 q 334 206 324 210 q 355 199 343 201 q 376 192 366 196 q 392 181 385 189 q 398 160 398 174 q 385 99 398 127 q 347 48 372 70 q 284 13 321 26 q 197 0 246 0 m 133 1320 q 154 1404 133 1371 q 204 1455 174 1436 q 267 1481 234 1474 q 326 1489 300 1489 q 386 1481 353 1489 q 449 1455 420 1474 q 499 1404 479 1436 q 519 1320 519 1371 q 499 1238 519 1270 q 449 1186 479 1205 q 386 1160 420 1167 q 326 1152 353 1152 q 267 1160 300 1152 q 204 1186 234 1167 q 154 1238 174 1205 q 133 1320 133 1270 m 718 1320 q 738 1404 718 1371 q 789 1455 759 1436 q 852 1481 819 1474 q 911 1489 886 1489 q 971 1481 938 1489 q 1034 1455 1004 1474 q 1083 1404 1063 1436 q 1103 1320 1103 1371 q 1083 1238 1103 1270 q 1034 1186 1063 1205 q 971 1160 1004 1167 q 911 1152 938 1152 q 852 1160 886 1152 q 789 1186 819 1167 q 738 1238 759 1205 q 718 1320 718 1270 z "},"":{"ha":1214,"x_min":-6,"x_max":1215,"o":"m 372 435 l 584 435 l 479 829 l 372 435 m 197 0 q 109 13 146 0 q 45 48 71 26 q 7 99 20 70 q -6 160 -6 127 q 1 183 -6 176 q 21 195 9 191 q 48 202 33 199 q 79 214 64 205 q 109 240 95 223 q 134 288 123 256 l 300 796 q 308 821 305 810 q 310 840 310 832 q 298 869 310 861 q 273 880 287 876 q 248 890 259 884 q 236 913 236 896 q 237 921 236 918 q 274 999 243 968 q 355 1047 304 1029 q 474 1073 406 1065 q 625 1080 543 1080 q 759 1075 695 1080 q 875 1053 823 1070 q 961 1005 926 1036 q 1006 921 996 974 q 1008 911 1008 914 q 1001 894 1008 900 q 985 885 995 888 q 965 879 976 882 q 945 872 954 877 q 929 858 935 867 q 922 833 922 849 q 928 796 922 819 l 1078 288 q 1101 240 1087 257 q 1129 214 1114 223 q 1160 202 1145 205 q 1187 195 1175 199 q 1207 183 1200 191 q 1215 160 1215 176 q 1127 38 1215 75 q 874 0 1040 0 q 732 9 794 0 q 627 38 670 18 q 563 87 585 57 q 541 160 541 118 q 547 181 541 174 q 563 192 553 189 q 584 199 572 196 q 605 207 595 201 q 621 221 614 212 q 627 250 627 231 q 623 285 627 265 l 612 332 l 336 332 l 320 285 q 311 243 311 259 q 318 219 311 227 q 334 206 324 210 q 355 199 343 201 q 376 192 366 196 q 392 181 385 189 q 398 160 398 174 q 385 99 398 127 q 347 48 372 70 q 284 13 321 26 q 197 0 246 0 m 500 1421 q 514 1361 500 1384 q 546 1324 527 1337 q 586 1305 564 1310 q 623 1300 607 1300 q 661 1305 640 1300 q 700 1324 682 1310 q 731 1361 719 1337 q 744 1421 744 1384 q 731 1481 744 1457 q 700 1519 719 1505 q 661 1538 682 1533 q 623 1543 640 1543 q 586 1538 607 1543 q 546 1519 564 1533 q 514 1481 527 1505 q 500 1421 500 1457 m 315 1422 q 330 1517 315 1476 q 371 1589 346 1558 q 430 1639 397 1619 q 497 1671 463 1659 q 564 1688 531 1683 q 625 1693 597 1693 q 688 1688 654 1693 q 757 1671 722 1683 q 824 1639 791 1659 q 881 1589 856 1619 q 920 1517 905 1558 q 935 1422 935 1476 q 920 1328 935 1369 q 881 1256 905 1286 q 824 1206 856 1226 q 757 1174 791 1186 q 688 1157 722 1162 q 625 1152 654 1152 q 565 1157 598 1152 q 497 1174 531 1162 q 430 1206 463 1186 q 371 1256 397 1226 q 330 1327 346 1286 q 315 1422 315 1368 z "},"":{"ha":1672,"x_min":-13,"x_max":1640,"o":"m 425 435 l 609 435 l 608 829 l 425 435 m 608 332 l 369 332 l 344 285 q 327 243 330 259 q 329 219 323 227 q 342 206 334 210 q 361 199 351 201 q 381 192 372 196 q 395 181 390 189 q 397 160 400 174 q 373 99 391 127 q 325 48 354 70 q 255 13 295 26 q 165 0 215 0 q 80 13 115 0 q 23 48 45 26 q -5 99 2 70 q -7 160 -13 127 q 5 183 -3 176 q 27 195 14 191 q 56 202 40 199 q 90 214 73 205 q 124 240 106 223 q 158 288 142 256 l 423 796 q 435 821 431 810 q 441 840 439 832 q 439 862 444 854 q 428 874 435 869 q 412 881 421 878 q 395 886 403 883 q 383 896 387 890 q 381 913 379 902 q 382 917 382 915 q 383 921 382 919 q 436 999 399 968 q 527 1047 473 1029 q 650 1073 581 1065 q 803 1080 720 1080 q 843 1073 825 1080 q 873 1054 860 1065 q 895 1026 886 1042 q 909 996 903 1011 q 924 911 922 958 q 923 891 923 905 l 923 796 l 924 288 l 609 285 l 608 332 m 1419 572 q 1411 503 1419 536 q 1386 443 1403 469 q 1343 400 1369 416 q 1279 385 1316 385 q 1242 394 1257 385 q 1216 419 1227 403 q 1194 459 1204 436 q 1169 510 1183 482 l 1115 517 l 1115 139 l 1347 150 l 1375 268 q 1402 333 1386 307 q 1438 377 1419 360 q 1479 401 1457 393 q 1522 408 1501 408 q 1569 400 1548 408 q 1607 375 1591 391 q 1632 336 1623 359 q 1640 285 1640 313 q 1635 225 1640 257 q 1618 161 1629 193 q 1590 100 1607 130 q 1550 49 1573 71 q 1498 13 1527 26 q 1434 0 1469 0 l 844 0 q 702 9 764 0 q 598 38 640 18 q 533 87 555 57 q 511 160 511 118 q 519 183 511 176 q 539 194 528 191 q 565 201 551 198 q 591 213 579 205 q 611 238 603 222 q 619 285 619 254 l 619 796 q 611 843 619 826 q 591 868 603 859 q 565 880 579 876 q 539 887 551 883 q 519 898 528 890 q 511 921 511 905 q 533 993 511 963 q 598 1043 555 1023 q 702 1071 640 1062 q 844 1080 764 1080 l 1426 1080 q 1512 1053 1476 1080 q 1573 985 1549 1026 q 1609 897 1597 944 q 1621 808 1621 849 q 1612 760 1621 781 q 1589 723 1604 738 q 1553 700 1573 708 q 1508 692 1532 692 q 1467 699 1487 692 q 1428 722 1447 706 q 1394 763 1410 738 q 1368 825 1379 789 l 1341 939 l 1115 939 l 1115 627 l 1169 633 q 1194 684 1183 661 q 1216 723 1204 707 q 1242 749 1227 740 q 1279 758 1257 758 q 1343 742 1316 758 q 1386 701 1369 726 q 1411 641 1403 675 q 1419 572 1419 608 z "},"":{"ha":1064,"x_min":39,"x_max":1047,"o":"m 585 -17 q 421 3 496 -17 q 286 59 347 23 q 179 144 225 95 q 102 253 133 194 q 55 378 71 312 q 39 514 39 444 q 52 668 39 594 q 96 808 66 743 q 173 926 125 873 q 288 1018 220 980 q 445 1078 356 1057 q 648 1099 534 1099 q 791 1078 724 1099 q 910 1020 859 1058 q 992 929 962 983 q 1022 808 1022 875 q 1014 760 1022 781 q 990 723 1005 738 q 954 700 975 708 q 909 692 933 692 q 867 699 888 692 q 827 721 846 705 q 793 763 808 737 q 769 825 778 788 q 728 906 757 878 q 665 933 699 933 q 615 918 640 933 q 571 870 591 902 q 540 788 552 838 q 528 671 528 739 q 538 515 528 581 q 566 402 548 449 q 608 326 584 355 q 660 279 632 296 q 718 255 688 262 q 777 249 747 249 q 837 256 808 249 q 890 274 866 263 q 931 296 914 284 q 957 318 949 308 q 979 338 967 332 q 1001 345 991 345 q 1034 325 1020 345 q 1047 271 1047 305 q 1014 165 1047 216 q 919 73 980 113 q 773 8 858 33 q 585 -17 688 -17 m 391 -221 q 423 -239 404 -229 q 465 -258 442 -249 q 510 -272 487 -267 q 555 -278 534 -278 q 588 -274 572 -278 q 614 -258 603 -269 q 631 -230 625 -248 q 637 -187 637 -213 q 629 -146 637 -168 q 603 -102 621 -125 q 555 -54 585 -79 q 482 0 526 -28 l 623 0 q 700 -27 663 -9 q 764 -72 736 -45 q 808 -132 792 -98 q 825 -204 825 -165 q 806 -298 825 -258 q 754 -365 787 -338 q 681 -404 722 -391 q 594 -416 639 -416 q 487 -398 540 -416 q 391 -343 433 -380 l 391 -221 z "},"":{"ha":1197,"x_min":37,"x_max":1166,"o":"m 945 572 q 937 503 945 536 q 911 443 928 469 q 868 400 895 416 q 804 385 842 385 q 768 394 783 385 q 741 419 753 403 q 719 459 730 436 q 694 510 708 482 l 640 517 l 640 139 l 872 150 l 900 268 q 928 333 911 307 q 963 377 944 360 q 1004 401 983 393 q 1048 408 1026 408 q 1095 400 1073 408 q 1132 375 1116 391 q 1157 336 1148 359 q 1166 285 1166 313 q 1160 225 1166 257 q 1143 161 1154 193 q 1115 100 1132 130 q 1075 49 1098 71 q 1023 13 1052 26 q 960 0 994 0 l 370 0 q 228 9 290 0 q 123 38 165 18 q 59 87 81 57 q 37 160 37 118 q 45 183 37 176 q 65 194 53 191 q 91 201 77 198 q 116 213 104 205 q 136 238 128 222 q 144 285 144 254 l 144 796 q 136 843 144 826 q 116 868 128 859 q 91 880 104 876 q 65 887 77 883 q 45 898 53 890 q 37 921 37 905 q 59 993 37 963 q 123 1043 81 1023 q 228 1071 165 1062 q 370 1080 290 1080 l 951 1080 q 1038 1053 1001 1080 q 1098 985 1074 1026 q 1134 897 1122 944 q 1146 808 1146 849 q 1138 760 1146 781 q 1114 723 1129 738 q 1078 700 1099 708 q 1034 692 1057 692 q 992 699 1013 692 q 954 722 972 706 q 920 763 935 738 q 893 825 904 789 l 867 939 l 640 939 l 640 627 l 694 633 q 719 684 708 661 q 741 723 730 707 q 768 749 753 740 q 804 758 783 758 q 868 742 842 758 q 911 701 895 726 q 937 641 928 675 q 945 572 945 608 m 707 1218 q 701 1196 707 1207 q 687 1174 696 1184 q 666 1158 677 1164 q 642 1152 654 1152 q 574 1175 617 1152 q 462 1249 531 1197 q 405 1290 435 1268 q 343 1337 374 1312 q 283 1387 312 1361 q 232 1441 254 1413 q 196 1499 210 1470 q 183 1560 183 1529 q 195 1615 183 1588 q 227 1665 206 1643 q 278 1701 248 1687 q 344 1715 307 1715 q 426 1687 390 1715 q 494 1616 463 1659 q 555 1518 526 1572 q 617 1413 585 1465 q 661 1341 644 1372 q 688 1288 678 1311 q 703 1249 699 1265 q 707 1218 707 1232 z "},"":{"ha":1197,"x_min":37,"x_max":1166,"o":"m 945 572 q 937 503 945 536 q 911 443 928 469 q 868 400 895 416 q 804 385 842 385 q 768 394 783 385 q 741 419 753 403 q 719 459 730 436 q 694 510 708 482 l 640 517 l 640 139 l 872 150 l 900 268 q 928 333 911 307 q 963 377 944 360 q 1004 401 983 393 q 1048 408 1026 408 q 1095 400 1073 408 q 1132 375 1116 391 q 1157 336 1148 359 q 1166 285 1166 313 q 1160 225 1166 257 q 1143 161 1154 193 q 1115 100 1132 130 q 1075 49 1098 71 q 1023 13 1052 26 q 960 0 994 0 l 370 0 q 228 9 290 0 q 123 38 165 18 q 59 87 81 57 q 37 160 37 118 q 45 183 37 176 q 65 194 53 191 q 91 201 77 198 q 116 213 104 205 q 136 238 128 222 q 144 285 144 254 l 144 796 q 136 843 144 826 q 116 868 128 859 q 91 880 104 876 q 65 887 77 883 q 45 898 53 890 q 37 921 37 905 q 59 993 37 963 q 123 1043 81 1023 q 228 1071 165 1062 q 370 1080 290 1080 l 951 1080 q 1038 1053 1001 1080 q 1098 985 1074 1026 q 1134 897 1122 944 q 1146 808 1146 849 q 1138 760 1146 781 q 1114 723 1129 738 q 1078 700 1099 708 q 1034 692 1057 692 q 992 699 1013 692 q 954 722 972 706 q 920 763 935 738 q 893 825 904 789 l 867 939 l 640 939 l 640 627 l 694 633 q 719 684 708 661 q 741 723 730 707 q 768 749 753 740 q 804 758 783 758 q 868 742 842 758 q 911 701 895 726 q 937 641 928 675 q 945 572 945 608 m 412 1218 q 416 1249 412 1232 q 431 1288 420 1265 q 458 1341 441 1311 q 501 1413 475 1372 q 564 1518 534 1465 q 625 1616 593 1572 q 692 1687 656 1659 q 774 1715 728 1715 q 841 1701 811 1715 q 891 1665 870 1687 q 924 1615 913 1643 q 936 1560 936 1588 q 923 1499 936 1529 q 887 1441 909 1470 q 836 1387 865 1413 q 776 1337 807 1361 q 714 1290 745 1312 q 656 1249 683 1268 q 545 1175 588 1197 q 477 1152 501 1152 q 453 1158 465 1152 q 432 1174 441 1164 q 418 1196 423 1184 q 412 1218 412 1207 z "},"":{"ha":1197,"x_min":37,"x_max":1166,"o":"m 945 572 q 937 503 945 536 q 911 443 928 469 q 868 400 895 416 q 804 385 842 385 q 768 394 783 385 q 741 419 753 403 q 719 459 730 436 q 694 510 708 482 l 640 517 l 640 139 l 872 150 l 900 268 q 928 333 911 307 q 963 377 944 360 q 1004 401 983 393 q 1048 408 1026 408 q 1095 400 1073 408 q 1132 375 1116 391 q 1157 336 1148 359 q 1166 285 1166 313 q 1160 225 1166 257 q 1143 161 1154 193 q 1115 100 1132 130 q 1075 49 1098 71 q 1023 13 1052 26 q 960 0 994 0 l 370 0 q 228 9 290 0 q 123 38 165 18 q 59 87 81 57 q 37 160 37 118 q 45 183 37 176 q 65 194 53 191 q 91 201 77 198 q 116 213 104 205 q 136 238 128 222 q 144 285 144 254 l 144 796 q 136 843 144 826 q 116 868 128 859 q 91 880 104 876 q 65 887 77 883 q 45 898 53 890 q 37 921 37 905 q 59 993 37 963 q 123 1043 81 1023 q 228 1071 165 1062 q 370 1080 290 1080 l 951 1080 q 1038 1053 1001 1080 q 1098 985 1074 1026 q 1134 897 1122 944 q 1146 808 1146 849 q 1138 760 1146 781 q 1114 723 1129 738 q 1078 700 1099 708 q 1034 692 1057 692 q 992 699 1013 692 q 954 722 972 706 q 920 763 935 738 q 893 825 904 789 l 867 939 l 640 939 l 640 627 l 694 633 q 719 684 708 661 q 741 723 730 707 q 768 749 753 740 q 804 758 783 758 q 868 742 842 758 q 911 701 895 726 q 937 641 928 675 q 945 572 945 608 m 636 1694 q 718 1673 684 1694 q 780 1607 751 1651 q 837 1493 809 1562 q 901 1331 865 1425 l 930 1257 q 939 1213 939 1233 q 932 1182 939 1196 q 915 1159 926 1168 q 891 1145 905 1149 q 863 1140 877 1140 q 830 1145 844 1140 q 801 1163 817 1149 q 767 1200 786 1176 q 718 1263 747 1225 l 636 1373 l 555 1263 q 506 1200 526 1225 q 472 1163 487 1176 q 443 1145 456 1149 q 410 1140 429 1140 q 382 1145 396 1140 q 358 1159 368 1149 q 341 1182 347 1168 q 334 1213 334 1196 q 343 1257 334 1233 l 372 1332 q 436 1494 408 1426 q 493 1607 464 1563 q 555 1673 522 1651 q 636 1694 589 1694 z "},"":{"ha":1197,"x_min":37,"x_max":1166,"o":"m 945 572 q 937 503 945 536 q 911 443 928 469 q 868 400 895 416 q 804 385 842 385 q 768 394 783 385 q 741 419 753 403 q 719 459 730 436 q 694 510 708 482 l 640 517 l 640 139 l 872 150 l 900 268 q 928 333 911 307 q 963 377 944 360 q 1004 401 983 393 q 1048 408 1026 408 q 1095 400 1073 408 q 1132 375 1116 391 q 1157 336 1148 359 q 1166 285 1166 313 q 1160 225 1166 257 q 1143 161 1154 193 q 1115 100 1132 130 q 1075 49 1098 71 q 1023 13 1052 26 q 960 0 994 0 l 370 0 q 228 9 290 0 q 123 38 165 18 q 59 87 81 57 q 37 160 37 118 q 45 183 37 176 q 65 194 53 191 q 91 201 77 198 q 116 213 104 205 q 136 238 128 222 q 144 285 144 254 l 144 796 q 136 843 144 826 q 116 868 128 859 q 91 880 104 876 q 65 887 77 883 q 45 898 53 890 q 37 921 37 905 q 59 993 37 963 q 123 1043 81 1023 q 228 1071 165 1062 q 370 1080 290 1080 l 951 1080 q 1038 1053 1001 1080 q 1098 985 1074 1026 q 1134 897 1122 944 q 1146 808 1146 849 q 1138 760 1146 781 q 1114 723 1129 738 q 1078 700 1099 708 q 1034 692 1057 692 q 992 699 1013 692 q 954 722 972 706 q 920 763 935 738 q 893 825 904 789 l 867 939 l 640 939 l 640 627 l 694 633 q 719 684 708 661 q 741 723 730 707 q 768 749 753 740 q 804 758 783 758 q 868 742 842 758 q 911 701 895 726 q 937 641 928 675 q 945 572 945 608 m 123 1320 q 144 1404 123 1371 q 195 1455 165 1436 q 258 1481 224 1474 q 316 1489 291 1489 q 377 1481 343 1489 q 440 1455 410 1474 q 489 1404 469 1436 q 509 1320 509 1371 q 489 1238 509 1270 q 440 1186 469 1205 q 377 1160 410 1167 q 316 1152 343 1152 q 258 1160 291 1152 q 195 1186 224 1167 q 144 1238 165 1205 q 123 1320 123 1270 m 708 1320 q 729 1404 708 1371 q 780 1455 749 1436 q 843 1481 810 1474 q 901 1489 876 1489 q 962 1481 928 1489 q 1024 1455 995 1474 q 1074 1404 1054 1436 q 1094 1320 1094 1371 q 1074 1238 1094 1270 q 1024 1186 1054 1205 q 962 1160 995 1167 q 901 1152 928 1152 q 843 1160 876 1152 q 780 1186 810 1167 q 729 1238 749 1205 q 708 1320 708 1270 z "},"":{"ha":744,"x_min":37,"x_max":710,"o":"m 600 288 q 608 240 600 257 q 629 214 616 223 q 655 202 641 205 q 682 195 669 199 q 702 183 694 191 q 710 160 710 176 q 623 38 710 75 q 370 0 535 0 q 228 9 290 0 q 123 38 165 18 q 59 87 81 57 q 37 160 37 118 q 45 183 37 176 q 65 194 53 191 q 91 201 77 198 q 116 213 104 205 q 136 238 128 222 q 144 285 144 254 l 144 796 q 136 843 144 826 q 116 868 128 859 q 91 880 104 876 q 65 887 77 883 q 45 898 53 890 q 37 921 37 905 q 59 993 37 963 q 123 1043 81 1023 q 228 1071 165 1062 q 370 1080 290 1080 q 516 1071 452 1080 q 623 1043 580 1062 q 688 993 666 1023 q 710 921 710 963 q 702 898 710 905 q 682 887 694 890 q 656 880 670 883 q 630 868 642 876 q 610 843 618 859 q 602 796 602 826 l 600 288 m 604 1218 q 598 1196 604 1207 q 584 1174 593 1184 q 563 1158 574 1164 q 538 1152 551 1152 q 471 1175 514 1152 q 359 1249 428 1197 q 301 1290 332 1268 q 240 1337 271 1312 q 180 1387 209 1361 q 129 1441 151 1413 q 93 1499 106 1470 q 80 1560 80 1529 q 92 1615 80 1588 q 124 1665 103 1643 q 175 1701 145 1687 q 241 1715 204 1715 q 323 1687 287 1715 q 391 1616 359 1659 q 452 1518 422 1572 q 514 1413 481 1465 q 558 1341 541 1372 q 585 1288 575 1311 q 600 1249 595 1265 q 604 1218 604 1232 z "},"":{"ha":745,"x_min":37,"x_max":710,"o":"m 600 288 q 608 240 600 257 q 629 214 616 223 q 655 202 641 205 q 682 195 669 199 q 702 183 694 191 q 710 160 710 176 q 623 38 710 75 q 370 0 535 0 q 228 9 290 0 q 123 38 165 18 q 59 87 81 57 q 37 160 37 118 q 45 183 37 176 q 65 194 53 191 q 91 201 77 198 q 116 213 104 205 q 136 238 128 222 q 144 285 144 254 l 144 796 q 136 843 144 826 q 116 868 128 859 q 91 880 104 876 q 65 887 77 883 q 45 898 53 890 q 37 921 37 905 q 59 993 37 963 q 123 1043 81 1023 q 228 1071 165 1062 q 370 1080 290 1080 q 516 1071 452 1080 q 623 1043 580 1062 q 688 993 666 1023 q 710 921 710 963 q 702 898 710 905 q 682 887 694 890 q 656 880 670 883 q 630 868 642 876 q 610 843 618 859 q 602 796 602 826 l 600 288 m 117 1218 q 121 1249 117 1232 q 136 1288 125 1265 q 163 1341 146 1311 q 206 1413 180 1372 q 269 1518 239 1465 q 330 1616 298 1572 q 397 1687 361 1659 q 479 1715 433 1715 q 546 1701 516 1715 q 596 1665 575 1687 q 629 1615 618 1643 q 641 1560 641 1588 q 628 1499 641 1529 q 592 1441 614 1470 q 541 1387 570 1413 q 481 1337 512 1361 q 419 1290 450 1312 q 361 1249 388 1268 q 250 1175 293 1197 q 182 1152 206 1152 q 158 1158 170 1152 q 137 1174 146 1164 q 123 1196 128 1184 q 117 1218 117 1207 z "},"":{"ha":744,"x_min":37,"x_max":710,"o":"m 600 288 q 608 240 600 257 q 629 214 616 223 q 655 202 641 205 q 682 195 669 199 q 702 183 694 191 q 710 160 710 176 q 623 38 710 75 q 370 0 535 0 q 228 9 290 0 q 123 38 165 18 q 59 87 81 57 q 37 160 37 118 q 45 183 37 176 q 65 194 53 191 q 91 201 77 198 q 116 213 104 205 q 136 238 128 222 q 144 285 144 254 l 144 796 q 136 843 144 826 q 116 868 128 859 q 91 880 104 876 q 65 887 77 883 q 45 898 53 890 q 37 921 37 905 q 59 993 37 963 q 123 1043 81 1023 q 228 1071 165 1062 q 370 1080 290 1080 q 516 1071 452 1080 q 623 1043 580 1062 q 688 993 666 1023 q 710 921 710 963 q 702 898 710 905 q 682 887 694 890 q 656 880 670 883 q 630 868 642 876 q 610 843 618 859 q 602 796 602 826 l 600 288 m 374 1694 q 455 1673 421 1694 q 518 1607 489 1651 q 575 1493 547 1562 q 639 1331 603 1425 l 667 1257 q 676 1213 676 1233 q 670 1182 676 1196 q 653 1159 663 1168 q 628 1145 642 1149 q 600 1140 614 1140 q 568 1145 582 1140 q 539 1163 554 1149 q 504 1200 524 1176 q 456 1263 485 1225 l 374 1373 l 292 1263 q 244 1200 263 1225 q 209 1163 224 1176 q 180 1145 194 1149 q 148 1140 166 1140 q 120 1145 134 1140 q 95 1159 106 1149 q 78 1182 85 1168 q 72 1213 72 1196 q 81 1257 72 1233 l 109 1332 q 173 1494 145 1426 q 230 1607 201 1563 q 293 1673 259 1651 q 374 1694 326 1694 z "},"":{"ha":744,"x_min":-102,"x_max":869,"o":"m 601 288 q 609 240 601 257 q 629 214 617 223 q 656 202 642 205 q 682 195 670 199 q 703 183 694 191 q 711 160 711 176 q 623 38 711 75 q 370 0 536 0 q 228 9 290 0 q 124 38 166 18 q 59 87 81 57 q 37 160 37 118 q 45 183 37 176 q 65 194 54 191 q 91 201 77 198 q 117 213 105 205 q 137 238 129 222 q 145 285 145 254 l 145 796 q 137 843 145 826 q 117 868 129 859 q 91 880 105 876 q 65 887 77 883 q 45 898 54 890 q 37 921 37 905 q 59 993 37 963 q 124 1043 81 1023 q 228 1071 166 1062 q 370 1080 290 1080 q 517 1071 453 1080 q 624 1043 581 1062 q 689 993 667 1023 q 711 921 711 963 q 703 898 711 905 q 683 887 694 890 q 656 880 671 883 q 630 868 642 876 q 610 843 618 859 q 602 796 602 826 l 601 288 m -102 1320 q -81 1404 -102 1371 q -31 1455 -60 1436 q 33 1481 -1 1474 q 91 1489 66 1489 q 152 1481 118 1489 q 215 1455 185 1474 q 264 1404 244 1436 q 284 1320 284 1371 q 264 1238 284 1270 q 215 1186 244 1205 q 152 1160 185 1167 q 91 1152 118 1152 q 33 1160 66 1152 q -31 1186 -1 1167 q -81 1238 -60 1205 q -102 1320 -102 1270 m 483 1320 q 504 1404 483 1371 q 554 1455 524 1436 q 618 1481 585 1474 q 676 1489 651 1489 q 736 1481 703 1489 q 799 1455 770 1474 q 849 1404 829 1436 q 869 1320 869 1371 q 849 1238 869 1270 q 799 1186 829 1205 q 736 1160 770 1167 q 676 1152 703 1152 q 618 1160 651 1152 q 554 1186 585 1167 q 504 1238 524 1205 q 483 1320 483 1270 z "},"":{"ha":1331,"x_min":37,"x_max":1289,"o":"m 56 571 q 63 608 56 594 q 83 628 70 621 q 114 636 96 634 q 155 637 133 637 l 640 637 q 684 636 664 637 q 717 629 703 635 q 739 610 731 623 q 746 571 746 596 q 739 532 746 546 q 717 513 731 519 q 684 506 703 507 q 640 505 664 505 l 155 505 q 114 506 133 505 q 83 513 96 507 q 63 532 70 519 q 56 571 56 546 m 839 579 q 831 719 839 652 q 808 836 824 785 q 765 917 791 887 q 701 947 739 947 q 655 937 672 947 q 629 909 637 926 q 617 869 620 892 q 614 821 614 846 l 614 283 q 617 235 614 258 q 629 195 620 212 q 655 167 637 178 q 701 157 672 157 q 765 187 739 157 q 808 273 791 218 q 831 406 824 328 q 839 579 839 484 m 701 1080 q 897 1061 810 1080 q 1049 1008 983 1042 q 1160 927 1114 975 q 1235 824 1206 880 q 1276 703 1263 767 q 1289 572 1289 640 q 1279 424 1289 496 q 1242 289 1269 352 q 1170 172 1216 225 q 1052 81 1124 119 q 880 21 981 43 q 644 0 779 0 l 370 0 q 228 9 290 0 q 123 38 165 18 q 59 87 81 57 q 37 160 37 118 q 45 183 37 176 q 65 194 53 191 q 91 201 77 198 q 116 213 104 205 q 136 238 128 222 q 144 285 144 254 l 144 798 q 136 844 144 827 q 116 869 128 861 q 91 881 104 878 q 65 888 77 884 q 45 899 53 892 q 37 922 37 906 q 59 995 37 964 q 123 1044 81 1025 q 228 1072 165 1063 q 370 1080 290 1080 l 701 1080 z "},"":{"ha":1229,"x_min":43,"x_max":1194,"o":"m 361 526 q 354 530 357 530 q 348 523 348 530 q 349 519 348 521 l 349 288 q 357 240 349 257 q 377 214 365 223 q 404 202 389 205 q 430 195 418 199 q 450 183 442 191 q 458 160 458 176 q 440 87 458 118 q 392 38 421 57 q 327 9 363 18 q 256 0 290 0 q 177 9 215 0 q 109 38 138 18 q 61 87 79 57 q 43 160 43 118 q 52 183 43 176 q 72 194 60 191 q 97 201 83 198 q 123 213 111 205 q 143 238 135 222 q 151 285 151 254 l 151 796 q 143 843 151 826 q 123 868 135 859 q 97 880 111 876 q 72 887 83 883 q 52 898 60 890 q 43 921 43 905 q 60 993 43 963 q 107 1043 77 1023 q 176 1071 136 1062 q 262 1080 216 1080 q 323 1075 298 1080 q 371 1056 349 1069 q 419 1020 394 1042 q 479 965 444 998 l 868 603 q 872 600 869 602 q 878 599 874 599 q 885 603 882 599 q 889 618 889 606 l 889 793 q 881 841 889 824 q 861 867 873 858 q 834 879 848 876 q 808 886 820 882 q 787 898 795 890 q 779 921 779 905 q 798 993 779 963 q 846 1043 817 1023 q 911 1071 875 1062 q 982 1080 947 1080 q 1061 1071 1023 1080 q 1129 1043 1099 1062 q 1176 993 1158 1023 q 1194 921 1194 963 q 1186 898 1194 905 q 1167 887 1179 890 q 1141 880 1155 883 q 1115 868 1127 876 q 1096 843 1103 859 q 1088 796 1088 826 l 1088 146 q 1080 73 1088 101 q 1059 28 1073 44 q 1026 6 1045 12 q 983 0 1006 0 q 949 7 967 0 q 912 27 932 14 q 869 60 892 40 q 817 104 845 79 l 361 526 m 1129 1506 q 1074 1361 1105 1418 q 1004 1271 1042 1304 q 923 1224 966 1238 q 833 1211 880 1211 q 727 1223 782 1211 q 617 1249 672 1234 q 506 1274 562 1263 q 398 1286 451 1286 q 354 1282 375 1286 q 318 1268 334 1278 q 293 1242 302 1258 q 284 1204 284 1227 q 287 1201 284 1201 l 204 1284 q 266 1429 233 1372 q 335 1519 299 1486 q 410 1566 371 1553 q 492 1579 450 1579 q 594 1567 541 1579 q 705 1540 647 1554 q 825 1513 762 1525 q 955 1500 888 1500 q 992 1505 975 1500 q 1021 1519 1009 1509 q 1040 1546 1034 1529 q 1047 1586 1047 1562 q 1046 1590 1047 1589 l 1129 1506 z "},"":{"ha":1288,"x_min":40,"x_max":1247,"o":"m 615 -17 q 430 3 513 -17 q 283 59 347 23 q 174 144 220 95 q 98 253 127 194 q 54 378 68 312 q 40 514 40 444 q 49 668 40 594 q 83 808 58 743 q 152 926 108 873 q 266 1018 196 980 q 436 1078 336 1057 q 672 1099 536 1099 q 867 1079 782 1099 q 1017 1023 953 1059 q 1125 938 1081 987 q 1196 830 1168 888 q 1235 707 1223 772 q 1247 575 1247 642 q 1238 426 1247 499 q 1204 286 1229 352 q 1135 165 1179 220 q 1020 69 1090 109 q 850 6 950 28 q 615 -17 751 -17 m 654 161 q 704 178 684 161 q 734 227 723 195 q 750 305 745 259 q 754 410 754 351 l 754 440 q 753 547 754 492 q 749 655 753 602 q 738 756 746 709 q 716 840 730 804 q 681 897 703 876 q 629 918 660 918 q 577 904 597 918 q 547 861 557 889 q 533 791 536 833 q 529 696 529 750 q 530 587 529 646 q 534 469 530 528 q 545 354 537 410 q 566 256 552 298 q 601 187 580 213 q 654 161 623 161 m 765 1218 q 760 1196 765 1207 q 745 1174 754 1184 q 724 1158 736 1164 q 700 1152 712 1152 q 632 1175 675 1152 q 520 1249 589 1197 q 463 1290 494 1268 q 401 1337 432 1312 q 341 1387 370 1361 q 290 1441 313 1413 q 255 1499 268 1470 q 241 1560 241 1529 q 253 1615 241 1588 q 286 1665 264 1643 q 336 1701 307 1687 q 402 1715 366 1715 q 485 1687 448 1715 q 552 1616 521 1659 q 613 1518 584 1572 q 675 1413 643 1465 q 719 1341 702 1372 q 747 1288 736 1311 q 761 1249 757 1265 q 765 1218 765 1232 z "},"":{"ha":1288,"x_min":40,"x_max":1247,"o":"m 615 -17 q 430 3 513 -17 q 283 59 347 23 q 174 144 220 95 q 98 253 127 194 q 54 378 68 312 q 40 514 40 444 q 49 668 40 594 q 83 808 58 743 q 152 926 108 873 q 266 1018 196 980 q 436 1078 336 1057 q 672 1099 536 1099 q 867 1079 782 1099 q 1017 1023 953 1059 q 1125 938 1081 987 q 1196 830 1168 888 q 1235 707 1223 772 q 1247 575 1247 642 q 1238 426 1247 499 q 1204 286 1229 352 q 1135 165 1179 220 q 1020 69 1090 109 q 850 6 950 28 q 615 -17 751 -17 m 654 161 q 704 178 684 161 q 734 227 723 195 q 750 305 745 259 q 754 410 754 351 l 754 440 q 753 547 754 492 q 749 655 753 602 q 738 756 746 709 q 716 840 730 804 q 681 897 703 876 q 629 918 660 918 q 577 904 597 918 q 547 861 557 889 q 533 791 536 833 q 529 696 529 750 q 530 587 529 646 q 534 469 530 528 q 545 354 537 410 q 566 256 552 298 q 601 187 580 213 q 654 161 623 161 m 358 1218 q 362 1249 358 1232 q 376 1288 366 1265 q 404 1341 387 1311 q 447 1413 420 1372 q 509 1518 479 1465 q 571 1616 539 1572 q 638 1687 602 1659 q 720 1715 674 1715 q 786 1701 757 1715 q 837 1665 816 1687 q 870 1615 859 1643 q 882 1560 882 1588 q 868 1499 882 1529 q 833 1441 855 1470 q 782 1387 810 1413 q 722 1337 753 1361 q 660 1290 690 1312 q 602 1249 629 1268 q 490 1175 534 1197 q 423 1152 447 1152 q 399 1158 411 1152 q 378 1174 387 1164 q 363 1196 369 1184 q 358 1218 358 1207 z "},"":{"ha":1288,"x_min":40,"x_max":1247,"o":"m 615 -17 q 430 3 513 -17 q 283 59 347 23 q 174 144 220 95 q 98 253 127 194 q 54 378 68 312 q 40 514 40 444 q 49 668 40 594 q 83 808 58 743 q 152 926 108 873 q 266 1018 196 980 q 436 1078 336 1057 q 672 1099 536 1099 q 867 1079 782 1099 q 1017 1023 953 1059 q 1125 938 1081 987 q 1196 830 1168 888 q 1235 707 1223 772 q 1247 575 1247 642 q 1238 426 1247 499 q 1204 286 1229 352 q 1135 165 1179 220 q 1020 69 1090 109 q 850 6 950 28 q 615 -17 751 -17 m 654 161 q 704 178 684 161 q 734 227 723 195 q 750 305 745 259 q 754 410 754 351 l 754 440 q 753 547 754 492 q 749 655 753 602 q 738 756 746 709 q 716 840 730 804 q 681 897 703 876 q 629 918 660 918 q 577 904 597 918 q 547 861 557 889 q 533 791 536 833 q 529 696 529 750 q 530 587 529 646 q 534 469 530 528 q 545 354 537 410 q 566 256 552 298 q 601 187 580 213 q 654 161 623 161 m 635 1694 q 716 1673 682 1694 q 779 1607 750 1651 q 836 1493 808 1562 q 900 1331 864 1425 l 928 1257 q 937 1213 937 1233 q 931 1182 937 1196 q 914 1159 924 1168 q 889 1145 903 1149 q 861 1140 876 1140 q 829 1145 843 1140 q 800 1163 815 1149 q 765 1200 785 1176 q 717 1263 746 1225 l 635 1373 l 553 1263 q 505 1200 524 1225 q 470 1163 486 1176 q 441 1145 455 1149 q 409 1140 427 1140 q 381 1145 395 1140 q 356 1159 367 1149 q 339 1182 346 1168 q 333 1213 333 1196 q 342 1257 333 1233 l 370 1332 q 434 1494 406 1426 q 491 1607 463 1563 q 554 1673 520 1651 q 635 1694 587 1694 z "},"":{"ha":1288,"x_min":40,"x_max":1247,"o":"m 615 -17 q 430 3 513 -17 q 283 59 347 23 q 174 144 220 95 q 98 253 127 194 q 54 378 68 312 q 40 514 40 444 q 49 668 40 594 q 83 808 58 743 q 152 926 108 873 q 266 1018 196 980 q 436 1078 336 1057 q 672 1099 536 1099 q 867 1079 782 1099 q 1017 1023 953 1059 q 1125 938 1081 987 q 1196 830 1168 888 q 1235 707 1223 772 q 1247 575 1247 642 q 1238 426 1247 499 q 1204 286 1229 352 q 1135 165 1179 220 q 1020 69 1090 109 q 850 6 950 28 q 615 -17 751 -17 m 654 161 q 704 178 684 161 q 734 227 723 195 q 750 305 745 259 q 754 410 754 351 l 754 440 q 753 547 754 492 q 749 655 753 602 q 738 756 746 709 q 716 840 730 804 q 681 897 703 876 q 629 918 660 918 q 577 904 597 918 q 547 861 557 889 q 533 791 536 833 q 529 696 529 750 q 530 587 529 646 q 534 469 530 528 q 545 354 537 410 q 566 256 552 298 q 601 187 580 213 q 654 161 623 161 m 1171 1506 q 1116 1361 1147 1418 q 1046 1271 1084 1304 q 965 1224 1008 1238 q 876 1211 922 1211 q 769 1223 824 1211 q 659 1249 714 1234 q 548 1274 604 1263 q 440 1286 493 1286 q 396 1282 417 1286 q 360 1268 376 1278 q 335 1242 345 1258 q 326 1204 326 1227 q 329 1201 326 1201 l 246 1284 q 308 1429 275 1372 q 377 1519 341 1486 q 452 1566 413 1553 q 534 1579 492 1579 q 636 1567 583 1579 q 747 1540 689 1554 q 867 1513 804 1525 q 997 1500 930 1500 q 1034 1505 1017 1500 q 1063 1519 1051 1509 q 1082 1546 1076 1529 q 1089 1586 1089 1562 q 1088 1590 1089 1589 l 1171 1506 z "},"":{"ha":1288,"x_min":40,"x_max":1247,"o":"m 615 -17 q 430 3 513 -17 q 283 59 347 23 q 174 144 220 95 q 98 253 127 194 q 54 378 68 312 q 40 514 40 444 q 49 668 40 594 q 83 808 58 743 q 152 926 108 873 q 266 1018 196 980 q 436 1078 336 1057 q 672 1099 536 1099 q 867 1079 782 1099 q 1017 1023 953 1059 q 1125 938 1081 987 q 1196 830 1168 888 q 1235 707 1223 772 q 1247 575 1247 642 q 1238 426 1247 499 q 1204 286 1229 352 q 1135 165 1179 220 q 1020 69 1090 109 q 850 6 950 28 q 615 -17 751 -17 m 654 161 q 704 178 684 161 q 734 227 723 195 q 750 305 745 259 q 754 410 754 351 l 754 440 q 753 547 754 492 q 749 655 753 602 q 738 756 746 709 q 716 840 730 804 q 681 897 703 876 q 629 918 660 918 q 577 904 597 918 q 547 861 557 889 q 533 791 536 833 q 529 696 529 750 q 530 587 529 646 q 534 469 530 528 q 545 354 537 410 q 566 256 552 298 q 601 187 580 213 q 654 161 623 161 m 167 1320 q 188 1404 167 1371 q 238 1455 208 1436 q 301 1481 268 1474 q 359 1489 334 1489 q 420 1481 387 1489 q 483 1455 454 1474 q 533 1404 513 1436 q 553 1320 553 1371 q 533 1238 553 1270 q 483 1186 513 1205 q 420 1160 454 1167 q 359 1152 387 1152 q 301 1160 334 1152 q 238 1186 268 1167 q 188 1238 208 1205 q 167 1320 167 1270 m 751 1320 q 772 1404 751 1371 q 823 1455 793 1436 q 886 1481 853 1474 q 945 1489 920 1489 q 1005 1481 972 1489 q 1068 1455 1038 1474 q 1117 1404 1097 1436 q 1137 1320 1137 1371 q 1117 1238 1137 1270 q 1068 1186 1097 1205 q 1005 1160 1038 1167 q 945 1152 972 1152 q 886 1160 920 1152 q 823 1186 853 1167 q 772 1238 793 1205 q 751 1320 751 1270 z "},"":{"ha":769,"x_min":48,"x_max":721,"o":"m 87 193 q 58 233 66 214 q 50 270 50 252 q 60 312 50 293 q 84 345 71 331 l 233 493 l 84 642 q 59 676 70 656 q 48 718 48 695 q 57 755 48 736 q 85 793 65 774 q 124 821 105 813 q 161 829 143 829 q 202 819 183 829 q 235 794 221 808 l 385 646 l 532 793 q 567 818 547 807 q 609 829 586 829 q 646 821 627 829 q 684 792 665 812 q 712 753 704 772 q 721 716 721 734 q 710 675 721 694 q 685 642 699 656 l 536 493 l 684 346 q 708 313 697 332 q 719 270 719 294 q 711 234 719 252 q 684 196 703 216 q 644 168 663 176 q 607 159 625 159 q 565 170 584 159 q 532 193 546 180 l 385 340 l 237 193 q 204 169 223 180 q 161 158 184 158 q 125 166 143 158 q 87 193 106 174 z "},"":{"ha":1284,"x_min":38,"x_max":1245,"o":"m 218 -50 q 221 -26 218 -37 q 231 -4 224 -15 l 943 1161 q 970 1191 953 1178 q 1012 1204 988 1204 q 1058 1196 1040 1204 q 1087 1176 1076 1187 q 1103 1151 1099 1164 q 1108 1128 1108 1137 q 1104 1103 1108 1114 q 1094 1082 1101 1093 l 383 -83 q 355 -113 374 -99 q 311 -126 336 -126 q 278 -120 294 -126 q 248 -104 261 -115 q 226 -80 235 -94 q 218 -50 218 -66 m 613 -17 q 428 3 510 -17 q 281 59 345 23 q 172 144 218 95 q 96 253 125 194 q 52 378 66 312 q 38 514 38 444 q 47 668 38 594 q 81 808 56 743 q 150 926 106 873 q 264 1018 194 980 q 434 1078 334 1057 q 670 1099 534 1099 q 865 1079 780 1099 q 1015 1023 951 1059 q 1123 938 1079 987 q 1194 830 1166 888 q 1233 707 1221 772 q 1245 575 1245 642 q 1236 426 1245 499 q 1202 286 1227 352 q 1133 165 1177 220 q 1018 69 1088 109 q 848 6 948 28 q 613 -17 749 -17 m 652 161 q 702 178 682 161 q 732 227 721 195 q 748 305 743 259 q 752 410 752 351 l 752 440 q 751 547 752 492 q 747 655 751 602 q 736 756 744 709 q 714 840 728 804 q 679 897 701 876 q 627 918 658 918 q 575 904 595 918 q 545 861 555 889 q 531 791 534 833 q 527 696 527 750 q 528 587 527 646 q 532 469 528 528 q 543 354 535 410 q 564 256 550 298 q 599 187 578 213 q 652 161 621 161 z "},"":{"ha":1276,"x_min":22,"x_max":1254,"o":"m 1145 350 q 1128 231 1145 284 q 1078 137 1110 178 q 1002 67 1046 96 q 905 19 958 38 q 792 -8 852 1 q 669 -17 732 -17 q 525 -8 594 -17 q 396 20 456 1 q 287 68 336 39 q 203 138 238 97 q 149 233 168 180 q 130 353 130 286 l 130 796 q 122 843 130 826 q 102 868 114 859 q 76 880 90 876 q 51 887 62 883 q 31 898 39 890 q 22 921 22 905 q 44 993 22 963 q 109 1043 66 1023 q 213 1071 151 1062 q 355 1080 275 1080 q 502 1071 438 1080 q 609 1043 566 1062 q 674 993 652 1023 q 696 921 696 963 q 688 898 696 905 q 668 887 680 890 q 642 880 656 883 q 615 869 627 877 q 595 844 604 861 q 587 798 587 827 l 587 353 q 601 272 587 305 q 639 218 614 239 q 697 187 663 197 q 770 178 730 178 q 840 188 808 178 q 896 218 872 197 q 933 273 920 239 q 947 353 947 306 l 947 796 q 939 843 947 826 q 919 868 931 859 q 893 880 907 876 q 867 887 879 883 q 847 898 855 890 q 839 921 839 905 q 859 993 839 963 q 911 1043 880 1023 q 979 1071 942 1062 q 1051 1080 1017 1080 q 1117 1071 1082 1080 q 1183 1043 1153 1062 q 1234 993 1214 1023 q 1254 921 1254 963 q 1246 898 1254 905 q 1225 886 1238 890 q 1199 879 1213 882 q 1173 867 1185 876 q 1152 841 1160 858 q 1144 793 1144 824 l 1145 350 m 747 1218 q 741 1196 747 1207 q 727 1174 736 1184 q 706 1158 718 1164 q 682 1152 694 1152 q 614 1175 657 1152 q 502 1249 571 1197 q 445 1290 475 1268 q 383 1337 414 1312 q 323 1387 352 1361 q 272 1441 294 1413 q 236 1499 250 1470 q 223 1560 223 1529 q 235 1615 223 1588 q 267 1665 246 1643 q 318 1701 288 1687 q 384 1715 347 1715 q 466 1687 430 1715 q 534 1616 503 1659 q 595 1518 566 1572 q 657 1413 625 1465 q 701 1341 684 1372 q 728 1288 718 1311 q 743 1249 739 1265 q 747 1218 747 1232 z "},"":{"ha":1276,"x_min":22,"x_max":1254,"o":"m 1145 350 q 1128 231 1145 284 q 1078 137 1110 178 q 1002 67 1046 96 q 905 19 958 38 q 792 -8 852 1 q 669 -17 732 -17 q 525 -8 594 -17 q 396 20 456 1 q 287 68 336 39 q 203 138 238 97 q 149 233 168 180 q 130 353 130 286 l 130 796 q 122 843 130 826 q 102 868 114 859 q 76 880 90 876 q 51 887 62 883 q 31 898 39 890 q 22 921 22 905 q 44 993 22 963 q 109 1043 66 1023 q 213 1071 151 1062 q 355 1080 275 1080 q 502 1071 438 1080 q 609 1043 566 1062 q 674 993 652 1023 q 696 921 696 963 q 688 898 696 905 q 668 887 680 890 q 642 880 656 883 q 615 869 627 877 q 595 844 604 861 q 587 798 587 827 l 587 353 q 601 272 587 305 q 639 218 614 239 q 697 187 663 197 q 770 178 730 178 q 840 188 808 178 q 896 218 872 197 q 933 273 920 239 q 947 353 947 306 l 947 796 q 939 843 947 826 q 919 868 931 859 q 893 880 907 876 q 867 887 879 883 q 847 898 855 890 q 839 921 839 905 q 859 993 839 963 q 911 1043 880 1023 q 979 1071 942 1062 q 1051 1080 1017 1080 q 1117 1071 1082 1080 q 1183 1043 1153 1062 q 1234 993 1214 1023 q 1254 921 1254 963 q 1246 898 1254 905 q 1225 886 1238 890 q 1199 879 1213 882 q 1173 867 1185 876 q 1152 841 1160 858 q 1144 793 1144 824 l 1145 350 m 436 1218 q 440 1249 436 1232 q 454 1288 444 1265 q 481 1341 465 1311 q 525 1413 498 1372 q 587 1518 557 1465 q 649 1616 617 1572 q 716 1687 680 1659 q 798 1715 752 1715 q 864 1701 835 1715 q 915 1665 894 1687 q 948 1615 937 1643 q 960 1560 960 1588 q 946 1499 960 1529 q 911 1441 933 1470 q 860 1387 888 1413 q 800 1337 831 1361 q 738 1290 768 1312 q 680 1249 707 1268 q 568 1175 612 1197 q 501 1152 525 1152 q 477 1158 489 1152 q 456 1174 465 1164 q 441 1196 447 1184 q 436 1218 436 1207 z "},"":{"ha":1276,"x_min":22,"x_max":1254,"o":"m 1145 350 q 1128 231 1145 284 q 1078 137 1110 178 q 1002 67 1046 96 q 905 19 958 38 q 792 -8 852 1 q 669 -17 732 -17 q 525 -8 594 -17 q 396 20 456 1 q 287 68 336 39 q 203 138 238 97 q 149 233 168 180 q 130 353 130 286 l 130 796 q 122 843 130 826 q 102 868 114 859 q 76 880 90 876 q 51 887 62 883 q 31 898 39 890 q 22 921 22 905 q 44 993 22 963 q 109 1043 66 1023 q 213 1071 151 1062 q 355 1080 275 1080 q 502 1071 438 1080 q 609 1043 566 1062 q 674 993 652 1023 q 696 921 696 963 q 688 898 696 905 q 668 887 680 890 q 642 880 656 883 q 615 869 627 877 q 595 844 604 861 q 587 798 587 827 l 587 353 q 601 272 587 305 q 639 218 614 239 q 697 187 663 197 q 770 178 730 178 q 840 188 808 178 q 896 218 872 197 q 933 273 920 239 q 947 353 947 306 l 947 796 q 939 843 947 826 q 919 868 931 859 q 893 880 907 876 q 867 887 879 883 q 847 898 855 890 q 839 921 839 905 q 859 993 839 963 q 911 1043 880 1023 q 979 1071 942 1062 q 1051 1080 1017 1080 q 1117 1071 1082 1080 q 1183 1043 1153 1062 q 1234 993 1214 1023 q 1254 921 1254 963 q 1246 898 1254 905 q 1225 886 1238 890 q 1199 879 1213 882 q 1173 867 1185 876 q 1152 841 1160 858 q 1144 793 1144 824 l 1145 350 m 684 1694 q 765 1673 731 1694 q 828 1607 799 1651 q 885 1493 857 1562 q 949 1331 913 1425 l 977 1257 q 986 1213 986 1233 q 980 1182 986 1196 q 963 1159 973 1168 q 938 1145 952 1149 q 910 1140 924 1140 q 878 1145 892 1140 q 849 1163 864 1149 q 814 1200 833 1176 q 766 1263 795 1225 l 684 1373 l 602 1263 q 554 1200 573 1225 q 519 1163 534 1176 q 490 1145 504 1149 q 458 1140 476 1140 q 430 1145 444 1140 q 405 1159 416 1149 q 388 1182 395 1168 q 382 1213 382 1196 q 391 1257 382 1233 l 419 1332 q 483 1494 455 1426 q 540 1607 511 1563 q 603 1673 569 1651 q 684 1694 636 1694 z "},"":{"ha":1276,"x_min":22,"x_max":1254,"o":"m 1145 350 q 1128 231 1145 284 q 1078 137 1110 178 q 1002 67 1046 96 q 905 19 958 38 q 792 -8 852 1 q 669 -17 732 -17 q 525 -8 594 -17 q 396 20 456 1 q 287 68 336 39 q 203 138 238 97 q 149 233 168 180 q 130 353 130 286 l 130 796 q 122 843 130 826 q 102 868 114 859 q 76 880 90 876 q 51 887 62 883 q 31 898 39 890 q 22 921 22 905 q 44 993 22 963 q 109 1043 66 1023 q 213 1071 151 1062 q 355 1080 275 1080 q 502 1071 438 1080 q 609 1043 566 1062 q 674 993 652 1023 q 696 921 696 963 q 688 898 696 905 q 668 887 680 890 q 642 880 656 883 q 615 869 627 877 q 595 844 604 861 q 587 798 587 827 l 587 353 q 601 272 587 305 q 639 218 614 239 q 697 187 663 197 q 770 178 730 178 q 840 188 808 178 q 896 218 872 197 q 933 273 920 239 q 947 353 947 306 l 947 796 q 939 843 947 826 q 919 868 931 859 q 893 880 907 876 q 867 887 879 883 q 847 898 855 890 q 839 921 839 905 q 859 993 839 963 q 911 1043 880 1023 q 979 1071 942 1062 q 1051 1080 1017 1080 q 1117 1071 1082 1080 q 1183 1043 1153 1062 q 1234 993 1214 1023 q 1254 921 1254 963 q 1246 898 1254 905 q 1225 886 1238 890 q 1199 879 1213 882 q 1173 867 1185 876 q 1152 841 1160 858 q 1144 793 1144 824 l 1145 350 m 180 1320 q 200 1404 180 1371 q 251 1455 221 1436 q 314 1481 281 1474 q 372 1489 347 1489 q 433 1481 399 1489 q 496 1455 467 1474 q 546 1404 526 1436 q 566 1320 566 1371 q 546 1238 566 1270 q 496 1186 526 1205 q 433 1160 467 1167 q 372 1152 399 1152 q 314 1160 347 1152 q 251 1186 281 1167 q 200 1238 221 1205 q 180 1320 180 1270 m 764 1320 q 785 1404 764 1371 q 836 1455 806 1436 q 899 1481 866 1474 q 958 1489 932 1489 q 1018 1481 985 1489 q 1081 1455 1051 1474 q 1130 1404 1110 1436 q 1150 1320 1150 1371 q 1130 1238 1150 1270 q 1081 1186 1110 1205 q 1018 1160 1051 1167 q 958 1152 985 1152 q 899 1160 932 1152 q 836 1186 866 1167 q 785 1238 806 1205 q 764 1320 764 1270 z "},"":{"ha":1182,"x_min":5,"x_max":1181,"o":"m 585 0 q 441 9 504 0 q 336 38 379 18 q 272 87 294 57 q 250 160 250 118 q 258 183 250 176 q 278 194 266 191 q 304 201 290 198 q 331 213 319 205 q 351 238 343 222 q 359 285 359 254 l 359 529 l 169 793 q 131 833 151 819 q 93 857 111 848 q 59 871 75 866 q 31 882 43 876 q 12 896 19 887 q 5 921 5 905 q 93 1043 5 1005 q 345 1080 180 1080 q 488 1071 425 1080 q 592 1043 550 1062 q 657 993 635 1023 q 679 921 679 963 q 667 893 679 902 q 640 878 654 884 q 613 866 625 872 q 601 845 601 859 q 606 825 601 837 q 625 796 612 813 l 696 681 q 727 662 713 662 q 746 669 737 662 q 762 688 755 677 l 840 796 q 855 824 851 812 q 859 845 859 836 q 853 862 859 856 q 838 872 847 868 q 818 880 829 876 q 799 888 808 883 q 783 900 789 892 q 777 921 777 908 q 790 982 777 954 q 828 1033 803 1011 q 891 1067 854 1055 q 979 1080 929 1080 q 1067 1067 1029 1080 q 1130 1033 1105 1055 q 1168 982 1156 1011 q 1181 921 1181 954 q 1173 896 1181 905 q 1151 883 1165 888 q 1118 873 1137 878 q 1080 859 1100 868 q 1039 835 1060 850 q 1000 793 1018 819 l 815 529 l 815 288 q 823 240 815 257 q 844 214 831 223 q 870 202 856 205 q 896 195 884 199 q 916 183 908 191 q 924 160 924 176 q 902 87 924 118 q 837 38 880 57 q 731 9 794 18 q 585 0 667 0 m 392 1218 q 396 1249 392 1232 q 410 1288 400 1265 q 437 1341 420 1311 q 481 1413 454 1372 q 543 1518 513 1465 q 605 1616 573 1572 q 672 1687 636 1659 q 754 1715 708 1715 q 820 1701 791 1715 q 871 1665 850 1687 q 904 1615 892 1643 q 916 1560 916 1588 q 902 1499 916 1529 q 867 1441 889 1470 q 815 1387 844 1413 q 755 1337 787 1361 q 693 1290 724 1312 q 636 1249 663 1268 q 524 1175 568 1197 q 457 1152 481 1152 q 433 1158 445 1152 q 412 1174 421 1164 q 397 1196 403 1184 q 392 1218 392 1207 z "},"":{"ha":1221,"x_min":45,"x_max":1215,"o":"m 612 424 l 701 424 q 756 440 733 424 q 793 483 779 456 q 814 544 807 509 q 821 614 821 578 q 813 688 821 651 q 789 753 806 724 q 746 799 772 781 q 681 817 720 817 l 611 817 l 612 424 m 153 968 q 144 1015 153 998 q 124 1040 136 1031 q 99 1052 113 1048 q 73 1059 85 1055 q 53 1070 61 1063 q 45 1093 45 1077 q 67 1165 45 1135 q 131 1215 89 1196 q 236 1243 174 1234 q 378 1253 298 1253 q 524 1243 460 1253 q 631 1215 588 1234 q 696 1165 674 1196 q 718 1093 718 1135 q 710 1070 718 1077 q 690 1059 702 1063 q 663 1051 677 1055 q 637 1039 649 1048 q 616 1013 625 1030 q 608 965 608 996 l 608 939 l 774 939 q 967 912 884 939 q 1105 841 1050 885 q 1188 742 1160 798 q 1215 627 1215 686 q 1188 512 1215 568 q 1105 413 1160 456 q 967 342 1050 369 q 774 315 884 315 q 740 316 763 315 q 691 316 716 316 q 643 317 665 317 q 610 318 620 317 l 610 279 q 618 236 610 251 q 638 213 626 220 q 665 201 650 205 q 691 194 679 198 q 711 183 703 191 q 720 160 720 176 q 632 38 720 75 q 379 0 545 0 q 237 9 299 0 q 133 38 175 18 q 68 87 90 57 q 46 160 46 118 q 54 183 46 176 q 74 194 62 191 q 100 201 86 198 q 126 213 114 205 q 146 238 138 222 q 154 285 154 254 l 153 968 z "},"":{"ha":1331,"x_min":32,"x_max":1307,"o":"m 599 285 q 607 238 599 255 q 628 213 615 222 q 654 201 640 205 q 681 194 669 198 q 702 183 694 191 q 710 160 710 176 q 622 38 710 75 q 366 0 534 0 q 223 9 286 0 q 119 38 161 18 q 54 87 76 57 q 32 160 32 118 q 40 183 32 176 q 60 194 48 191 q 86 201 72 198 q 112 213 100 205 q 132 238 124 222 q 140 285 140 254 l 140 593 q 145 730 140 666 q 167 849 149 795 q 220 946 185 903 q 317 1019 256 989 q 471 1064 379 1048 q 696 1080 564 1080 q 893 1056 809 1080 q 1033 994 977 1032 q 1116 908 1088 956 q 1143 812 1143 860 q 1131 749 1143 780 q 1093 693 1118 718 q 1031 648 1068 667 q 945 621 994 629 q 1100 581 1032 615 q 1213 496 1167 547 q 1283 381 1259 444 q 1307 254 1307 318 q 1287 144 1307 197 q 1226 51 1267 92 q 1123 -14 1185 10 q 975 -39 1061 -39 q 877 -27 922 -39 q 800 4 832 -15 q 750 49 768 24 q 732 102 732 75 q 741 145 732 130 q 761 167 750 159 q 789 176 773 175 q 829 189 811 176 q 861 224 848 202 q 881 275 873 246 q 888 334 888 303 q 877 406 888 370 q 841 470 865 441 q 777 516 816 498 q 682 534 738 534 q 657 541 667 534 q 642 556 647 547 q 635 575 637 566 q 633 593 633 585 q 635 610 633 600 q 642 630 637 621 q 657 645 648 639 q 684 652 667 652 q 730 663 711 652 q 763 691 750 673 q 782 733 776 709 q 787 782 787 756 q 780 841 787 812 q 758 895 772 871 q 723 933 743 918 q 678 947 703 947 q 640 935 654 947 q 616 900 625 923 q 604 845 607 878 q 600 771 600 812 l 599 285 z "},"":{"ha":1055,"x_min":27,"x_max":1052,"o":"m 486 139 q 523 146 509 139 q 544 166 536 153 q 554 199 551 180 q 556 243 556 218 q 555 296 556 264 q 554 360 555 329 q 552 436 553 397 q 534 438 543 437 q 517 439 526 439 q 459 426 483 439 q 422 387 436 412 q 402 329 408 362 q 396 256 396 295 q 399 211 396 232 q 411 173 401 189 q 438 148 420 157 q 486 139 456 139 m 813 0 q 744 4 779 0 q 679 19 710 7 q 623 52 648 31 q 578 110 597 74 q 535 54 565 78 q 466 15 505 31 q 386 -9 428 -1 q 304 -17 343 -17 q 184 -1 236 -17 q 98 46 133 16 q 45 118 62 76 q 27 212 27 160 q 48 329 27 274 q 118 426 68 385 q 252 491 168 467 q 460 515 335 515 l 553 515 q 548 640 553 591 q 532 719 543 690 q 505 760 522 748 q 466 771 489 771 q 423 755 440 771 q 395 710 406 740 q 380 639 385 681 q 376 545 376 597 q 314 546 347 545 q 251 551 282 547 q 191 563 219 555 q 141 586 163 572 q 106 623 119 601 q 94 677 94 646 q 117 762 94 722 q 189 832 140 802 q 312 881 237 863 q 490 899 387 899 q 696 874 610 899 q 839 801 783 850 q 922 678 895 752 q 949 504 949 604 l 949 264 q 957 218 949 235 q 976 194 964 202 q 1000 182 987 185 q 1025 175 1014 178 q 1044 164 1036 171 q 1052 143 1052 158 q 991 38 1052 75 q 813 0 930 0 m 599 1052 q 593 1029 599 1041 q 579 1008 588 1018 q 558 992 570 998 q 534 986 546 986 q 466 1008 509 986 q 354 1082 423 1031 q 297 1124 328 1102 q 235 1171 266 1146 q 175 1221 204 1195 q 124 1275 146 1247 q 89 1333 102 1303 q 75 1394 75 1362 q 87 1449 75 1421 q 119 1499 98 1477 q 170 1535 140 1521 q 236 1549 199 1549 q 318 1521 282 1549 q 386 1450 355 1493 q 447 1352 418 1406 q 509 1247 477 1299 q 553 1175 536 1206 q 581 1122 570 1145 q 595 1083 591 1099 q 599 1052 599 1066 z "},"":{"ha":1055,"x_min":27,"x_max":1052,"o":"m 486 139 q 523 146 509 139 q 544 166 536 153 q 554 199 551 180 q 556 243 556 218 q 555 296 556 264 q 554 360 555 329 q 552 436 553 397 q 534 438 543 437 q 517 439 526 439 q 459 426 483 439 q 422 387 436 412 q 402 329 408 362 q 396 256 396 295 q 399 211 396 232 q 411 173 401 189 q 438 148 420 157 q 486 139 456 139 m 813 0 q 744 4 779 0 q 679 19 710 7 q 623 52 648 31 q 578 110 597 74 q 535 54 565 78 q 466 15 505 31 q 386 -9 428 -1 q 304 -17 343 -17 q 184 -1 236 -17 q 98 46 133 16 q 45 118 62 76 q 27 212 27 160 q 48 329 27 274 q 118 426 68 385 q 252 491 168 467 q 460 515 335 515 l 553 515 q 548 640 553 591 q 532 719 543 690 q 505 760 522 748 q 466 771 489 771 q 423 755 440 771 q 395 710 406 740 q 380 639 385 681 q 376 545 376 597 q 314 546 347 545 q 251 551 282 547 q 191 563 219 555 q 141 586 163 572 q 106 623 119 601 q 94 677 94 646 q 117 762 94 722 q 189 832 140 802 q 312 881 237 863 q 490 899 387 899 q 696 874 610 899 q 839 801 783 850 q 922 678 895 752 q 949 504 949 604 l 949 264 q 957 218 949 235 q 976 194 964 202 q 1000 182 987 185 q 1025 175 1014 178 q 1044 164 1036 171 q 1052 143 1052 158 q 991 38 1052 75 q 813 0 930 0 m 316 1052 q 320 1083 316 1066 q 334 1122 324 1099 q 361 1175 345 1145 q 405 1247 378 1206 q 467 1352 437 1299 q 529 1450 497 1406 q 596 1521 560 1493 q 678 1549 632 1549 q 744 1535 715 1549 q 795 1499 774 1521 q 828 1449 817 1477 q 840 1394 840 1421 q 826 1333 840 1362 q 791 1275 813 1303 q 740 1221 768 1247 q 680 1171 711 1195 q 617 1124 648 1146 q 560 1082 587 1102 q 448 1008 492 1031 q 381 986 405 986 q 357 992 369 986 q 336 1008 345 998 q 321 1029 327 1018 q 316 1052 316 1041 z "},"":{"ha":1055,"x_min":27,"x_max":1052,"o":"m 486 139 q 523 146 509 139 q 544 166 536 153 q 554 199 551 180 q 556 243 556 218 q 555 296 556 264 q 554 360 555 329 q 552 436 553 397 q 534 438 543 437 q 517 439 526 439 q 459 426 483 439 q 422 387 436 412 q 402 329 408 362 q 396 256 396 295 q 399 211 396 232 q 411 173 401 189 q 438 148 420 157 q 486 139 456 139 m 813 0 q 744 4 779 0 q 679 19 710 7 q 623 52 648 31 q 578 110 597 74 q 535 54 565 78 q 466 15 505 31 q 386 -9 428 -1 q 304 -17 343 -17 q 184 -1 236 -17 q 98 46 133 16 q 45 118 62 76 q 27 212 27 160 q 48 329 27 274 q 118 426 68 385 q 252 491 168 467 q 460 515 335 515 l 553 515 q 548 640 553 591 q 532 719 543 690 q 505 760 522 748 q 466 771 489 771 q 423 755 440 771 q 395 710 406 740 q 380 639 385 681 q 376 545 376 597 q 314 546 347 545 q 251 551 282 547 q 191 563 219 555 q 141 586 163 572 q 106 623 119 601 q 94 677 94 646 q 117 762 94 722 q 189 832 140 802 q 312 881 237 863 q 490 899 387 899 q 696 874 610 899 q 839 801 783 850 q 922 678 895 752 q 949 504 949 604 l 949 264 q 957 218 949 235 q 976 194 964 202 q 1000 182 987 185 q 1025 175 1014 178 q 1044 164 1036 171 q 1052 143 1052 158 q 991 38 1052 75 q 813 0 930 0 m 536 1528 q 617 1507 583 1528 q 680 1440 651 1485 q 737 1327 709 1396 q 801 1165 765 1259 l 829 1090 q 838 1047 838 1067 q 832 1016 838 1029 q 815 992 825 1002 q 790 979 804 983 q 762 974 777 974 q 730 979 744 974 q 701 997 716 983 q 666 1034 686 1010 q 618 1097 647 1059 l 536 1207 l 454 1097 q 406 1034 425 1059 q 371 997 387 1010 q 342 979 356 983 q 310 974 328 974 q 282 979 296 974 q 257 992 268 983 q 240 1016 247 1002 q 234 1047 234 1029 q 243 1090 234 1067 l 271 1166 q 335 1328 307 1259 q 392 1441 363 1396 q 455 1507 421 1485 q 536 1528 488 1528 z "},"":{"ha":1055,"x_min":27,"x_max":1052,"o":"m 486 139 q 523 146 509 139 q 544 166 536 153 q 554 199 551 180 q 556 243 556 218 q 555 296 556 264 q 554 360 555 329 q 552 436 553 397 q 534 438 543 437 q 517 439 526 439 q 459 426 483 439 q 422 387 436 412 q 402 329 408 362 q 396 256 396 295 q 399 211 396 232 q 411 173 401 189 q 438 148 420 157 q 486 139 456 139 m 813 0 q 744 4 779 0 q 679 19 710 7 q 623 52 648 31 q 578 110 597 74 q 535 54 565 78 q 466 15 505 31 q 386 -9 428 -1 q 304 -17 343 -17 q 184 -1 236 -17 q 98 46 133 16 q 45 118 62 76 q 27 212 27 160 q 48 329 27 274 q 118 426 68 385 q 252 491 168 467 q 460 515 335 515 l 553 515 q 548 640 553 591 q 532 719 543 690 q 505 760 522 748 q 466 771 489 771 q 423 755 440 771 q 395 710 406 740 q 380 639 385 681 q 376 545 376 597 q 314 546 347 545 q 251 551 282 547 q 191 563 219 555 q 141 586 163 572 q 106 623 119 601 q 94 677 94 646 q 117 762 94 722 q 189 832 140 802 q 312 881 237 863 q 490 899 387 899 q 696 874 610 899 q 839 801 783 850 q 922 678 895 752 q 949 504 949 604 l 949 264 q 957 218 949 235 q 976 194 964 202 q 1000 182 987 185 q 1025 175 1014 178 q 1044 164 1036 171 q 1052 143 1052 158 q 991 38 1052 75 q 813 0 930 0 m 1005 1339 q 950 1195 981 1252 q 880 1105 918 1138 q 799 1058 842 1072 q 709 1045 756 1045 q 603 1057 658 1045 q 493 1082 548 1068 q 382 1108 437 1097 q 274 1120 327 1120 q 230 1116 251 1120 q 194 1102 210 1112 q 169 1076 178 1092 q 160 1038 160 1061 q 163 1035 160 1035 l 80 1118 q 142 1263 109 1206 q 211 1353 175 1320 q 286 1400 247 1387 q 368 1413 326 1413 q 470 1401 417 1413 q 581 1374 523 1388 q 701 1347 638 1359 q 831 1334 764 1334 q 868 1338 851 1334 q 897 1353 885 1343 q 916 1379 909 1363 q 923 1419 923 1396 q 922 1424 923 1423 l 1005 1339 z "},"":{"ha":1055,"x_min":27,"x_max":1052,"o":"m 486 139 q 523 146 509 139 q 544 166 536 153 q 554 199 551 180 q 556 243 556 218 q 555 296 556 264 q 554 360 555 329 q 552 436 553 397 q 534 438 543 437 q 517 439 526 439 q 459 426 483 439 q 422 387 436 412 q 402 329 408 362 q 396 256 396 295 q 399 211 396 232 q 411 173 401 189 q 438 148 420 157 q 486 139 456 139 m 813 0 q 744 4 779 0 q 679 19 710 7 q 623 52 648 31 q 578 110 597 74 q 535 54 565 78 q 466 15 505 31 q 386 -9 428 -1 q 304 -17 343 -17 q 184 -1 236 -17 q 98 46 133 16 q 45 118 62 76 q 27 212 27 160 q 48 329 27 274 q 118 426 68 385 q 252 491 168 467 q 460 515 335 515 l 553 515 q 548 640 553 591 q 532 719 543 690 q 505 760 522 748 q 466 771 489 771 q 423 755 440 771 q 395 710 406 740 q 380 639 385 681 q 376 545 376 597 q 314 546 347 545 q 251 551 282 547 q 191 563 219 555 q 141 586 163 572 q 106 623 119 601 q 94 677 94 646 q 117 762 94 722 q 189 832 140 802 q 312 881 237 863 q 490 899 387 899 q 696 874 610 899 q 839 801 783 850 q 922 678 895 752 q 949 504 949 604 l 949 264 q 957 218 949 235 q 976 194 964 202 q 1000 182 987 185 q 1025 175 1014 178 q 1044 164 1036 171 q 1052 143 1052 158 q 991 38 1052 75 q 813 0 930 0 m 45 1154 q 65 1238 45 1205 q 116 1289 86 1270 q 179 1315 146 1308 q 237 1322 212 1322 q 298 1315 264 1322 q 361 1289 332 1308 q 411 1238 391 1270 q 431 1154 431 1205 q 411 1072 431 1104 q 361 1020 391 1039 q 298 994 332 1001 q 237 986 264 986 q 179 994 212 986 q 116 1020 146 1001 q 65 1072 86 1039 q 45 1154 45 1104 m 629 1154 q 650 1238 629 1205 q 701 1289 671 1270 q 764 1315 731 1308 q 823 1322 798 1322 q 883 1315 850 1322 q 946 1289 916 1308 q 995 1238 975 1270 q 1015 1154 1015 1205 q 995 1072 1015 1104 q 946 1020 975 1039 q 883 994 916 1001 q 823 986 850 986 q 764 994 798 986 q 701 1020 731 1001 q 650 1072 671 1039 q 629 1154 629 1104 z "},"":{"ha":1055,"x_min":27,"x_max":1052,"o":"m 486 139 q 523 146 509 139 q 544 166 536 153 q 554 199 551 180 q 556 243 556 218 q 555 296 556 264 q 554 360 555 329 q 552 436 553 397 q 534 438 543 437 q 517 439 526 439 q 459 426 483 439 q 422 387 436 412 q 402 329 408 362 q 396 256 396 295 q 399 211 396 232 q 411 173 401 189 q 438 148 420 157 q 486 139 456 139 m 813 0 q 744 4 779 0 q 679 19 710 7 q 623 52 648 31 q 578 110 597 74 q 535 54 565 78 q 466 15 505 31 q 386 -9 428 -1 q 304 -17 343 -17 q 184 -1 236 -17 q 98 46 133 16 q 45 118 62 76 q 27 212 27 160 q 48 329 27 274 q 118 426 68 385 q 252 491 168 467 q 460 515 335 515 l 553 515 q 548 640 553 591 q 532 719 543 690 q 505 760 522 748 q 466 771 489 771 q 423 755 440 771 q 395 710 406 740 q 380 639 385 681 q 376 545 376 597 q 314 546 347 545 q 251 551 282 547 q 191 563 219 555 q 141 586 163 572 q 106 623 119 601 q 94 677 94 646 q 117 762 94 722 q 189 832 140 802 q 312 881 237 863 q 490 899 387 899 q 696 874 610 899 q 839 801 783 850 q 922 678 895 752 q 949 504 949 604 l 949 264 q 957 218 949 235 q 976 194 964 202 q 1000 182 987 185 q 1025 175 1014 178 q 1044 164 1036 171 q 1052 143 1052 158 q 991 38 1052 75 q 813 0 930 0 m 416 1255 q 430 1195 416 1218 q 461 1158 443 1171 q 502 1139 480 1144 q 539 1134 523 1134 q 576 1139 555 1134 q 616 1158 597 1144 q 647 1195 635 1171 q 660 1255 660 1218 q 647 1315 660 1291 q 616 1353 635 1339 q 576 1372 597 1367 q 539 1377 555 1377 q 502 1372 523 1377 q 461 1353 480 1367 q 430 1315 443 1339 q 416 1255 416 1291 m 231 1256 q 246 1351 231 1310 q 287 1422 262 1392 q 346 1473 313 1453 q 413 1505 378 1493 q 480 1521 447 1516 q 541 1527 513 1527 q 604 1521 570 1527 q 673 1505 638 1516 q 740 1473 707 1493 q 797 1422 772 1453 q 836 1351 821 1392 q 851 1256 851 1310 q 836 1161 851 1202 q 797 1090 821 1120 q 740 1040 772 1060 q 673 1008 707 1020 q 604 991 638 996 q 541 986 570 986 q 480 991 514 986 q 413 1008 447 996 q 346 1040 378 1020 q 287 1090 313 1060 q 246 1161 262 1120 q 231 1256 231 1202 z "}}}
